<svg xmlns="http://www.w3.org/2000/svg" xmlns:xlink="http://www.w3.org/1999/xlink" viewBox="0 0 1504.11 654.75"><defs><style>.cls-1{fill:#fff;opacity:0.5;}.cls-2{fill:url(#Cielo);}.cls-3,.cls-6{fill:none;}.cls-3{stroke:blue;stroke-width:1.2px;}.cls-3,.cls-6,.cls-7{stroke-miterlimit:10;}.cls-4{fill:url(#Cielo-2);}.cls-5{fill:url(#Cielo-3);}.cls-6{stroke:#11b6cc;stroke-width:3px;stroke-dasharray:5 10;}.cls-7{fill:#29abe2;stroke:#29abe2;}.cls-8{fill:#0077bf;}.cls-9{fill:#85a538;}.cls-10{fill:#84a538;}.cls-11{fill:#0178c0;}.cls-12{fill:#0378c0;}.cls-13{fill:#0278c0;}.cls-14{fill:#0379c0;}.cls-15{fill:#86a63a;}.cls-16{fill:#87a73a;}.cls-17{fill:#87a63a;}.cls-18{fill:#87a63b;}.cls-19{fill:#87a73c;}.cls-20{fill:#0c80c5;}.cls-21{fill:#0b7ebf;}.cls-22{fill:#1385c8;}.cls-23{fill:#1582c5;}.cls-24{fill:#1caae0;}.cls-25{fill:#00a3e3;}.cls-26{fill:#0396d5;}.cls-27{fill:#1373aa;}.cls-28{fill:#0296d5;}.cls-29{fill:#a6cc46;}.cls-30{fill:#a6cb46;}.cls-31{fill:#a5ca46;}.cls-32{fill:#a7cc46;}.cls-33{fill:#0396d4;}.cls-34{fill:#a3c947;}.cls-35{fill:#7d7f81;}.cls-36{fill:#7d8082;}.cls-37{fill:#fdfefe;}.cls-38{fill:#fdfdfe;}.cls-39{fill:#e8eaec;}.cls-40{fill:#e6eaeb;}.cls-41{fill:#fefefe;}.cls-42{fill:#f2f2f3;}.cls-43{fill:#7b9933;}.cls-44{fill:#383943;}.cls-45{fill:#fdfdfc;}.cls-46{fill:#fcfcfb;}.cls-47{fill:#24ad56;}.cls-48{fill:#774439;}.cls-49{fill:#c5785f;}.cls-50{fill:#a3b779;}.cls-51{fill:#5d3128;}.cls-52{fill:#f9ab84;}.cls-53{fill:#eb9c74;}.cls-54{fill:#a0bf7c;}.cls-55{fill:#acaa77;}.cls-56{fill:#f8b893;}.cls-57{fill:#fab18b;}.cls-58{fill:#e20059;}.cls-59{fill:#010101;}.cls-60{fill:#030303;}.cls-61{fill:#5e7759;}.cls-62{fill:#f9b28b;}.cls-63{fill:#557c58;}.cls-64{fill:#5d7658;}.cls-65{fill:#557558;}.cls-66{fill:#678362;}.cls-67{fill:#60795a;}.cls-68{fill:#60795b;}.cls-69{fill:#fda177;}.cls-70{fill:#4a6f53;}.cls-71{fill:#688463;}.cls-72{fill:#678361;}.cls-73{fill:#fca277;}.cls-74{fill:#466f52;}.cls-75{fill:#e5c7af;}.cls-76{fill:#f5b794;}.cls-77{fill:#64342d;}.cls-78{fill:#f3b796;}.cls-79{fill:#f0c6a9;}.cls-80{fill:#cb725f;}.cls-81{fill:#f3aa86;}.cls-82{fill:#4f3623;}.cls-83{fill:#f9ae87;}.cls-84{fill:#010000;}.cls-85{fill:#512821;}.cls-86{fill:#fbb586;}.cls-87{fill:#febb91;}.cls-88{fill:#ee015d;}.cls-89{fill:#981a3d;}.cls-90{fill:#5d7558;}.cls-91{fill:#009245;}.cls-92{fill:#566e52;}</style><linearGradient id="Cielo" x1="1087.08" y1="627.26" x2="1087.08" y2="156.31" gradientUnits="userSpaceOnUse"><stop offset="0" stop-color="#cce0f4"/><stop offset="0.06" stop-color="#c3dcf2"/><stop offset="0.17" stop-color="#a9d2ee"/><stop offset="0.31" stop-color="#80c2e7"/><stop offset="0.46" stop-color="#47acde"/><stop offset="0.57" stop-color="#1e9cd7"/><stop offset="0.87" stop-color="#0075be"/><stop offset="0.99" stop-color="#005b97"/></linearGradient><linearGradient id="Cielo-2" x1="747.41" y1="567.06" x2="747.41" y2="95.87" xlink:href="#Cielo"/><linearGradient id="Cielo-3" x1="407.08" y1="627.26" x2="407.08" y2="156.31" xlink:href="#Cielo"/></defs><title>Recurso 29</title><g id="Capa_2" data-name="Capa 2"><g id="Error_404" data-name="Error 404"><ellipse id="Base" class="cls-1" cx="738.61" cy="589.75" rx="736.5" ry="65"/><g id="_4" data-name="4"><path class="cls-2" d="M1192.16,171.15c10.43,14.22,13,53.72,7.9,118.5a8.68,8.68,0,0,0-.32,2.85c-2.21,49.93-4.42,103.65-6.32,161.8,12.64.32,20.23,1.58,23.07,4.74,2.53,2.84,3.16,7.27,1.9,13.91a251.94,251.94,0,0,1-4.43,25.28,103.59,103.59,0,0,1-8.53,24.33c-2.53,5.69-7.27,9.48-13.9,11.38v24.65c.31,18.64,0,32.55-1.27,41.71s-4.74,15.8-10.43,19.59c-7.9,5.38-18.33,7.9-31,7.27-12.95-.31-23.7-5.37-32.86-14.85-10.11-12-15.8-35.71-16.75-70.79-27.81,1.27-52.78,2.21-74.58,2.85-17.7.94-31,.31-39.19-1.27-8.53-1.58-14.54-5.69-18.33-12.32C963,523.51,959.88,514,958,503a184.54,184.54,0,0,1-2.85-31,80.27,80.27,0,0,1,1.58-15.17,131.74,131.74,0,0,1,5.69-19.28c2.85-7.58,6.64-18,11.69-31.29,1.58-3.47,2.85-7.26,4.43-11.06q3.79-10.43,8.53-22.75,15.16-40.29,33.18-87.22c12-31,22.76-57.2,31.92-78.37,6.95-15.49,12.33-26.55,16.75-33.19,4.43-6.95,8.53-11.37,12.33-12.95a28.82,28.82,0,0,1,13-2.85c7.59-.63,16.12-.94,25.92-1.26H1152C1168.77,155,1182.05,159.77,1192.16,171.15Zm-95.67,278.76c-2.52-60.68-3.79-119.14-3.47-175.08-10.43,25.29-20.54,51.2-30,77.43-9.48,25.91-17.07,48-23.07,65.73-7.27,21.49-9.8,34.45-7.27,38.87s11.69,5.69,27.18,3.48a3.43,3.43,0,0,0,1.58-.32c9.79-.63,21.8-1.58,35.39-2.21A67.91,67.91,0,0,1,1096.49,449.91Z"/><path class="cls-3" d="M1212.22,151.08c10.43,14.22,13,53.73,7.9,118.51a8.92,8.92,0,0,0-.31,2.84c-2.22,49.94-4.43,103.66-6.32,161.81,12.64.31,20.22,1.58,23.07,4.74,2.52,2.84,3.16,7.27,1.89,13.9a254,254,0,0,1-4.42,25.28,103.66,103.66,0,0,1-8.54,24.34c-2.52,5.69-7.26,9.48-13.9,11.37v24.65c.32,18.65,0,32.55-1.26,41.72s-4.74,15.8-10.43,19.59c-7.9,5.37-18.33,7.9-31,7.27-13-.32-23.7-5.37-32.87-14.85-10.11-12-15.8-35.71-16.75-70.79-27.81,1.26-52.77,2.21-74.58,2.84-17.7,1-31,.32-39.19-1.26-8.53-1.58-14.53-5.69-18.32-12.33-4.11-7.27-7.27-16.75-9.17-27.81a185.52,185.52,0,0,1-2.84-31,79.54,79.54,0,0,1,1.58-15.17,130.78,130.78,0,0,1,5.69-19.27c2.84-7.59,6.63-18,11.69-31.29,1.58-3.47,2.84-7.27,4.42-11.06q3.79-10.42,8.54-22.75,15.17-40.29,33.18-87.22c12-31,22.75-57.2,31.92-78.38,7-15.48,12.32-26.54,16.74-33.18,4.43-7,8.54-11.38,12.33-13a29,29,0,0,1,13-2.84c7.58-.63,16.11-.95,25.91-1.26h31.92C1188.84,135,1202.11,139.71,1212.22,151.08Zm-96.31,279.41c-2.53-60.67-3.79-119.14-3.48-175.07-10.42,25.28-20.54,51.19-30,77.42-9.48,25.92-17.06,48-23.07,65.73-7.27,21.49-9.79,34.45-7.27,38.87s11.7,5.69,27.18,3.48a3.39,3.39,0,0,0,1.58-.32c9.8-.63,21.81-1.58,35.4-2.21A67.83,67.83,0,0,1,1115.91,430.49Z"/></g><g id="_0" data-name="0"><path class="cls-4" d="M634.51,493.74q-37.92-69.69-38.87-161.8-.48-91.5,38.24-161.81c26.23-46.77,66-71.42,119.77-74.26q79.64,2.85,114.71,73C891.75,215.32,901.54,269.36,898.7,331Q894,423,854.46,493.11c-26.23,46.77-61.94,71.42-107.76,73.95C697.4,564.84,660.11,540.19,634.51,493.74Zm152-61.63c9.8-27.17,15.49-58.46,17.38-93.85,1.9-35.71-.94-67-8.53-94.18s-21.17-41.71-40.45-43.61c-19.59.95-34.44,15.17-44.24,42.35s-14.54,58.78-14.85,94.8q0,54,13.27,94.81c9.16,27.18,22.44,41.4,40.13,42.66C764.39,473.51,777,459.29,786.51,432.11Z"/><path class="cls-3" d="M653.92,474.32Q616,404.65,615.05,312.52q-.46-91.48,38.24-161.8,39.35-70.15,119.77-74.27,79.65,2.85,114.72,73C911.16,195.91,921,250,918.12,311.57q-4.74,92-44.25,162.12c-26.23,46.77-61.94,71.42-107.76,73.95C716.81,545.43,679.52,520.78,653.92,474.32Zm152-61.62c9.8-27.18,15.48-58.47,17.38-93.86,1.9-35.71-.95-67-8.53-94.17S793.61,183,774.33,181.06c-19.6.94-34.45,15.16-44.24,42.34s-14.54,58.78-14.86,94.81q0,54,13.27,94.8c9.17,27.18,22.44,41.4,40.14,42.67C783.81,454.1,796.45,439.88,805.93,412.7Z"/></g><g id="_4-2" data-name="4"><path class="cls-5" d="M512.16,171.15c10.43,14.22,13,53.72,7.9,118.5a8.68,8.68,0,0,0-.32,2.85c-2.21,49.93-4.42,103.65-6.32,161.8,12.64.32,20.23,1.58,23.07,4.74,2.53,2.84,3.16,7.27,1.9,13.91A251.94,251.94,0,0,1,534,498.23a103.59,103.59,0,0,1-8.53,24.33c-2.53,5.69-7.27,9.48-13.9,11.38v24.65c.31,18.64,0,32.55-1.27,41.71s-4.74,15.8-10.43,19.59c-7.9,5.38-18.33,7.9-31,7.27-12.95-.31-23.7-5.37-32.86-14.85-10.11-12-15.8-35.71-16.75-70.79-27.81,1.27-52.78,2.21-74.58,2.85-17.7.94-31,.31-39.19-1.27-8.53-1.58-14.54-5.69-18.33-12.32C283,523.51,279.88,514,278,503a184.54,184.54,0,0,1-2.85-31,80.27,80.27,0,0,1,1.58-15.17,131.74,131.74,0,0,1,5.69-19.28c2.85-7.58,6.64-18,11.69-31.29,1.58-3.47,2.85-7.26,4.43-11.06q3.8-10.43,8.53-22.75,15.17-40.29,33.18-87.22c12-31,22.76-57.2,31.92-78.37,6.95-15.49,12.33-26.55,16.75-33.19,4.43-6.95,8.53-11.37,12.33-12.95a28.82,28.82,0,0,1,12.95-2.85c7.59-.63,16.12-.94,25.92-1.26H472C488.77,155,502.05,159.77,512.16,171.15ZM416.49,449.91C414,389.23,412.7,330.77,413,274.83c-10.43,25.29-20.54,51.2-30,77.43-9.48,25.91-17.07,48-23.07,65.73-7.27,21.49-9.8,34.45-7.27,38.87s11.69,5.69,27.18,3.48a3.43,3.43,0,0,0,1.58-.32c9.79-.63,21.8-1.58,35.39-2.21A67.91,67.91,0,0,1,416.49,449.91Z"/><path class="cls-3" d="M532.22,151.08c10.43,14.22,13,53.73,7.9,118.51a8.92,8.92,0,0,0-.31,2.84c-2.22,49.94-4.43,103.66-6.32,161.81,12.64.31,20.22,1.58,23.07,4.74,2.52,2.84,3.16,7.27,1.89,13.9A254,254,0,0,1,554,478.16a103.66,103.66,0,0,1-8.54,24.34c-2.52,5.69-7.26,9.48-13.9,11.37v24.65c.32,18.65,0,32.55-1.26,41.72s-4.74,15.8-10.43,19.59c-7.9,5.37-18.33,7.9-31,7.27-13-.32-23.7-5.37-32.87-14.85-10.11-12-15.8-35.71-16.75-70.79-27.81,1.26-52.77,2.21-74.58,2.84-17.7,1-31,.32-39.19-1.26-8.53-1.58-14.53-5.69-18.32-12.33-4.11-7.27-7.27-16.75-9.17-27.81a185.52,185.52,0,0,1-2.84-31,79.54,79.54,0,0,1,1.58-15.17,130.78,130.78,0,0,1,5.69-19.27c2.84-7.59,6.63-18,11.69-31.29,1.58-3.47,2.84-7.27,4.42-11.06q3.8-10.42,8.54-22.75,15.17-40.29,33.18-87.22c12-31,22.75-57.2,31.92-78.38,6.95-15.48,12.32-26.54,16.74-33.18,4.43-7,8.54-11.38,12.33-13a29,29,0,0,1,13-2.84c7.58-.63,16.11-.95,25.91-1.26h31.92C508.84,135,522.11,139.71,532.22,151.08ZM435.91,430.49c-2.53-60.67-3.79-119.14-3.48-175.07-10.42,25.28-20.54,51.19-30,77.42-9.48,25.92-17.06,48-23.07,65.73-7.27,21.49-9.79,34.45-7.27,38.87s11.7,5.69,27.18,3.48a3.39,3.39,0,0,0,1.58-.32c9.8-.63,21.81-1.58,35.4-2.21A67.83,67.83,0,0,1,435.91,430.49Z"/></g><g id="Line"><path class="cls-6" d="M1219.11,530.26s43.72-60.65,37.5-119c-4.24-39.85-33-80-33-80"/><path class="cls-6" d="M308.61,49.25c96.5,94.5,161,28,230.5,30,80.13,2.31,91,78.65,91,78.65"/><path class="cls-6" d="M707.11,286.25c139.5,105.5,96,309.5,397.5,309.5"/></g><g id="Plane"><path class="cls-7" d="M215.48.52a1.56,1.56,0,0,0-1,2.35c1,1.7,2,3.38,3,5.06l37.57,62.55a1.22,1.22,0,0,1,.12.19c.84,1.36,1.62,1.53,2.9.61,2.79-2,5.57-4,8.35-6.06q7.29-5.28,14.56-10.57a.83.83,0,0,1,1.16,0l19.47,14.11a5.08,5.08,0,0,0,.61.42A1.53,1.53,0,0,0,304.71,68c.17-1.64.29-3.28.42-4.92q1.1-13.23,2.17-26.45a1.4,1.4,0,0,1,.93-1.32q13.14-6.42,26.25-12.89c1.31-.64,1.7-1.74.93-2.62a1.79,1.79,0,0,0-1.16-.57l-22.36-3.55L280.8,10.75,248.32,5.61l-31.75-5A3.77,3.77,0,0,0,215.48.52Zm4.92,6.13.1-.12.52.25c3.81,2.14,7.63,4.27,11.44,6.42l20.69,11.66,27,15.23c2.72,1.53,5.43,3.07,8.16,4.58.6.33.57.55,0,.88-.37.24-.72.52-1.08.78Q272.57,57,257.89,67.62c-.51.37-.76.3-1-.23a2,2,0,0,0-.19-.31q-16.15-26.88-32.3-53.75Zm11.81-.32,0-.11,96.6,15.3a1.47,1.47,0,0,1-.6.48L306.32,32.78a1.28,1.28,0,0,1-1.13,0l-4.29-1.56L241.21,9.6Zm1.56,3.89,1,.36,26.13,9.48,42.69,15.47a.8.8,0,0,1,.61,1c-.7,8.22-1.37,16.45-2.06,24.67,0,.22.08.5-.22.68-.13-.23-.26-.43-.36-.65q-4-8.13-8-16.27A3.86,3.86,0,0,0,292,43.15q-5.67-3.13-11.32-6.34l-31.92-18c-3.23-1.83-6.48-3.63-9.7-5.48C237.25,12.34,235.53,11.27,233.77,10.22Zm65,52.42-.12.1c-.18-.12-.37-.22-.54-.34l-13.06-9.47c-.82-.59-.83-.6,0-1.21,1.82-1.33,3.67-2.64,5.47-4,.57-.42.77-.31,1.06.28,1.86,3.84,3.75,7.67,5.64,11.5C297.8,60.54,298.3,61.59,298.81,62.64Z"/></g><g id="Monster"><path class="cls-8" d="M1261.69,528.56a8.68,8.68,0,0,1,3.81.53,6,6,0,0,1,4,4.68,2.54,2.54,0,0,0,2.59,2.54c1.24.11,2.47.41,3.72.45,3.12.1,6.25.09,9.38.12a6.32,6.32,0,0,0,4.47-1.75c4.46-4,9.33-7.52,13.75-11.56.65-.61.85-1,.33-1.89q-9.92-16.54-19.75-33.16c-2-3.34-4-6.67-5.93-10-.44-.76-.67-1-1.39-.22a11,11,0,0,1-6.66,2.83,18.9,18.9,0,0,1-9.63-.86,6.65,6.65,0,0,1-4.5-5.68c-.32-2.8,1.16-4.67,3.45-6a22,22,0,0,1,10.12-2.73c1.11-.05,1.19-.32.66-1.2-1.08-1.8-1.92-3.72-2.92-5.57-2.59-4.83-1.5-9.48,1.22-13.84a50.22,50.22,0,0,1,11.78-12.55A167.05,167.05,0,0,1,1338.27,403c.25-.07.5-.18.93-.33a72,72,0,0,1-8-11.4c-.12-.21-.16-.45,0-.58s.4.08.57.2h0c.12.46.54.72.74,1.12a61.08,61.08,0,0,0,7.68,9.8,45.28,45.28,0,0,1,1.18-8.61,28.73,28.73,0,0,1,4.9-10.63c.33-.44.66-1.14,1.36-.6s.11,1-.2,1.39c-3.87,5.16-5.28,11.14-5.79,17.43-.08.92,0,1.25,1.12,1a188.36,188.36,0,0,1,53.65-5.72,154.46,154.46,0,0,1,27.78,3.26c6.43,1.39,11.72,4.55,15.06,10.43a19.39,19.39,0,0,1,2.16,11.41c-.11,1.33-.18,2.67-.27,4,.62.19.86-.3,1.19-.53a13,13,0,0,1,5.89-2.43,6.92,6.92,0,0,1,6.76,2.69,5.68,5.68,0,0,1,.37,6.76,9.58,9.58,0,0,1-3,3.2c-3.42,2.24-6.92,4.31-11.21,4.26-.77,0-.61.51-.63.89-.15,2.41-.3,4.82-.41,7.23-.67,14-1.53,28-2.76,42-.22,2.44-.23,2.44,2,3.54,4,2,8.24,3.68,12.37,5.48a18.37,18.37,0,0,1,2.49,1.3,6.75,6.75,0,0,0,5.78.85c4.06-1.21,8.23-2.08,12.13-3.81,1.48-.66,2.36-1.42,2-3.31-.62-3.42,2.59-6.21,5-6.82l1.17-.31a1.24,1.24,0,0,1,1.32.08,9.93,9.93,0,0,1,2.89,2.92c.19.37.58.65.53,1.14a5.81,5.81,0,0,0,3.85,2.82,37,37,0,0,0,6,1.07,1.34,1.34,0,0,1,1.28.93c.81.79.48,1.82.55,2.76a11,11,0,0,1-.56,2.47,2.05,2.05,0,0,1-.84,1.14c-.44.9-1,1-2,.63a17.82,17.82,0,0,0-6.37-1.4c-.94,0-1.39,0-1,1.24.71,2,1,4.16,2,6.11a4,4,0,0,1,0,2.5c-.17.55-.67.64-1.11.81a10.73,10.73,0,0,1-1.66.37,4.65,4.65,0,0,1-2.42-.27c-1-.18-1.47-1-1.95-1.71a75.28,75.28,0,0,0-6.32-8.64c-.34-.4-.57-.89-1.27-.38a31.19,31.19,0,0,1-8,3.69,18.53,18.53,0,0,0-5.14,2.54,2.45,2.45,0,0,1-2.54.13,70.56,70.56,0,0,1-14.29-7c-1.94-1.18-3.92-2.31-5.87-3.5-.63-.38-1-.47-1.13.45-1.57,9.1-7.69,13.92-15.89,16.73-2.57.88-5.18,1.69-7.78,2.47-.87.26-1.08.6-.79,1.51,2.3,7.19,4.91,14.26,7.72,21.27,1.1,2.73,2.24,5.45,3.44,8.14a12.08,12.08,0,0,1,.51,8.51,113.35,113.35,0,0,1-4.18,11.44,23.81,23.81,0,0,0-2.09,6.21c-.27.06-.4-.11-.5-.31a4.16,4.16,0,0,1,.15-2.24,139.32,139.32,0,0,1,4.44-14.17,12.46,12.46,0,0,0-.33-9.73,152.1,152.1,0,0,1-9.18-25.11c-.25-1.17-.57-2.32-.86-3.48-.18-.71-.58-.92-1.28-.69-1.14.38-2.26.81-3.42,1.1-.69.17-.69.55-.42,1.09.71,1.38,1.45,2.75,2,4.19,2.86,6.16,5.18,12.54,7.83,18.78.86,2,1.81,4,2.48,6.07a6.51,6.51,0,0,1-.52,5.77,17.53,17.53,0,0,0-2.25,7.23,46.68,46.68,0,0,1-3,12.18,6.44,6.44,0,0,1-2.38,3,24.31,24.31,0,0,0-8.39,9.54,9.88,9.88,0,0,0-.9,2.65c-.42,2.72.57,4.48,3.37,6.06a14.82,14.82,0,0,0,5.89,1.56,126.11,126.11,0,0,0,14,.83,3,3,0,0,1,1.56.32c.54.42.94.89.54,1.63a149.9,149.9,0,0,1-18.7-1.33,14.78,14.78,0,0,1-2.34-.57c-4.7-1.5-6.9-5.63-5.12-10.24a23.53,23.53,0,0,1,9.69-11.63,3,3,0,0,0,1.52-2c1.2-5,2-10,2.84-15a11.91,11.91,0,0,1,2-5.07,3.72,3.72,0,0,0,.49-3.79c-2.86-7.32-5.67-14.66-8.51-22-1-2.54-2.08-5-3-7.6-.42-1.17-.92-1.33-2.06-1q-20.78,6.7-41.58,13.32c-1.53.49-3.06,1-4.61,1.43a1.36,1.36,0,0,0-1,.9c-2.23,6.22-5.79,11.77-8.84,17.58-.52,1-1,2-1.58,3a6.81,6.81,0,0,0,.09,7.37c1.93,3.37,3.95,6.69,5.95,10a73.48,73.48,0,0,1,4,7.74A7.37,7.37,0,0,0,1360,585c4.38,1.41,6.94,4.76,8.72,8.73,1.67,3.72.45,6.8-3.17,8.78a1.57,1.57,0,0,1-.42-1.79c3.55-2.46,2.65-5.76,1.08-8.69a6.15,6.15,0,0,0-.9-1.3,12.5,12.5,0,0,0-6.24-4.41,7.77,7.77,0,0,1-5-4.69c-2.1-5.42-5.48-10.1-8.49-15-.68-1.11-1.2-2.29-1.8-3.44a8.69,8.69,0,0,1,.21-8.58c1.92-3.58,4-7.05,6-10.6.55-1,1.12-1.92,1.64-2.91a44.45,44.45,0,0,0,2.72-5.81c-2,.59-3.83,1.29-5.71,1.81a1.85,1.85,0,0,0-.9.76c-.68.51-.6-.86-1.23-.48a99.91,99.91,0,0,1-13.9,4.35c-7,1.38-13-.87-18.34-5.4a30.54,30.54,0,0,1-7-8.87c-.53-1-.85-.91-1.56-.15-2.86,3.08-5.77,6.1-8.71,9.1a43.66,43.66,0,0,1-8.06,6.39,2.15,2.15,0,0,1-1.88.5c-3-1-6.14-1-9.25-1.3a19.42,19.42,0,0,1-5.23-1.09c-.64-.24-1-.2-1.33.51a62.41,62.41,0,0,0-4.12,10.88,3,3,0,0,1-1,1.71,5.47,5.47,0,0,1-5.24,0,2.43,2.43,0,0,1-.78-2.17c.25-2.31-.11-4.63.24-6.93.14-.9-.47-.66-.92-.55a42,42,0,0,0-6.58,2.55c-.52.23-1,.61-1.63.33a4.79,4.79,0,0,1-1.28-1,7,7,0,0,1-1.91-3.68,1.63,1.63,0,0,1,.31-1,2.83,2.83,0,0,1,1.74-1.52,26.89,26.89,0,0,0,5.26-2.55,5.87,5.87,0,0,0,2.9-3.81,1.55,1.55,0,0,1,.09-1.14,9.15,9.15,0,0,1,1.91-3.6A1.7,1.7,0,0,1,1261.69,528.56Z"/><path class="cls-8" d="M1317.26,590.23a4.68,4.68,0,0,1,2.63-4.61,25.45,25.45,0,0,1,8-2.67,75.6,75.6,0,0,1,16.79-1.34c1.16,0,1.35-.24.89-1.31a46,46,0,0,0-4.51-7.59,59.46,59.46,0,0,1-5.57-10.06,2.74,2.74,0,0,1,0-2.21,22,22,0,0,1,1.28-2.94c2.35-4,4.89-8,7-12.13.61-.55.74-1.38,1.19-2s.63-.28.7.26a82,82,0,0,1-5,10.09c-.88,1.61-1.86,3.16-2.83,4.71a5,5,0,0,0-.17,5.33c1.62,3.19,3.54,6.21,5.45,9.23,1.62,2.56,3.42,5,4.48,7.92.67,1.8.46,2.14-1.43,2.49a22.28,22.28,0,0,1-4.54.19,63,63,0,0,0-14,1.29,24.29,24.29,0,0,0-6.19,2.14,4.53,4.53,0,0,0-2.42,2.37C1318.52,589.79,1318.13,590.51,1317.26,590.23Z"/><path class="cls-9" d="M1317.26,590.23c.67-.09.91-.91,1.61-.94,1.62-.39,2.8.68,4,1.36a6.52,6.52,0,0,1,3.44,7.28c-.25.84-.63,1.49-1.67,1.32a5.5,5.5,0,0,0-2.32,0,2.59,2.59,0,0,1-1.65-.16,35.06,35.06,0,0,0-10.54,2.8c-.69.27-1.37.56-2.28.94a17.74,17.74,0,0,1,3.43-6.5,38.52,38.52,0,0,1,4.87-4.94A14.82,14.82,0,0,0,1317.26,590.23Z"/><path class="cls-10" d="M1426.17,599.52a2.76,2.76,0,0,0-.49-1.32,4.61,4.61,0,0,1-.87-1.94,28.26,28.26,0,0,1-.5-3.3,2.63,2.63,0,0,1,1.71-3.23,10.09,10.09,0,0,1,8.92,0,5,5,0,0,1,3,2.68c.72,1.87,0,3.52-.77,5.17a5.59,5.59,0,0,1-1.1,1.66,26.66,26.66,0,0,1-5.22,6.51c-.63.55-.91.57-1.39-.18C1428.23,603.64,1427.24,601.56,1426.17,599.52Z"/><path class="cls-10" d="M1456.85,593.12a19.41,19.41,0,0,1,.93,6.19c0,.31.12.65-.23.84s-.57,0-.79-.28a13.64,13.64,0,0,0-4.88-3c-1,.12-1.85-.59-2.82-.75a19.38,19.38,0,0,1-6.17-2.77,2,2,0,0,1-.88-2.61,6.66,6.66,0,0,1,4.85-4.3c4.57-1.24,7.84,1.12,9.5,4.79C1456.55,591.87,1457,592.42,1456.85,593.12Z"/><path class="cls-11" d="M1421.32,576.2c6.34-1.23,12.63-2.82,19.16-2.61,5.19.16,9.92,1.58,13.83,5.17a3.32,3.32,0,0,1,.32.42c-.54.53-1.25.31-1.88.43a2.39,2.39,0,0,1-1.22-.55,20.32,20.32,0,0,0-11.94-3.76,69,69,0,0,0-14,1.47,23.81,23.81,0,0,1-5.19.39,2.33,2.33,0,0,1-1.54-.34c-.1-.5.28-.4.56-.44C1420.07,576.29,1420.73,576.57,1421.32,576.2Z"/><path class="cls-9" d="M1452.73,579.44c.59-.42,1.28-.08,1.9-.26a22.33,22.33,0,0,1,8.83,2.41,10.28,10.28,0,0,1,5.31,7.17c.19,1,0,1.33-1,.87a20.91,20.91,0,0,0-6.08-1.49,6,6,0,0,0-3.52.49c-.78.69-1.09.16-1.34-.51a13.09,13.09,0,0,0-3.28-7.31A2.55,2.55,0,0,1,1452.73,579.44Z"/><path class="cls-9" d="M1365.32,600.64l.21,1.84a69.59,69.59,0,0,1-.89,9c-2.39-2.34-4.3-5-7.3-6.3-1.18-.28-2.59-.12-3-1.68a6.87,6.87,0,0,1,.5-4.12,6.64,6.64,0,0,1,4.66-3.64c3.2-.19,5,.91,5.81,3.59A1.49,1.49,0,0,1,1365.32,600.64Z"/><path class="cls-10" d="M1340.11,606.22c-.55.58-1.14,1.13-1.63,1.75a22.39,22.39,0,0,0-1.29,2c-1-1.29-1.29-2.91-2.16-4.22-.55-.38-.65-1-.91-1.57s-.32-1.24-.54-1.84a11.34,11.34,0,0,1-.3-4.26,2.23,2.23,0,0,1,2.09-2.38,14.69,14.69,0,0,1,5.87-.09c4.09.77,5.09,3.34,2.73,6.79a27.07,27.07,0,0,1-2.64,2.92A3.72,3.72,0,0,1,1340.11,606.22Z"/><path class="cls-12" d="M1449.19,595.87a8.6,8.6,0,0,1,2.69,1c-3.06,1.46-6.37,1.83-9.68,2.17a43.08,43.08,0,0,1-6.12.2,3.79,3.79,0,0,1,.79-1.56c1.29-.69,2.71-.31,4.06-.51,2.24-.33,4.48-.66,6.68-1.17C1448.14,595.9,1448.67,596,1449.19,595.87Z"/><path class="cls-13" d="M1334.42,604.13a4.31,4.31,0,0,1,.61,1.62,24,24,0,0,1-14.33-6.67,10.07,10.07,0,0,1,4.09-.09,1,1,0,0,1-1.22.27,25.89,25.89,0,0,0,5.34,2.76,40.9,40.9,0,0,0,4.48,1.56A2.16,2.16,0,0,1,1334.42,604.13Z"/><path class="cls-14" d="M1340.11,606.22a2.77,2.77,0,0,1,1-1c2.88-.19,5.77-.34,8.63-.69,1.62-.2,3.3-.15,4.81-.95.17.72.82.79,1.37,1a3.94,3.94,0,0,1,1.41.65,50.92,50.92,0,0,1-10.57,1.22A32.26,32.26,0,0,1,1340.11,606.22Z"/><path class="cls-15" d="M1248.32,541.53l0,1.2c-.83,1.12-2.15,1.71-3,2.81-.2.27-.66.45-.47.87s.55.19.84.27a7.19,7.19,0,0,0,4.55-.47,3.12,3.12,0,0,1,1,1,8.55,8.55,0,0,1-6.21.82c-1-.17-2-.24-3.12-.39C1243.58,545.09,1245.42,542.77,1248.32,541.53Z"/><path class="cls-16" d="M1496.48,497.89c-.09-.95-.17-1.9-.26-2.84,3,.53,5.32,2.28,7.89,4.24-3.09.78-5.51,3-8.74,2.13l.52-1.08c1.35-.41,2.8-.35,4.11-1,.82-.42.82-.7.08-1.14-.35-.21-.71-.38-1-.59C1498.09,497,1497.19,496.63,1496.48,497.89Z"/><path class="cls-17" d="M1258.58,532.55l-.36,1.1a4.09,4.09,0,0,1-2.45-2.48,21.74,21.74,0,0,0-2.4-5c3.21,0,6.12,0,8.32,2.4l-1.25.51a11.88,11.88,0,0,0-3.08-1.23c-1.13-.19-1.3,0-.94,1.08A8.8,8.8,0,0,0,1258.58,532.55Z"/><path class="cls-18" d="M1485.07,490.23a1.84,1.84,0,0,1-.68-.9,11.48,11.48,0,0,0,1-4.36c0-.73-.21-.84-.86-.58a10,10,0,0,0-2.9,2l-1.3-.34c1.52-2.76,4.26-3.35,7.2-4.18-.7,2-.63,3.89-1,5.7A4.19,4.19,0,0,1,1485.07,490.23Z"/><path class="cls-19" d="M1260.87,554a11.32,11.32,0,0,0,5.24,0c.41,2.64-.83,4.71-2.36,6.67-.27.34-.52.31-.66-.12C1262.37,558.36,1261.14,556.35,1260.87,554Z"/><path class="cls-18" d="M1487,511.06l1-.56a31.62,31.62,0,0,1-.5,7c-2.41-1.56-4.21-3.34-4.69-6.14l2.52,0c-.93,1.18-.79,1.75.87,3.22a3.46,3.46,0,0,0,.44-1.88C1486.72,512.15,1486.56,511.54,1487,511.06Z"/><path class="cls-20" d="M1345.42,543.52c-.09-.55-.21-.29-.39,0-.44.62-.43,1.55-1.29,1.88a45.44,45.44,0,0,0,2.86-6.74c.12-.41.53-.91-.11-1.28.83-.76.69.4,1.07.53.45.84-.17,1.52-.35,2.26a17.73,17.73,0,0,1-1,2.61C1346.06,543.09,1346,543.57,1345.42,543.52Z"/><path class="cls-21" d="M1457,588c.16.56.4,1,1.1.65a7.19,7.19,0,0,1-1.28,4.49,4.45,4.45,0,0,1-.64-1.6C1456.78,590.41,1456.3,589.05,1457,588Z"/><path class="cls-22" d="M1421.32,576.2c-.68.73-1.72-.09-2.42.57-1.57.65-2.49.17-2.49-1.43,0-.79-.48-1.79.61-2.32l.28.27c0,3.06,0,3.06,3.23,2.9C1420.79,576.18,1421.06,576.2,1421.32,576.2Z"/><path class="cls-23" d="M1331.8,390.88c-.34-.1-.63-.11-.62.38a2.06,2.06,0,0,1-.79-1.45c0-.07.19-.23.26-.21C1331.36,389.73,1331.55,390.34,1331.8,390.88Z"/><path class="cls-23" d="M1332.53,392c-.42-.26-.82-.53-.74-1.12A1.59,1.59,0,0,1,1332.53,392Z"/><path class="cls-24" d="M1390.21,522.06c-8.16,2.85-16.4,5.44-24.63,8.09-8.4,2.7-16.78,5.44-25.2,8.09a56.54,56.54,0,0,1-8.07,2.37A20,20,0,0,1,1317,537c-4.42-3.15-7.31-7.45-10-12-3.52-6-7.23-12-10.81-18q-8.42-14.13-16.74-28.3c-3.07-5.23-6.18-10.44-9-15.8-1.21-2.3-2.75-4.49-3.37-7.1a11.72,11.72,0,0,1,.91-7.42,30,30,0,0,1,5.83-8.25c4.46-4.94,9.85-8.74,15.2-12.6a163.41,163.41,0,0,1,48-23A177.93,177.93,0,0,1,1356,400c4.23-.79,8.51-1.31,12.78-1.81a195.17,195.17,0,0,1,27.77-1c4.43.12,8.87.46,13.29,1a116.26,116.26,0,0,1,15,2.48c6.18,1.57,11.21,4.78,14,10.8a17.17,17.17,0,0,1,1.36,10,9.46,9.46,0,0,0-.06,1.07c-.19,5.21-.28,10.42-.59,15.63s-.57,10.12-.78,15.19c-.12,2.89-.35,5.77-.53,8.66-.86,5.71-2.68,11.16-4.33,16.66a99.09,99.09,0,0,1-5.9,15.23c-4.18,8.52-10.07,15.42-18.65,19.84A159.44,159.44,0,0,1,1390.21,522.06Z"/><path class="cls-25" d="M1417,573a4.47,4.47,0,0,0-.18,3.11c.22.93,1.32.55,2.06.64,3.91.31,7.68-.66,11.51-1.18,5.79-.78,11.59-1.41,17.23.9a11.71,11.71,0,0,1,4.25,2.43c.32.44.12.87-.05,1.27a20.56,20.56,0,0,1-3.32,5.59c-.49.56-1.15.62-1.72.93a7.53,7.53,0,0,0-4.54,4,10.62,10.62,0,0,1-3.89,2.18.46.46,0,0,1-.64-.3,5.44,5.44,0,0,0-3.33-2.72,10.11,10.11,0,0,0-7.93,0c-1.7.76-2,1.37-1.76,3.22.13,1.06.27,2.11.41,3.17-.06.78-.73.67-1.2.76a38.13,38.13,0,0,1-8.13.2c-4-.14-8.09-.44-11.91-2a5.46,5.46,0,0,1-3.28-6.84,21.55,21.55,0,0,1,6.92-10,38,38,0,0,1,3.31-2.48,3.74,3.74,0,0,0,1.2-1.88,47.14,47.14,0,0,0,3.14-12.92,15.62,15.62,0,0,1,2.22-6.81,6,6,0,0,0,.46-5.6c-1.25-3.82-3.14-7.38-4.59-11.12-1.78-4.61-3.74-9.15-5.62-13.72a.67.67,0,0,1,.21-1,23.21,23.21,0,0,1,3.74-1.59.64.64,0,0,1,.6.2,167,167,0,0,0,9.66,26.27,10.76,10.76,0,0,1,.18,8c-1.63,5.13-3.65,10.14-4.81,15.42A9.61,9.61,0,0,0,1417,573Z"/><path class="cls-25" d="M1345.42,543.52l.54-.81c1.62-1.17,3.56-1.49,5.43-2,.23-.07.54,0,.48.42-1,2.37-2.5,4.5-3.73,6.77s-2.63,4.54-3.88,6.84a8.86,8.86,0,0,0-.06,8.68c1.59,3.2,3.61,6.13,5.5,9.15a38.7,38.7,0,0,1,4,7.54,9.8,9.8,0,0,0,6.78,6.45,10.7,10.7,0,0,1,5.1,3.92c.29.45.06.85-.16,1.23a25.39,25.39,0,0,1-2.54,3.39c-.94,1.12-2.28.73-3.45,1a7.13,7.13,0,0,0-4.25,3.27,2.87,2.87,0,0,1-1.8,1.62,38.73,38.73,0,0,1-8.27,2.09c-.54.07-1.27.41-1.52-.51a20.45,20.45,0,0,0,1.1-2.13,2.73,2.73,0,0,0-1.57-3.85c-2.75-1.15-5.59-.89-8.42-.32-.73.15-.79.8-.9,1.35a13.52,13.52,0,0,0,.16,4.91c.24.86-.42.7-.85.7a17,17,0,0,1-4.27-.93,16.55,16.55,0,0,1-5.82-3.16l1.82-.1a1,1,0,0,0,1.15-.84,5.43,5.43,0,0,0-1.27-5.55,11.15,11.15,0,0,0-5.8-3.3,2.49,2.49,0,0,1,1.43-2.11c3.61-2.13,7.62-2.86,11.69-3.46a92.65,92.65,0,0,1,12.79-.54,13.15,13.15,0,0,0,2.25-.26c1-.2.64-.92.44-1.47a28.23,28.23,0,0,0-2.67-5.22c-2.52-4-5.14-7.92-7.35-12.1a5.58,5.58,0,0,1,.2-6.16A111.69,111.69,0,0,0,1345.42,543.52Z"/><path class="cls-26" d="M1390.21,522.06a73.22,73.22,0,0,1,7.44-3.22c6.23-2.75,12.46-5.47,18-9.6a38.48,38.48,0,0,0,9.8-11.49c4.34-7.24,7-15.16,9.31-23.21,1.19-4.17,2.32-8.37,3.47-12.55-.25,3.45-.52,6.9-.76,10.35-.2,2.79-.4,5.58-.56,8.38-.21,3.8-.62,7.59-1,11.39a38.71,38.71,0,0,1-1.23,7.33c-1.57,5.12-5,8.65-9.6,11.11-4.12,2.19-8.66,3.22-13.06,4.65q-10.47,3.4-21,6.73A5.08,5.08,0,0,1,1390.21,522.06Z"/><path class="cls-25" d="M1260.81,542.71c-2.43.29-4.51,1.51-6.64,2.63-.72.38-1.45,1.27-2.27.68a5.14,5.14,0,0,1-2.44-3.37c-.13-1.15.91-1.64,1.82-2a23.13,23.13,0,0,0,4.13-1.86,9.48,9.48,0,0,0,4.2-6.39c.58-3.34,3.57-3.6,6-2.27s3.12,3.51,3.46,5.88c.12.89.46,1.19,1.12,1.34a25.63,25.63,0,0,0,5.92.85c2.67,0,5.34,0,8,.24a8.84,8.84,0,0,0,7-2.82c3-2.82,6.13-5.42,9.27-8,1.27-1,2.36-2.32,3.56-3.45.28-.26.56-1.05,1.11-.29.37.52,1.1,1,.3,1.82-1,1-2,2.06-2.94,3.09a107.58,107.58,0,0,1-9.69,9.41c-1.31,1.07-2.68,2.07-4,3.11a2.43,2.43,0,0,1-2.24.42,27,27,0,0,0-7-.82,20.09,20.09,0,0,1-7.21-1.13c-1.12-.42-1.69-.1-2.19,1a50.08,50.08,0,0,0-4,10.46,2.82,2.82,0,0,1-3.52,2,1.31,1.31,0,0,1-1-1.75c.63-2.55-.11-5.17.49-7.71C1262.21,542.76,1261.56,542.61,1260.81,542.71Z"/><path class="cls-25" d="M1475.23,493.59c0-3.42,1.19-5.12,4.29-6a2.78,2.78,0,0,1,3.65,1.58c1.61,3.59,4.53,5.21,8.31,5.52a7.73,7.73,0,0,1,1.58.18c1,.31,2.25.39,2.51,1.66.3,1.54-.46,2.87-1.28,4.11-.24.37-.63.15-1,0a35.73,35.73,0,0,0-5.69-1.37,9.44,9.44,0,0,0-3.18.26c-.64.12-.75.59-.45,1.12,1.33,2.35,1.22,5.2,2.64,7.54.42.69.06,1.37-.7,1.77a2.91,2.91,0,0,1-3.82-1,70.58,70.58,0,0,0-5.89-8.25c-.35-.45-.8-.84-1.17-1.28a1,1,0,0,0-1.53-.15c-2.52,1.88-5.49,2.72-8.4,3.71a20.7,20.7,0,0,0-5.37,2.34,2.16,2.16,0,0,1-2,.08,62.94,62.94,0,0,1-12.29-5.85c-2.56-1.53-5.08-3.12-7.69-4.57-.88-.49-.88-1.11-.84-1.87s.26-.84.91-.44c4.94,3,10.43,4.86,15.47,7.65a10.22,10.22,0,0,0,9.34.69,68.54,68.54,0,0,1,6.77-2,37.53,37.53,0,0,0,4.21-1.72,2.29,2.29,0,0,0,1.65-2.78A5.9,5.9,0,0,1,1475.23,493.59Z"/><path class="cls-25" d="M1272.87,469.8a15.34,15.34,0,0,0-5.36-.05,7.64,7.64,0,0,0-4.32,2.17,3.85,3.85,0,0,0-1,3.94c.49,1.47,1.94,1.88,3.27,1.91,3.49.06,6.92-.37,10-2.27.38-.24.68-.47,1,0s.39.74,0,1.19a8.68,8.68,0,0,1-5.05,2.77c-3.48.68-6.92.95-10.35-.27-2.09-.75-4.32-3.13-4.14-5.77a4.82,4.82,0,0,1,2.72-3.87,20.86,20.86,0,0,1,9-2.76,1.77,1.77,0,0,1,.4,0c.78,0,1.69-.71,2.29,0A6.65,6.65,0,0,1,1272.87,469.8Z"/><path class="cls-25" d="M1448.88,423.37c3.24,0,4.9,1,5.69,3.33s-.07,4.87-2.41,6.69a20.39,20.39,0,0,1-9.84,4.17c-1.41.2-2-.25-1.67-1.34.22-.77.94-.69,1.53-.77a18.94,18.94,0,0,0,6.69-2.14c1.82-1,2.41-2.7,1.36-3.92a4.44,4.44,0,0,0-4.43-1.61,11.27,11.27,0,0,0-3.88,1.38c-.85.53-1.05.19-1-.68a3.07,3.07,0,0,1,1.47-2.79A13.43,13.43,0,0,1,1448.88,423.37Z"/><path class="cls-27" d="M1266.82,477a7.89,7.89,0,0,1-2.77-.26,2.08,2.08,0,0,1-1.29-2.66,5,5,0,0,1,3.57-3.48,15.77,15.77,0,0,1,7.26-.3.89.89,0,0,1,.73.5c.17.32.33.64.5.95,1.47,2.68,1.49,2.71-1.38,3.94A14.61,14.61,0,0,1,1266.82,477Z"/><path class="cls-27" d="M1441.37,434.91c-1.21.2-1.42-.43-1.22-1.41a3,3,0,0,0,.19-1c-.39-1.85.64-2.68,2.17-3.21,2-.69,4-1.41,6-.45,1.85.87,2,2.54.32,3.73C1446.62,434.17,1444,434.58,1441.37,434.91Z"/><path class="cls-26" d="M1351.87,541.11c-.44-.47-.85,0-1.22.09-1.57.46-3.13,1-4.69,1.51.53-1.61,1.07-3.22,1.6-4.83,0-.47.07-.88.61-1,2.16-.66,4.32-1.34,6.72-2.09A32.56,32.56,0,0,1,1351.87,541.11Z"/><path class="cls-26" d="M1359.38,596.05c.86-.53,2,.05,2.84-.85a15.18,15.18,0,0,0,3.31-4.74c1.68,2.25,2.9,4.66,2.12,7.57a3.14,3.14,0,0,1-2.33,2.61c-.22-.62-.38-1.26-.64-1.87C1363.66,596.43,1361.74,595.79,1359.38,596.05Z"/><path class="cls-26" d="M1412.19,521.53c-1.56.26-2.84,1.22-4.32,1.69-.28.1-.22.46-.23.72-.79-1.54-1.54-3.09-2.37-4.61-.28-.51-.2-.66.32-.82,1.53-.46,3.05-1,4.56-1.45.73-.25,1,.15,1.12.73C1411.58,519,1411.88,520.28,1412.19,521.53Z"/><path class="cls-28" d="M1403.88,595.28c2.19.25,4.29,1,6.49,1.24a64.56,64.56,0,0,0,14.44,0c.11,0,.21-.16.31-.25a5.6,5.6,0,0,1,.56,1.91,5.39,5.39,0,0,0-2.11-.24c-5.86-.14-11.72-.29-17.47-1.61A3.54,3.54,0,0,1,1403.88,595.28Z"/><path class="cls-29" d="M1250.23,546.21a3.79,3.79,0,0,1-3.3,1,7.14,7.14,0,0,1-.77-.18c-.68-.09-1.68.25-1.92-.51s.78-1.07,1.23-1.59a8.56,8.56,0,0,1,2.83-2.19A10.81,10.81,0,0,0,1250.23,546.21Z"/><path class="cls-29" d="M1258.58,532.55a2,2,0,0,1-1.45-1.24c-.39-.79-.73-1.6-1.08-2.41-.6-1.43-.45-1.7,1-1.44,1.23.22,2.56.39,3.35,1.61A12.17,12.17,0,0,0,1258.58,532.55Z"/><path class="cls-30" d="M1481.63,486.43c.6-1.72,2.23-2,3.62-2.68.22-.1.64-.05.57.32-.3,1.8.12,3.8-1.43,5.26A18.48,18.48,0,0,0,1481.63,486.43Z"/><path class="cls-29" d="M1496.48,497.89c.44-1.71.45-1.72,2.18-.84.79.4,1.56.85,2.31,1.32.54.34.5.7-.11.94-1.6.63-3.15,1.47-5,1C1496.08,499.52,1496.28,498.71,1496.48,497.89Z"/><path class="cls-31" d="M1487,511.06a18.63,18.63,0,0,1-.23,3.57c-.19.9-.49.7-.9.25a11.54,11.54,0,0,1-1.15-1.46c-.82-1.29-.7-1.61.64-2Z"/><path class="cls-32" d="M1309.9,600.68a22,22,0,0,1,5.85-7.41,16.07,16.07,0,0,0,2-1.91,1.86,1.86,0,0,1,2.57-.45,11,11,0,0,1,3.65,2.64,4.38,4.38,0,0,1,1,3.61c0,.39-.15.62-.66.62a33.41,33.41,0,0,0-9.32,1.26C1313.44,599.53,1311.85,600.06,1309.9,600.68Z"/><path class="cls-32" d="M1430.41,590.17a10.08,10.08,0,0,1,4.83,1.35,2.62,2.62,0,0,1,1.37,3.37,20.61,20.61,0,0,1-5.54,9.15c-.57.56-1,.54-1.39-.23a27.21,27.21,0,0,1-4-11.36c-.07-.85.52-1.21,1.11-1.49A7.91,7.91,0,0,1,1430.41,590.17Z"/><path class="cls-26" d="M1437.73,592.61c1,.24,1.68-.6,2.51-.91a22,22,0,0,0,2-1c-.57,1.39.33,2.07,1.31,2.74a25.11,25.11,0,0,0,5.62,2.4,30.83,30.83,0,0,1-7.1,1.54,24,24,0,0,1-5.22.29C1437.45,596.05,1438.27,594.44,1437.73,592.61Z"/><path class="cls-32" d="M1449.07,587.5c3.07.09,4.76,1.85,5.92,4.18a17.78,17.78,0,0,1,1.67,5.45c0,.27.1.55-.17.72a.52.52,0,0,1-.61-.09c-2.91-2.1-6.37-2.9-9.65-4.14a11.25,11.25,0,0,1-1.44-.7c-1.74-1-1.85-1.79-.52-3.31A6.75,6.75,0,0,1,1449.07,587.5Z"/><path class="cls-26" d="M1446.8,586.71c2.75-1.91,4.06-4.75,5.09-7.79l.84.52c2.31,2.41,4.14,5.06,4.3,8.54-.25,1.19.47,2.6-.82,3.54-.45-.71-.86-1.45-1.36-2.13a6.76,6.76,0,0,0-6.86-2.81C1447.59,586.64,1447.2,586.67,1446.8,586.71Z"/><path class="cls-32" d="M1456.41,580.48c4.46.84,8.61,2,10.7,6.61.14.31.48.65.22,1s-.66,0-1-.09c-2.41-.6-4.8-1.32-7.34-.77a.71.71,0,0,1-1-.6,17.27,17.27,0,0,0-2.31-5.37C1455,580.16,1456.17,580.73,1456.41,580.48Z"/><path class="cls-32" d="M1363.73,608.84c-.9-.86-1.74-1.71-2.64-2.49a14.21,14.21,0,0,0-4.66-2.8,1.2,1.2,0,0,1-.82-1.11c-.37-3,2.92-6,5.88-5.22a3.29,3.29,0,0,1,2.23,2.14C1364.8,602.16,1364.53,605.49,1363.73,608.84Z"/><path class="cls-26" d="M1343.54,602.52c1,.7,2.08,0,3.08-.13a32.32,32.32,0,0,0,6.29-1.69,5.09,5.09,0,0,0,2.22-1.38,10,10,0,0,0-.57,4.26c0,.53-.19.78-.78.84-2.16.22-4.3.6-6.47.75a27.92,27.92,0,0,1-4.92.3c-.43,0-.91.14-1.27-.25Z"/><path class="cls-32" d="M1337.29,607.7c-1.54-3.05-2.78-5.84-2.61-9,0-.92.27-1.44,1.34-1.59a13.65,13.65,0,0,1,6.32.35,1.93,1.93,0,0,1,1.26,2.84,7.43,7.43,0,0,1-1.1,1.67C1340.93,603.92,1338.86,605.44,1337.29,607.7Z"/><path class="cls-33" d="M1328.79,602.25c1.54.1,3,.59,4.58.6.35,0,.49-.05.54-.37a4.35,4.35,0,0,1,.51,1.65A20.51,20.51,0,0,1,1328.79,602.25Z"/><path class="cls-34" d="M1262.15,554.62c1.07-.1,2.43-.54,2.86.17.54.89-.22,2.1-.69,3.11a6.31,6.31,0,0,1-.62.84A17.64,17.64,0,0,1,1262.15,554.62Z"/><path class="cls-8" d="M1296,494.31c2.26-5,5.54-9.16,9-13.21a12.61,12.61,0,0,1-2,3.62c-.85,1.39-.89,1.36.62,1.79,2.77.78,4.72,2.73,6.39,4.87,4,5.1,7.57,10.47,11.27,15.76a15.51,15.51,0,0,0,8.46,6.39,17.34,17.34,0,0,0,6.64.43c5-.51,10-1.18,14.9-2.06,6.25-1.11,12.52-2.14,18.77-3.28,9.14-1.66,18.24-3.52,27.23-5.89a81.85,81.85,0,0,0,12.61-4.39,22.43,22.43,0,0,0,10.69-10.09,120.47,120.47,0,0,0,9-22.43,6.33,6.33,0,0,1,.17-.78c.83-2.24,0-3.78-2-4.76a1.66,1.66,0,0,1-.51-.44c-.4-.52-1.42-1-.85-1.66s1.25.14,1.74.5a22.08,22.08,0,0,1,5.53,5.75,9.52,9.52,0,0,1,1.17,3.26c.07.32.2.8-.27.91s-.67-.41-.7-.77a7,7,0,0,0-1.62-3.61c-.15-.21-.26-.53-.56-.49s-.24.41-.3.65a117.57,117.57,0,0,1-6,17.42,48.48,48.48,0,0,1-6.59,11.88c-.06.07-.09.17-.15.22-2.45,1.68-2.21,4.34-2.53,6.82-.38,2.94-.5,6-2,8.66-.56,1-.89,1.1-1.57.11-1.11-1.62-2.12-3.3-3.2-4.93-2.2-3.31-2.37-3.39-6.09-2.11a164.57,164.57,0,0,1-23.46,5.66c-7.64,1.42-15.27,2.88-22.93,4.22-6.29,1.1-12.6,2.21-19,2.77-1.07.09-1.77.37-1.91,1.66-.4,3.79-1.94,7.3-2.83,11-.12.51-.35,1-1.06,1s-.84-.51-.94-1c-.62-2.9-2.24-5.32-3.66-7.84a14.74,14.74,0,0,1-2.32-6.63,1.76,1.76,0,0,0-1-1.38,20.06,20.06,0,0,1-4.64-5.13c-3.11-4.35-6.07-8.8-9.11-13.2a22.37,22.37,0,0,0-5.22-5.5,7,7,0,0,0-.67-.44c-2.2-1.19-2.7-1.07-4,1-1.1,1.67-2.18,3.36-3.28,5A1.1,1.1,0,0,1,1296,494.31Z"/><path class="cls-35" d="M1388.6,478.06a32.26,32.26,0,1,1,32.33-32.65A32.39,32.39,0,0,1,1388.6,478.06Z"/><path class="cls-36" d="M1333.85,442.64c12.06-.43,23.24,10,23.12,23.24a23.13,23.13,0,0,1-46.26-.38C1310.8,453.27,1321.42,442.2,1333.85,442.64Z"/><path class="cls-37" d="M1330.93,523.94c-1.55-2.79-3.59-5.32-4.7-8.36-.27-.73-.43-1.5-.74-2.63a14.18,14.18,0,0,0,6.79,2.43c1.17,0,1.5.64,1.46,1.7a14.76,14.76,0,0,1-1.39,5.82C1332.09,523.45,1331.86,524.24,1330.93,523.94Z"/><path class="cls-38" d="M1411.9,506.79c-1.48-1.94-2.62-4.15-4.88-5.77l5.39-2.32c.92-.25,1.1.45,1.17,1a15.38,15.38,0,0,1-.47,6.33C1413,506.54,1412.84,507.46,1411.9,506.79Z"/><path class="cls-39" d="M1411.9,506.79c.59.26.69-.19.81-.57a19.06,19.06,0,0,0,.52-6.6.9.9,0,0,0-.82-.92l2.48-1.57c.1,3.3-.79,9.05-1.74,11.26A3.09,3.09,0,0,1,1411.9,506.79Z"/><path class="cls-40" d="M1330.93,523.94c1.53-.82,1.54-2.47,2-3.83a19.57,19.57,0,0,0,.42-3,1.36,1.36,0,0,0-1.08-1.74c2.9,0,2.66-.4,2.17,2.48a73,73,0,0,1-2.13,7.83c-.06.2-.15.39-.35.93Z"/><path class="cls-41" d="M1375.65,474.09a28.89,28.89,0,0,1-11.78-9.43c-14.36-18.57-3.27-46.16,20-49.62,10.22-1.53,19.09,1.47,26.57,8.45a28.19,28.19,0,0,1,7.17,10.86c.86,3.69.1,7.28-.75,10.84a37.58,37.58,0,0,1-6.75,14,40.06,40.06,0,0,1-16.13,12.51,41,41,0,0,1-12.54,3.17A10.51,10.51,0,0,1,1375.65,474.09Z"/><path class="cls-42" d="M1375.65,474.09a13.39,13.39,0,0,0,5.26.49,40.73,40.73,0,0,0,27.36-13.67,39,39,0,0,0,7.46-13.29,37.64,37.64,0,0,0,1.84-13.27,27.41,27.41,0,0,1,2.29,12,31.38,31.38,0,0,1-28.19,30.45,32.1,32.1,0,0,1-14.47-1.94A4.51,4.51,0,0,1,1375.65,474.09Z"/><path class="cls-41" d="M1327.4,486.69a19.24,19.24,0,0,1-10.91-7.54c-5.6-7.36-6.39-15.44-2.14-23.55s11.44-12.38,20.86-11.88c8.29.44,14.2,4.77,18.27,11.83a4.81,4.81,0,0,1,.28.75c2.3,5.24,1,10.29-1.18,15.11a26.73,26.73,0,0,1-16.26,14.76A14,14,0,0,1,1327.4,486.69Z"/><path class="cls-42" d="M1327.4,486.69a16.3,16.3,0,0,0,7.25-.42,25.87,25.87,0,0,0,10.5-5.58,27.35,27.35,0,0,0,7.79-11,25.36,25.36,0,0,0,1.6-10.61c-.07-1-.87-1.77-.78-2.8a20.19,20.19,0,0,1,2,11.29,21.76,21.76,0,0,1-17.6,19.7A19.67,19.67,0,0,1,1327.4,486.69Z"/><path class="cls-43" d="M1382.72,452.77a9.12,9.12,0,1,1-18.23,0,9.12,9.12,0,1,1,18.23,0Z"/><path class="cls-43" d="M1351.09,466.24a8.1,8.1,0,1,1-8.1-8.09A8.16,8.16,0,0,1,1351.09,466.24Z"/><path class="cls-32" d="M1381.63,452.83a8.09,8.09,0,0,1-8.08,8.08,8,8,0,0,1-8-8.14c.12-4.63,3.38-8.15,8.19-8.1A8.05,8.05,0,0,1,1381.63,452.83Z"/><path class="cls-32" d="M1343,459.3a7,7,0,0,1,7,6.95,7.07,7.07,0,0,1-7,7,7.18,7.18,0,0,1-7-7.08C1335.78,462.67,1339.61,459,1343,459.3Z"/><path class="cls-44" d="M1376.58,451.8a3.3,3.3,0,0,1-1.29,4.3,3.44,3.44,0,0,1-4.37-.61,3.38,3.38,0,0,1-.33-4.18,2.83,2.83,0,0,1,3.44-1.22A10.45,10.45,0,0,0,1376.58,451.8Z"/><path class="cls-45" d="M1376.58,451.8a2.29,2.29,0,0,1-2.55-1.71c0-1.53.51-2.43,1.66-2.61a2,2,0,0,1,2.38,1.23C1378.58,450,1378.08,451,1376.58,451.8Z"/><path class="cls-44" d="M1346.37,464.88c.84,0,.84.67.9,1.23a3.43,3.43,0,0,1-2.81,3.66,3.37,3.37,0,0,1-3.87-2.66,3.33,3.33,0,0,1,2.88-4A5.46,5.46,0,0,0,1346.37,464.88Z"/><path class="cls-46" d="M1346.37,464.88c-1.74.19-2.2-.1-2.9-1.81a2.25,2.25,0,0,1,2.09-2.36,2,2,0,0,1,2.12,1.49A2.08,2.08,0,0,1,1346.37,464.88Z"/></g><g id="Sad"><path class="cls-47" d="M231.3,604.89h-.83c-.57-.28-1.19-.07-1.77-.14a69.56,69.56,0,0,1-17.88-2.93c-1.19-.34-2.43-.43-3.62-.8a27.17,27.17,0,0,1-6-3.27,56.25,56.25,0,0,1-8.95-9.36,174.57,174.57,0,0,1-14.83-23.58c-2.58-4.73-4.83-9.63-7.4-14.5-1.37,1.62-2.38,3.4-3.58,5.05-.61.83-1,1.87-2.15,2.25a35.18,35.18,0,0,1-4.59.1c-1-.09-2.13.31-3.07-.43-.13-.64.6-.16.67-.5-.85.32-1.8.29-2.68.53-2.64.3-5.23-.25-7.84-.49a56,56,0,0,1-13.9-2.83,21.77,21.77,0,0,1-3.53-1.56,11.54,11.54,0,0,0-1.28-1c-.47-.34-.74-.93-1.36-1.1-2-.55-4.06-1-6.08-1.55-.54-.15-1.23-.11-1.43-.85,1.76-9,3.57-18.07,5.32-27.11q2.88-14.92,5.82-29.83,2.59-13.29,5.23-26.57c1.95-9.94,3.95-19.87,5.82-29.82.24-1.27.47-2.53.68-3.81.43-.66.63-1.47,1.3-2,1.69-.19,3.23.58,4.86.79a11.35,11.35,0,0,1,5.21,2.36c7.76,5.6,15.57,11.13,23.35,16.71a2.89,2.89,0,0,0,1.36.63c4.57.47,9.12,1.15,13.68,1.7a8,8,0,0,0,3.37,0,10,10,0,0,0,7-3.53,19.44,19.44,0,0,0,4.36-9,3.18,3.18,0,0,0-1.1-3,32.83,32.83,0,0,0-4.7-4.27c-4.11-3.2-8.48-6-12.86-8.84-.44-.28-1.27-.5-1-1.1s1.08-.27,1.61-.11c1.85.56,3.7,1.12,5.54,1.7a6.41,6.41,0,0,0,6.47-2.65c.67-1.27.43-2.21-.89-3.21-4.56-3.44-9.07-6.94-13.64-10.37a58.83,58.83,0,0,0-6.2-4.6,12.9,12.9,0,0,0-6.17-1.81h-2.63a19.11,19.11,0,0,0-9.23,3.28,2.72,2.72,0,0,1-3.27.06c-1.43-.9-3-1.59-4.46-2.44-.47-.28-1-.48-1.17-1.09a1.76,1.76,0,0,1,.53-1.56c1.45-.76,3.06-.59,4.58-.65,5.09-.21,10.16-.59,15.24-.89,1.89.27,3.75-.49,5.64-.18.87.08,1.76.69,2.61-.09,1.64-.51,3.35-.24,5-.47s3.66,0,5.47-.34a2.08,2.08,0,0,1,.5,0c1.82.23,3.61-.52,5.43-.17a9.14,9.14,0,0,0,3.79.05,17.56,17.56,0,0,1,3.4-.11,1.26,1.26,0,0,1,1.15.6c.35.9-.27,1.5-.71,2.11a2.52,2.52,0,0,0-.29,2.7q14.31,35.29,28.6,70.59,6.06,15,12.15,30c.55,1.36,1.13,2.72,1.69,4.08,1,2.54,1.76,5.25,3.74,7.31a2.24,2.24,0,0,0,.87,1.2l8.45,8.46a3.08,3.08,0,0,1,1.19,2c-.16,4.64-.16,9.28-.34,13.91-.1,2.57-.05,5.14-.2,7.71-.29,4.62-.34,9.26-.78,13.87a6.48,6.48,0,0,0,.05,2.06c.37,1.59-.29,3.1-.36,4.57.2-.43,0-1.11.56-1.49.55-1.77.36-3.61.55-5.41a43.31,43.31,0,0,0,.34-6.74c0-.6.28-1.17.25-1.77.05-1.86-.09-3.72.08-5.57a5.92,5.92,0,0,0,.2-2,101.76,101.76,0,0,1,.3-11.32c.06-.57-.22-1.52,1-1.19,1.06.86,1,2.2,1.39,3.34q3.14,10.26,6.26,20.52c-2.9-9.54-5.76-19.09-8.74-28.61a3,3,0,0,1-.28-1.87.4.4,0,0,1,.56-.23,2.83,2.83,0,0,1,.88.66c10.24,9.8,20.17,19.92,30.21,29.93a2.37,2.37,0,0,1,.79,1.11,23.41,23.41,0,0,1-2,6.86c-3.39,8.49-7.91,16.39-12.49,24.29a21.73,21.73,0,0,1-6.55,7.1,61.28,61.28,0,0,1-23.18,9.61c-2.8.57-5.64.61-8.45,1H241c-.44-.28-.92-.07-1.38-.14s-.95-.14-1.39.14h-4.7A3.63,3.63,0,0,0,231.3,604.89Z"/><path class="cls-48" d="M135.87,328.22a7.4,7.4,0,0,0-.58-3.34A23.93,23.93,0,0,1,134.5,310a6.8,6.8,0,0,1,1.2-2.31q8.27-10.71,16.51-21.45a8.61,8.61,0,0,0,1.12-2c7.43-18.78,20.88-30.06,41.09-32.89.51-.07,1.11,0,1.46-.53H202a1.47,1.47,0,0,0,1.38,0h.83a40,40,0,0,1,14.68,4.49,57.79,57.79,0,0,1,13.3,9.57,87.51,87.51,0,0,1,12.44,15.12,4.71,4.71,0,0,0,2.07,1.75,91.54,91.54,0,0,1,22.44,14,53.83,53.83,0,0,1,11.52,13.83,72.27,72.27,0,0,0,8.9,11.61,63.83,63.83,0,0,0,8.16,8,1.81,1.81,0,0,1,.5.66,74.41,74.41,0,0,1,6.12,10,37.64,37.64,0,0,1,3.94,18c-.38,8.67-3.27,16.38-9.71,22.49a29.6,29.6,0,0,1-4.9,3.8,2.08,2.08,0,0,1-1.41.46,20.41,20.41,0,0,1-4.26-4.09c-1.75-2-3.64-3.92-5.47-5.86-3.51-3.71-7-7.45-10.49-11.18-4.47-4.77-9-9.49-13.36-14.36a3.5,3.5,0,0,0-2.88-1.09c-2.86.06-5.69-.29-8.55-.36-4.09-.1-8.17-.5-12.27-.56a5.84,5.84,0,0,1-1.88-.39c-.55-.35-.69-1-1.12-1.43a3.55,3.55,0,0,1-.48-.9c-.55-1.24-1.2-2.44-1.69-3.72-.6-2.08-1.45-4.11-1.24-6.35a9.53,9.53,0,0,0,0-3.8,5,5,0,0,1,.13-2.27,10.33,10.33,0,0,0,.3-1.75c0-.66,0-1.33,0-2,.07-6.9-4-11.81-10.93-13.21-1.36-.27-2.74-.36-4.11-.52a2.56,2.56,0,0,0-1.69.48c-2,1.26-3.71,2.73-3.89,5.34-.06.9-.8,1.14-1.53,1.36-4.61,1.45-9.28,2.7-13.88,4.15a13.39,13.39,0,0,0-2.15.58,3,3,0,0,1-.74.3,16.31,16.31,0,0,0-2.09.5l-.55.16a5.08,5.08,0,0,0-1.59.63c-1.17.14-2.27.6-3.43.74a38.14,38.14,0,0,0-4.77.47c-.9.21-1.86,0-2.75.27a7.88,7.88,0,0,1-1.61.11,10.08,10.08,0,0,0-2.19.26,5.58,5.58,0,0,0-2.54.5c-4.71,2-9.52,3.69-14.21,5.73-1.8.36-3.55-.18-5.31-.41a49,49,0,0,1-9.79-2.19C138.06,329.31,137.16,328.33,135.87,328.22Z"/><path class="cls-49" d="M76.67,512.13c3.54,0,7.09,0,10.64,0,4,0,8,4.91,7,8.75s-1.45,8-2.12,12.07q-2.5,14.89-4.84,29.82a48.34,48.34,0,0,0-.95,6.1c-.59.91-1.64,1.13-2.52,1.55-4.67,2.25-9.27,4.62-14,6.81-4,2.08-8.2,3.86-12.2,6-3.12,1.69-6.41,3-9.55,4.65a4.67,4.67,0,0,1-2.27.48H13.16c-.83,0-1.68,0-2.23-.8A18.32,18.32,0,0,1,10,583Q6.4,560.84,2.81,538.65C2,533.47,1.09,528.29.35,523.08A9,9,0,0,0,0,520.51V518a4.54,4.54,0,0,1,1.33-2,22.42,22.42,0,0,1,6.14-3.89,2.93,2.93,0,0,1,1.2-.25c4.18,0,8.35-.12,12.53.06a2.17,2.17,0,0,1,.5.13,14.8,14.8,0,0,0,2.21.06c17.49,0,35,0,52.49,0Z"/><path class="cls-50" d="M0,472.09a28.48,28.48,0,0,1,4.08-6.69c4.15-4.7,9.47-6,15.52-3.71.56.2,1.1.44,1.61.64.36-.17.21-.4.2-.62-.4-8.5-.2-16.95,2.67-25.1,1.74-4.93,4.36-9.2,9.21-11.78a7.89,7.89,0,0,1,7.14-.34c6,2.47,9.41,7.17,11.27,13.16A36.35,36.35,0,0,1,53.19,449c0,2.36,0,2.35,2.21,1.36a50.37,50.37,0,0,1,12.2-3.86,19.86,19.86,0,0,1,7.41,0c4.78,1,7.73,4.68,8,9.9.37,6.52-1.24,12.69-3.33,18.76a1.86,1.86,0,0,0,.83,2.64c4.41,3,7.53,6.88,8.13,12.39a16.61,16.61,0,0,1-1.81,9.08,35.8,35.8,0,0,1-8.53,11.09c-1.45,1.77-3.4,1.8-5.49,1.79q-24.47-.08-48.95,0a5.19,5.19,0,0,1-4.48-1.88,19.75,19.75,0,0,0-2.15-2.14,24.91,24.91,0,0,1-4.57-4.94A65.58,65.58,0,0,1,1.8,483.72,42.75,42.75,0,0,1,0,475.41Z"/><path class="cls-51" d="M330.9,387.43c-.59.51-.44,1.24-.52,1.88a29.11,29.11,0,0,1-3.05,9.91c-2.56,4.84-5.1,9.65-8.88,13.68a12.6,12.6,0,0,1-3.24,3.54,39.81,39.81,0,0,1-19.32,9.6c-9.88,1.77-18.39-1-25.63-7.85q-1.65-1.57-3.19-3.27c-3.26-3.55-4.23-8-4.84-12.55a7.27,7.27,0,0,1-.17-3,68.53,68.53,0,0,0,0-8.95,25.79,25.79,0,0,1,.42-5.75,88,88,0,0,1,1.48-9c.11-.52.12-1.22.79-1.32s.84.48,1.16.86a33.62,33.62,0,0,0,10.65,8.83,16.87,16.87,0,0,0,14.16.73,3.48,3.48,0,0,1,1.45-.39,22.24,22.24,0,0,0,7.38-5.62,28.34,28.34,0,0,0,7-12.46,37,37,0,0,0,1-14.67c-1.13-8-4.63-14.81-9.36-21.15-.15-.19-.5-.36-.13-.65a68,68,0,0,1,9.71,6.77c7.37,5.91,13.53,12.85,17.69,21.41,2.64,5.42,3.95,11.24,4.93,17.15.11.68-.07,1.46.53,2v1.39a2.79,2.79,0,0,0,0,1.93V383a4.58,4.58,0,0,0,0,2.49Z"/><path class="cls-52" d="M182.61,324.62c1.1-.15,2.11-.83,3.28-.55.29-.61,1.13-.2,1.43-.78l.5-.07a10.59,10.59,0,0,0,2.23-.5l.54-.32a4.07,4.07,0,0,0,2.23-.63c4.67-1.41,9.33-2.84,14-4.2.85-.25,1.25-.51,1.28-1.54.06-2.84,3.71-5.82,6.57-5.59a20.56,20.56,0,0,1,7.08,1.65,12.59,12.59,0,0,1,7.58,12.26c-.25.37,0,.81-.19,1.19a14.12,14.12,0,0,0-.11,2.68,8.32,8.32,0,0,0-.22,2.23,13.42,13.42,0,0,1,0,3.85c0,2.22.76,4.28,1.32,6.39a6.63,6.63,0,0,0,1.67,3.6l.32.67a1.06,1.06,0,0,1,.05,1c-.72.41-1.34,0-2-.28a40.46,40.46,0,0,0-8.9-2.49,17.6,17.6,0,0,0-4.41-.06c-4.68.54-7.55,3.61-7.87,8.34,0,.6,0,1.2,0,1.8v37.19a6.92,6.92,0,0,1-.12,1.93c-.09.29-.13.78-.69.48-.06-13.3,0-26.6,0-39.91a2.16,2.16,0,0,1,0-.43v40.7a2,2,0,0,1-1.36,2.13c-4.43.54-8.89.34-13.33.66a2.74,2.74,0,0,0-1.2.24H192a44.46,44.46,0,0,0-6.32.2c-3.74.33-7.51.4-11.26.66a2.74,2.74,0,0,0-1.2.24c-5,.3-9.92.57-14.87.93a24.39,24.39,0,0,0-5,.48c-.48.52-.87,1.15-1.66,1.28-6.23-.57-12.42-1.53-18.64-2.3a20.39,20.39,0,0,0-5.35-.38c-.49.07-1.07.08-1-.71.25-.28.53-.31.63-.24-.41-.08-1.08.21-1.7,0-1-.06-1.94-.46-2.93-.59-4.48-1.15-8.82-2.58-12.53-5.48a15.59,15.59,0,0,1-2.66-2.6,14.54,14.54,0,0,1-.91-1.52,4.45,4.45,0,0,1-.42-1.14c-.1-.6-.26.26-.39,0-.85-1.14-.68-2.45-.57-3.74a1.28,1.28,0,0,0,.53-1.05c0-4.17,2.26-7.32,5-10.09a43.43,43.43,0,0,1,8.85-6.32c2.7-1.6,5.69-1.7,8.61-2.15,6.08-.94,12.17-1.8,18.26-2.67,1.63-.24,3.27-.44,4.91-.66,2.37-.4,4.78-.51,7.17-.74,2.77-.28,5.56-.49,8.34-.72,1.55-.13,3.1-.23,4.63-.42.13-.43-.24-.58-.46-.76-7.27-6-12.07-13.8-16.21-22.08a1.6,1.6,0,0,1-.25-1.18c.19-.62.74-.77,1.25-1,4.43-1.78,8.87-3.49,13.28-5.32a4.45,4.45,0,0,1,1.62-.19,9.14,9.14,0,0,0,3.12-.39,15.07,15.07,0,0,0,1.79-.16c.75-.16,1.52-.07,2.26-.24C179.46,325,181,324.9,182.61,324.62Z"/><path class="cls-53" d="M126.7,396.6c.06.31.23.55.55.49,3.74-.64,7.31.66,11,.93,4.07.31,8.1,1,12.14,1.52.55.07,1.08.21,1.61.32a.78.78,0,0,1,.95.28c2.21,1.23,4.43,2.43,6.62,3.69.67.39,1-.05,1.47-.33,3-1.88,6.11-3.39,9.71-3.59a8.29,8.29,0,0,0,3,0,15,15,0,0,1,8.54,3.47q8.78,6.7,17.53,13.43c1.67,1.28,1.89,2.93.35,4.39-1.91,1.82-4.12,2.85-6.88,1.88a39.67,39.67,0,0,0-6.43-1.69c1.23.79,2.46,1.59,3.69,2.37A93.71,93.71,0,0,1,203,432.7c5,4.44,4.7,4.23,2.49,10-1.62,4.22-4.41,7.42-9.05,8.54a9.82,9.82,0,0,1-1.09.12,25.16,25.16,0,0,0-3.58,0c-3.92-.49-7.83-1.1-11.76-1.42a10.44,10.44,0,0,1-5.43-2.36c-7.36-5.3-14.8-10.51-22.11-15.87-2.26-1.66-4.91-1.66-7.39-2.42a12.7,12.7,0,0,0-1.76-.32,3.41,3.41,0,0,1-1.9-.07c-2.88-.58-5.74-1.27-8.61-1.91a8.3,8.3,0,0,0-1.22-.15,2.24,2.24,0,0,1-.63-.16,2.13,2.13,0,0,0-1.36-.41c-2.22-.73-4.6-.92-6.7-2-3.46-1.09-6.93-2.15-10.37-3.29a93.68,93.68,0,0,1-12.11-5c-4.5-2.23-7.37-5.5-8.14-10.67-.67-4.58-.94-9.07.81-13.43,2.21-5.52,6.54-8.73,12.07-10.49a8,8,0,0,1,.4,3.07c0,.37.1.49.4.55.39.35.46.89.72,1.31s.58,1,.89,1.48a20.51,20.51,0,0,0,11.12,7,31.65,31.65,0,0,0,3.18.84c1.06.22,2.11.44,3.17.6C125.56,396.37,126.2,396.21,126.7,396.6Z"/><path class="cls-47" d="M122.87,424.19a65.38,65.38,0,0,1,6.75,1.71,3.33,3.33,0,0,1,1.28.52l.39,0a101.7,101.7,0,0,1,10,3.41c.38.14.79.28.9.75a3.39,3.39,0,0,1-.08,2.41c-.8,4.26-1.78,8.5-2.62,12.76s-1.5,8.37-2.3,12.54-1.72,8.33-2.54,12.51c-1.2,6.14-2.34,12.3-3.54,18.45-.75,3.86-1.57,7.71-2.32,11.57-1.09,5.57-2.13,11.14-3.22,16.7-.63,3.24-1.34,6.45-2,9.69-1.2,6.14-2.35,12.3-3.58,18.44-.15.77-.12,1.68-.86,2.26-.51.39-1,.2-1.58.07q-7.86-1.95-15.72-3.94a2.23,2.23,0,0,1-1.22-.57c-1.15-1.94-2.26-3.89-3.45-5.8a2.53,2.53,0,0,1-.34-2.07q8.64-36.9,17.23-73.81Q118.48,443,122.87,424.19Z"/><path class="cls-53" d="M100.65,543.51c4,.72,7.89,1.92,11.85,2.84,2.23.51,4.45,1.06,6.67,1.6l7.83,2.1a.68.68,0,0,1,.08,1.08c-1.23,1.36-1.55,3.13-2.12,4.76-1.4,4.05-2.88,8.07-4.16,12.15a5.78,5.78,0,0,1-3,3.57q-14,7.73-28,15.55c-5.46,3.05-10.91,6.14-16.43,9.1-.46.25-.9.69-1.52.36a40.59,40.59,0,0,1-8.81.49c-1.66-.28-3.34-.39-5-.7a17,17,0,0,1-9.5-5.38,12.09,12.09,0,0,1-1.48-2.46c-.46-.59-1.11-.33-1.67-.33-10.91,0-21.82,0-32.73,0-.57,0-1.48.43-1.58-.73a2.27,2.27,0,0,0,1.65.53H46.19a4.05,4.05,0,0,0,1.84-.47c3.26-1.6,6.53-3.17,9.8-4.75a44.4,44.4,0,0,0,5.59-2.51c2.22-1,4.35-2.14,6.54-3.19,5.23-2.47,10.4-5.06,15.63-7.55.87-.42,1.83-.6,2.67-1.11,2.79-1,5.23-2.69,7.86-4,.58-.29.63-.86.73-1.41l3.63-18.83C100.52,544,100.59,543.73,100.65,543.51Z"/><path class="cls-51" d="M154.7,332.64c4.39,9,9.49,17.49,17.64,23.7-1.06.69-2.3.53-3.43.61-4.94.32-9.86.88-14.79,1.23-.45,0-.9.18-1.33-.1a40.45,40.45,0,0,1-10.37-8.73,28.11,28.11,0,0,1-6.55-21.13c.35,0,.13-1,.67-.5,2,1.76,4.51,2.23,7,2.8a59.26,59.26,0,0,0,10.86,1.58A.4.4,0,0,1,154.7,332.64Z"/><path class="cls-54" d="M21.32,511.93a27.64,27.64,0,0,1-4.25-4.4,21.74,21.74,0,0,1,3.5,3.28,2.68,2.68,0,0,0,2.05.86q26.37,0,52.73,0a2.25,2.25,0,0,0,1.94-.8,1.23,1.23,0,0,1,1-.59l-1.66,1.66a2.5,2.5,0,0,1-1.61.26H22.91A2.27,2.27,0,0,1,21.32,511.93Z"/><path class="cls-55" d="M21.32,511.93H76.67a.31.31,0,0,1,0,.19l-.06.11a2.85,2.85,0,0,1-1.23.1H22.57a3.19,3.19,0,0,1-1.23-.09l-.05-.1A.41.41,0,0,1,21.32,511.93Z"/><path class="cls-56" d="M152.79,358.08l19.55-1.74c0,.48-.25.63-.69.66-1.46.08-2.93.12-4.39.28-3.73.42-7.48.52-11.2,1a41.23,41.23,0,0,1-4.72.09Z"/><path class="cls-57" d="M88.26,568.42c-.79.93-2,1.06-3,1.56-4.47,2.22-9,4.34-13.49,6.49-.58.28-1.17.51-1.76.76-.29.13-.32,0-.27-.25l16.64-8.07Z"/><path class="cls-58" d="M206.93,395.12A5.05,5.05,0,0,0,208,393.5c-.08-.29.1-.43.32-.54.46-.47.25-1,.25-1.58,0-13,0-26.07,0-39.11,0-6,3.69-9.6,9.69-9.68a24.9,24.9,0,0,1,8,1.27c2,.63,3.9,1.37,5.84,2.07.51-.18.57.33.83.53l14.86.84c3.07.17,6.15.35,9.22.47a2.45,2.45,0,0,1,1.75.94q10,10.69,20,21.37l13.38,14.31a15.33,15.33,0,0,1-12.76,1.2c-5.56-1.72-9.74-5.42-13.46-9.72-.36-.42-.7-.85-1.05-1.27,0,0-.09,0-.28-.08a94.63,94.63,0,0,0-2.28,15.7,3.52,3.52,0,0,1,.07,1.25.34.34,0,0,1-.28.2l-.1-.07-.14,0a26.53,26.53,0,0,1,.08,6.78c0,.12,0,.2,0,.18s.06-.07.09-.11a.31.31,0,0,1,.31.17,2.2,2.2,0,0,1-.07,1c.09,8.78,3.9,15.57,10.92,20.75,9.47,7,19.57,7.36,30.17,3.11a41.43,41.43,0,0,0,12.64-8.26c.81-.75,1.59-1.52,2.39-2.28a27.36,27.36,0,0,1,1,8.19c.4,12.77,0,25.53-.65,38.28-.48,9.84-.93,19.7-1.54,29.54-.9,14.39-1.93,28.77-2.9,43.15-.09,1.24-.19,2.48-.29,3.72-.56,7-3.95,12.67-8.83,17.45A10.25,10.25,0,0,1,294.33,556l-30.26-30c-.62-.62-1.27-1.2-1.9-1.8a.68.68,0,0,1-.63-.36c-3.09-3.14-6.23-6.23-9.32-9.35a3.34,3.34,0,0,1-1-1.14c-1.72-1.41-2.4-3.41-3.19-5.37q-21.6-53.39-43.27-106.74a2.6,2.6,0,0,1,.31-3,13.59,13.59,0,0,0,1-1.65.54.54,0,0,1,0-.65c.13-.19.25-.38.37-.58A.4.4,0,0,1,206.93,395.12Z"/><path class="cls-52" d="M71.88,596.62c3.51-1.9,7-3.78,10.53-5.71,4.42-2.44,8.81-4.94,13.22-7.4l19-10.61a23.32,23.32,0,0,1,3.15-1.69,4.26,4.26,0,0,0,2.57-3c1.74-5.18,3.55-10.33,5.32-15.5a3.19,3.19,0,0,1,1-1.62.78.78,0,0,0,.32-1.06c.65.11.73.77,1.1,1.14s.73.72,1.25.85a32.42,32.42,0,0,0,9,3.1A92.81,92.81,0,0,0,154.67,557a2.7,2.7,0,0,1,1.86.07c1,.39,2.09.07,3.11.27-2.06,5.95-4,11.94-6.22,17.84-1,2.83-1.08,5.76-1.51,8.65-.87,5.79-1.91,11.53-5,16.65a16,16,0,0,1-1.46,2,4.75,4.75,0,0,1-3.82,1.84c-18-.05-35.92,0-53.89-.05a27.76,27.76,0,0,1-6-.6C77.43,602.73,73.91,600.71,71.88,596.62Z"/><path class="cls-59" d="M207,600.78c-.47.5-1,.07-1.39,0-15-3.4-27-10.89-34.73-24.57a52.56,52.56,0,0,1-6-17.68c-.06-.41-.17-.81-.26-1.21,1.76-2.53,3.51-5.06,5.36-7.74.28.53.51,1,.71,1.37a246.32,246.32,0,0,0,17.55,31.42,76,76,0,0,0,10.53,12.92,19,19,0,0,0,7.7,5A.61.61,0,0,1,207,600.78Z"/><path class="cls-59" d="M193.37,455c.12-.3-.17-.78.44-.92a3.43,3.43,0,0,1,.39,1.81,90.08,90.08,0,0,1-3.57,31.1,60.77,60.77,0,0,1-6.27,14.55c-3.6,5.79-6.13,12-8.68,18.31A81.61,81.61,0,0,0,170.57,536a17.69,17.69,0,0,0,0,5.24c-.83-.1-.57-.85-.91-1.14a8.16,8.16,0,0,1,.27-4.79c2.37-10,6.47-19.33,10.74-28.61,1-2.27,2.53-4.27,3.72-6.45a76.56,76.56,0,0,0,8.48-26.8,30.53,30.53,0,0,0,.51-5.48,1.39,1.39,0,0,1,.06-1.31,46.1,46.1,0,0,0,0-10.37A1.36,1.36,0,0,1,193.37,455Z"/><path class="cls-59" d="M261.82,523.8l.35.35c.93,4.08,2.35,8,3.54,12,1.88,6.35,3.84,12.67,5.76,19,.12.38.39.76,0,1.23-.54-.23-.53-.76-.67-1.21q-3.54-11.61-7.1-23.21a8,8,0,0,0-.3-.76,2.29,2.29,0,0,1-.83-1.74c.08,1.36-.09,2.7,0,4a56.1,56.1,0,0,0-.15,5.94,50.13,50.13,0,0,0-.13,5.48,3.87,3.87,0,0,1,0,.49,25.91,25.91,0,0,0-.11,2.92,15.54,15.54,0,0,0-.12,2.89c-.06,1-.19,2.1-.15,3.15a18.08,18.08,0,0,0-.14,2.85,7.65,7.65,0,0,0-.13,1.85,8.32,8.32,0,0,0-.16,1.8,6.12,6.12,0,0,0-.12,1.54,7.44,7.44,0,0,0-.15,1.76c-.16.32,0,.74-.3,1a10.51,10.51,0,0,1-.39,1.7c-.14.36.14,1.14-.55,1s-.13-.71-.08-1.07a28.28,28.28,0,0,0,.49-4.32,3,3,0,0,1-.09-1.31,8.18,8.18,0,0,0,.16-1.56,14.3,14.3,0,0,0,.13-2.07,26.44,26.44,0,0,0,.13-3.08,12,12,0,0,0,.14-2.16,20.83,20.83,0,0,0,.12-3.16,27.61,27.61,0,0,0,.15-3.75,52.62,52.62,0,0,0,.12-5.33,44.12,44.12,0,0,0,.15-4.88c.26-2,.06-3.92.13-5.88a46.44,46.44,0,0,0,.14-5.14A.42.42,0,0,1,261.82,523.8Z"/><path class="cls-60" d="M150.77,548.15a25.15,25.15,0,0,0,7.73-1.88c.34-.13.84-.64,1.05-.08s-.49.54-.84.68c-8.14,3.28-16.19,2.68-24.17-.59a29,29,0,0,1-4.32-2.16c-.23-.15-.73-.23-.48-.66s.55-.06.8.09A36,36,0,0,0,143.07,548c.45.07.91.07,1.37.11C146.55,548.14,148.66,548.12,150.77,548.15Z"/><path class="cls-61" d="M260.38,561.28l-.06,1.27a3.42,3.42,0,0,1-.22-2.41c.29-3.38.4-6.77.55-10.15.31-6.84.46-13.68.58-20.53,0-1.78.2-3.57.22-5.36.09-.12.18-.12.27,0,0,1.75,0,3.51,0,5.27-.28,2,.1,3.93-.2,5.89l-.06,4.9c-.32,1.76.09,3.56-.22,5.33,0,1.27-.05,2.53-.07,3.8-.27,1,.09,2.09-.2,3.11l-.06,2.14c-.3,1,.07,2.09-.22,3.11,0,.72,0,1.44-.08,2.15C260.36,560.28,260.6,560.81,260.38,561.28Z"/><path class="cls-62" d="M173.21,397.35a.87.87,0,0,1,.9-.51,37.61,37.61,0,0,0,5.2-.3c3.75-.13,7.49-.36,11.24-.52.48,0,1-.18,1.44.23l-9.05.59a3.61,3.61,0,0,0-1.75.25,3.91,3.91,0,0,1-2.17.06Z"/><path class="cls-62" d="M206.93,395.12l-.25.31c-.79.63-1.78.07-2.62.42-2.08-.17-4.14.55-6.23.19l-5.53.2a.87.87,0,0,1,.9-.5c1.7.16,3.37-.29,5.06-.29a60.08,60.08,0,0,0,8-.52C206.5,394.9,206.72,395.05,206.93,395.12Z"/><path class="cls-63" d="M261.72,524.11h-.27c-3.18-3.22-6.37-6.44-9.53-9.69-.29-.29-.93-.45-.67-1.11l10.57,10.5C261.79,523.9,261.75,524,261.72,524.11Z"/><path class="cls-61" d="M262,545.42v-.3c.3-1.86-.09-3.74.22-5.6l.06-6.3a27.7,27.7,0,0,0,.11-3.53c0-.3-.22-.75.35-.85.21.8.42,1.6.64,2.4-.76.23-.53.86-.59,1.39-.46,4-.21,8.12-.27,12.18,0,.32,0,.65-.28.88A.62.62,0,0,1,262,545.42Z"/><path class="cls-64" d="M261.43,559.16l.06-1.87c.29-.93-.08-1.91.21-2.84l.08-3.23a.19.19,0,0,1,.25-.08c.11.1.15.25.25.36-.58,2.47-.11,5-.51,7.51-.37,2.26-.4,4.57-.83,6.86l-.09-.63c0-.35.06-.69.08-1,.27-.55-.05-1.17.22-1.72l.07-1.6C261.47,560.33,261.17,559.71,261.43,559.16Z"/><path class="cls-65" d="M197.83,396c2.1-.12,4.19-.41,6.3-.33.77,0,1.58-.52,2.25.27l-.29.57c-1.36-1.06-2.89-.49-4.34-.4A9.59,9.59,0,0,1,197.83,396Z"/><path class="cls-66" d="M150.77,548.15a20.36,20.36,0,0,1-6.33,0A16.85,16.85,0,0,1,150.77,548.15Z"/><path class="cls-67" d="M169.92,535.27a19.72,19.72,0,0,0-.27,4.79c0,.09,0,.21-.09.25-.33.25-.23-.09-.23-.2a19.6,19.6,0,0,1,.46-5.75Z"/><path class="cls-68" d="M262.28,551.5l-.27-.28a6.84,6.84,0,0,1,0-2.85l.06-3,.24.27Z"/><path class="cls-69" d="M191.74,451.32a5.19,5.19,0,0,1,3.58,0A8.47,8.47,0,0,1,191.74,451.32Z"/><path class="cls-70" d="M156.53,557.07l-1.86-.07c.89-.49,1.82-.17,2.8-.22C157.17,557.16,156.81,557,156.53,557.07Z"/><path class="cls-71" d="M193.43,466.62l-.06,1.31c-.54-.89-.1-1.83-.35-3.12C193.53,465.63,193.29,466.15,193.43,466.62Z"/><path class="cls-72" d="M193.37,455l.06,1.3c0,.48-.07,1-.11,1.45C193.19,456.77,192.87,455.84,193.37,455Z"/><path class="cls-73" d="M173.74,399.9a4,4,0,0,1-3,0Z"/><path class="cls-74" d="M179,397.15l2.17-.06A2,2,0,0,1,179,397.15Z"/><path class="cls-75" d="M129.35,552a1.23,1.23,0,0,1-1.25-.85A2.23,2.23,0,0,1,129.35,552Z"/><path class="cls-76" d="M231.82,344.29c-.09,0-.23.1-.25.07a5,5,0,0,1-1.42-3.67C230.7,341.89,231.26,343.09,231.82,344.29Z"/><path class="cls-77" d="M228.83,334.3a18.35,18.35,0,0,1,0-3.85A6.25,6.25,0,0,1,228.83,334.3Z"/><path class="cls-78" d="M192.82,321.77a1.79,1.79,0,0,1-2.23.63A6.7,6.7,0,0,1,192.82,321.77Z"/><path class="cls-79" d="M233,346.46l-.83-.53c0-.32,0-.65,0-1A2.26,2.26,0,0,1,233,346.46Z"/><path class="cls-80" d="M21.34,512.25c4.65,0,9.3,0,14,0l41.32,0c-.42.42-1,.24-1.45.24H22.79C22.3,512.48,21.77,512.66,21.34,512.25Z"/><path class="cls-81" d="M69.73,577l.27.25-11.33,5.51c-.26.13-.54.43-.84,0Z"/><path class="cls-82" d="M262.33,399.58l-.08-1.06a20.39,20.39,0,0,1,0-7c0-.44.05-.89.08-1.33a5.84,5.84,0,0,1,.2,3C262.48,395.31,262.84,397.46,262.33,399.58Z"/><path class="cls-83" d="M47.09,588.57a18.54,18.54,0,0,0,7.64,6.5,29.51,29.51,0,0,0,7.72,1.81,2.9,2.9,0,0,1,.62.23c-4.68-.13-9.24-.67-13.1-3.72A7.24,7.24,0,0,1,47.09,588.57Z"/><path d="M181.31,335.12c.77.23,1.57.45,2.35.72.56.2.25.58.12.9a9.91,9.91,0,0,1-3.33,4,29,29,0,0,1-10,4.48c-.66.18-.74,0-.88-.57-.57-2.39-.59-2.39,1.67-3.09a26.42,26.42,0,0,0,5.21-2.17,9.57,9.57,0,0,0,4.25-3.81C180.93,335.11,181,335.13,181.31,335.12Z"/><path class="cls-84" d="M188,344.79l-.6.79c-1.76,2.18-3.54,4.35-5.27,6.55-.41.52-.66.68-1.27.2-1.92-1.52-2-1.49-.42-3.38s2.92-3.55,4.3-5.38c.56-.74,1-.79,1.59-.15S187.44,344.33,188,344.79Z"/><path class="cls-85" d="M222.71,326.27a8.45,8.45,0,0,0,2.93-.71c.22-.07.5-.18.62.06s-.18.47-.42.56c-3.51,1.31-7.4,1.56-10.76-1.37a14,14,0,0,1-3.87-6.11c-.09-.23-.13-.44.28-.74,1.67,3.81,3.46,7.57,8.19,8.31A23.57,23.57,0,0,1,222.71,326.27Z"/><path class="cls-86" d="M208.33,393l-.32.54V351.83h.32Z"/><path class="cls-87" d="M222.71,326.27a5.87,5.87,0,0,1-3,0A3.76,3.76,0,0,1,222.71,326.27Z"/><path class="cls-88" d="M262,398.47s0,.1,0,.13a1.14,1.14,0,0,1-.16.15,1.54,1.54,0,0,1-.1-.35v-7.68c.44.25.2.61.29.89A39.29,39.29,0,0,1,262,398.47Z"/><path class="cls-89" d="M262,398.47v-6.86l.23-.06v7Z"/><path class="cls-90" d="M206.38,396c-.7-.51-1.5-.12-2.25-.27.81-.44,1.71-.09,2.55-.28A.48.48,0,0,1,206.38,396Z"/><path class="cls-91" d="M169.91,550.83l.79,1.62c5.87,12.07,12.19,23.88,20.19,34.71,3.23,4.38,6.72,8.53,11.31,11.75a1,1,0,0,1-1.07.05c-17.95-5.88-30-17.41-34.69-36.07-.37-1.52-.64-3.06-.93-4.6a1.48,1.48,0,0,1,.08-1.2C167,555.05,168.4,553,169.91,550.83Z"/><path class="cls-90" d="M261.48,535.27c.07-2-.3-3.94.2-5.89A29.78,29.78,0,0,1,261.48,535.27Z"/><path class="cls-92" d="M262.78,528.84c-.44.91-.11,1.88-.22,2.81-.06.53.18,1.1-.24,1.57v-5l.2,0Z"/><path class="cls-90" d="M262.26,539.52c-.09,1.86.31,3.75-.22,5.6A27.59,27.59,0,0,1,262.26,539.52Z"/><path class="cls-90" d="M261.2,545.5c.09-1.78-.32-3.58.22-5.33A25,25,0,0,1,261.2,545.5Z"/><path class="cls-90" d="M260.93,552.41c.06-1-.29-2.1.2-3.11A9.3,9.3,0,0,1,260.93,552.41Z"/><path class="cls-90" d="M260.65,557.66c.06-1-.28-2.1.22-3.11A9,9,0,0,1,260.65,557.66Z"/><path class="cls-90" d="M262,548.37l0,2.85h-.23A7.6,7.6,0,0,1,262,548.37Z"/><path class="cls-90" d="M261.7,554.45c-.07.95.29,1.93-.21,2.84A7.55,7.55,0,0,1,261.7,554.45Z"/><path class="cls-90" d="M261.43,559.16c0,.58.22,1.2-.21,1.73A3.11,3.11,0,0,1,261.43,559.16Z"/><path class="cls-90" d="M261.15,562.49c0,.58.23,1.2-.22,1.72A3.08,3.08,0,0,1,261.15,562.49Z"/><path class="cls-90" d="M260.38,561.28c0-.5-.2-1,.19-1.47A2.33,2.33,0,0,1,260.38,561.28Z"/></g></g></g></svg>