<svg xmlns="http://www.w3.org/2000/svg" viewBox="0 0 220 220"><defs><style>.cls-1{fill:#7952b2;}.cls-2{fill:#7952b3;}.cls-3{fill:none;}</style></defs><title>Bootstrap@logo</title><g id="Capa_2" data-name="Capa 2"><g id="Logos"><g id="Bootstrap"><g id="Bootstrap-2" data-name="Bootstrap"><path class="cls-1" d="M210,105.11c-.08-.49-.45-.62-.87-.68-6.19-.9-10.42-4.52-13.49-9.74A49.22,49.22,0,0,1,190.18,79a124.45,124.45,0,0,1-1.92-23.44c0-1.59.15-3.18.16-4.78A19.94,19.94,0,0,0,185.55,40c-3.71-6-8.79-9.78-16.18-9.65H50.54a19,19,0,0,0-4.86.57A19.57,19.57,0,0,0,35,39.4a19.94,19.94,0,0,0-3.19,11.12c.05,5.43.14,10.86-.27,16.28a99.44,99.44,0,0,1-2.17,15.08A44.15,44.15,0,0,1,24,95.58c-3,4.76-7.12,7.93-12.79,8.82A1.81,1.81,0,0,0,10,105V115a1.4,1.4,0,0,0,1,.57,17.71,17.71,0,0,1,12.45,8A41,41,0,0,1,29.1,137a100.22,100.22,0,0,1,2.72,22.22c.08,3.84,0,7.68,0,11.51a8.33,8.33,0,0,0,0,1.12,20.75,20.75,0,0,0,7,13.33,16.13,16.13,0,0,0,10.79,4.43H170.55a19.81,19.81,0,0,0,3.67-.46,20.63,20.63,0,0,0,14.19-19.29c0-1.67-.07-3.35-.14-5-.08-1.86,0-3.72.1-5.58.1-2.24.17-4.47.33-6.7a93.14,93.14,0,0,1,1.65-12.33c1.14-5.53,2.74-10.91,5.78-15.74s7.22-8.06,13-8.91c.48-.07.81-.24.87-.75Zm-66.09,32.66a20.89,20.89,0,0,1-9.53,10.5,32.36,32.36,0,0,1-10.88,3.55,52.5,52.5,0,0,1-8.12.53H85.32a10.39,10.39,0,0,1-1.12,0,3.33,3.33,0,0,1-2.89-3c0-.37,0-.74,0-1.12V71.81c0-.38,0-.75,0-1.12a3.35,3.35,0,0,1,3-3h.48c10.71,0,21.42,0,32.14,0a30,30,0,0,1,12.56,2.69A19.52,19.52,0,0,1,139,78.93c5.27,9.92,1.73,21.74-8.19,26.74a15.75,15.75,0,0,1-4.06,1.4l-.39.09c-.18,0-.39.06-.36.33s.21.21.36.24c.83.15,1.68.26,2.51.45a21.62,21.62,0,0,1,11.63,6.42,19.12,19.12,0,0,1,5,11.09A24.32,24.32,0,0,1,143.91,137.77Z"/><path class="cls-2" d="M94.75,127.69V114.83c0-.19,0-.38,0-.56,0-.37.1-.56.5-.52.1,0,.21,0,.31,0,6,0,11.89,0,17.83,0a31.45,31.45,0,0,1,8.52,1.12A16.53,16.53,0,0,1,126.7,117a11.12,11.12,0,0,1,4.72,6.69,15.82,15.82,0,0,1-.08,8.14,11.73,11.73,0,0,1-7,7.81,23.35,23.35,0,0,1-7,1.75,44,44,0,0,1-4.87.19H95.35c-.58,0-.58,0-.6-.58V127.69Z"/><path class="cls-2" d="M94.75,91.05V79.46c0-.21,0-.42,0-.64s.15-.42.44-.41c.11,0,.22,0,.32,0,5.94,0,11.88,0,17.82,0a21.16,21.16,0,0,1,6.83,1.11,14.64,14.64,0,0,1,1.91.82,10.51,10.51,0,0,1,5.79,8.88,14.08,14.08,0,0,1-.37,4.92,11.08,11.08,0,0,1-5.62,7,20.17,20.17,0,0,1-7,2.18,37.75,37.75,0,0,1-5.42.34c-4.58,0-9.16,0-13.74,0-.19,0-.38,0-.56,0s-.44-.12-.43-.43,0-.42,0-.64Z"/></g><rect class="cls-3" width="220" height="220"/></g></g></g></svg>