<svg xmlns="http://www.w3.org/2000/svg" viewBox="0 0 220 220"><defs><style>.cls-1{fill:#0276bc;}.cls-2{fill:#039ae4;}.cls-3{fill:none;}</style></defs><title>Css@logo</title><g id="Capa_2" data-name="Capa 2"><g id="Logos"><g id="Css"><g id="Css-2" data-name="Css"><path class="cls-1" d="M198.5,10H21.68c-.21,0-.43,0-.63,0-.42,0-.54.09-.5.53.27,2.85.5,5.71.75,8.57q.68,7.66,1.36,15.33l1.17,13.29q.68,7.67,1.36,15.32.58,6.65,1.16,13.29Q27,84,27.71,91.59q.59,6.69,1.16,13.37.68,7.62,1.36,15.25c.45,5.05.88,10.11,1.33,15.17q.75,8.49,1.51,17c.5,5.66,1,11.32,1.48,17,.56,6.35,1.14,12.69,1.68,19a.79.79,0,0,0,.7.83q36.27,10.35,72.51,20.72a2,2,0,0,0,1.15,0Q146.8,199.56,183,189.23a.89.89,0,0,0,.78-.95c.35-4.37.75-8.75,1.14-13.13q.67-7.62,1.36-15.25c.44-5.05.87-10.11,1.32-15.17s.91-10.17,1.36-15.25.88-10.12,1.33-15.17.92-10.38,1.37-15.57q.58-6.57,1.16-13.13.67-7.62,1.36-15.25.59-6.68,1.16-13.37.67-7.62,1.36-15.25c.45-5.05.88-10.11,1.33-15.17S199,16.19,199.42,11C199.51,10,199.48,10,198.5,10Zm-41,49.06c-.2,3.86-.48,7.72-.72,11.58q-.61,9.6-1.22,19.22-.42,6.84-.83,13.7l-1.23,20q-.41,6.84-.82,13.7-.51,8.4-1,16.78a.9.9,0,0,1-.7,1q-20.13,6.6-40.26,13.23c-.12,0-.26.05-.38.08h0l-.33.17-22.52-7.43q-9.13-3-18.27-6a1.08,1.08,0,0,1-.88-1.15q-.3-6-.64-12c-.27-5.07-.53-10.14-.83-15.21,0-.68.08-.93.85-.93q9.68.06,19.35,0c.71,0,.85.2.87.87.12,3.89.3,7.78.44,11.67,0,.4.07.67.53.82q10.49,3.56,21,7.14a.43.43,0,0,0,.16,0l0,.05q10.38-3.56,20.75-7.09a1.06,1.06,0,0,0,.87-1.14c.37-6,.79-12,1.19-17.95.1-1.42.14-2.84.28-4.25.06-.58-.13-.66-.63-.66-1.9,0-3.79,0-5.68,0h-16c-.29,0-.58,0-.86,0-1.82,0-3.63,0-5.45,0H87.76c-.31,0-.62,0-.94,0-.33-6.69-.64-13.39-1-20.08,0-.8.19-.93.93-.93,7.44,0,14.88,0,22.32,0,.32,0,.63,0,1,0v.06c2.07,0,4.15,0,6.23,0,5.76,0,11.52,0,17.28,0,.6,0,.75-.2.79-.74q.56-7.9,1.15-15.81c.1-1.32.22-2.65.33-4a3.89,3.89,0,0,0-1.69-.25H111.45a2.07,2.07,0,0,1-1.44-.25c-.34,0-.68,0-1,0q-22.42,0-44.85,0c-.81,0-1-.21-1.08-1-.41-6-.88-11.91-1.33-17.86-.06-.71-.34-1.63,0-2.07s1.33-.15,2-.15H109c.34,0,.68,0,1,0l1,0H157c.3,0,.63-.13.9.13h0C157.89,54.52,157.62,56.79,157.49,59.07Z"/><path class="cls-2" d="M110,73.24c1.42,0,2.83,0,4.25,0H135c.35,0,.85-.18.81.49a1.22,1.22,0,0,1,.18,1c-.39,4.81-.73,9.63-1.09,14.45l-.3,4.16c-.07.9-.33,1.17-1.23,1.19-1.39,0-2.78,0-4.18,0q-8.86,0-17.74,0a2.55,2.55,0,0,1-1.31-.16l-.1-.12Z"/><path class="cls-2" d="M110,146.32c0-10,0-20,0-29.93,0-.81-.21-1-1-1-7.1,0-14.21,0-21.32,0-.29,0-.64.15-.88-.17a1.1,1.1,0,0,1,.82-.23c7.42,0,14.84,0,22.25,0h22.17c1.18,0,1.32.14,1.26,1.32-.14,3.1-.41,6.19-.6,9.28-.16,2.75-.37,5.5-.53,8.25-.08,1.52-.2,3-.32,4.56a1,1,0,0,1-.79,1c-.72.24-1.43.53-2.15.77-5.91,2-11.78,4.06-17.7,6a1.85,1.85,0,0,1-1.22.21Z"/><path class="cls-2" d="M181.32,25.83q-35.19,0-70.37,0c-.77,0-1,.22-1,1q0,12.65,0,25.27a1,1,0,0,0,.42.22,1.58,1.58,0,0,1,.53-.07q23.45,0,46.89,0c0,2.29-.23,4.56-.36,6.84-.2,3.86-.48,7.72-.72,11.58q-.61,9.6-1.22,19.22-.42,6.84-.83,13.7l-1.23,20q-.41,6.84-.82,13.7-.51,8.4-1,16.78a.9.9,0,0,1-.7,1q-20.13,6.6-40.26,13.23c-.12,0-.26.05-.38.08l-.15-.05a.49.49,0,0,0-.18.22q0,12.24,0,24.48c0,.59.07.8.73.59,1.54-.5,3.11-.93,4.68-1.37L135,186.62l14.74-4.22c6.13-1.75,12.25-3.51,18.38-5.23a1.14,1.14,0,0,0,1-1.3c0-1.49.19-3,.32-4.46q.28-3.45.61-6.88c.13-1.35.25-2.71.35-4.07.15-2.08.41-4.16.59-6.24s.32-4.23.5-6.35q.28-3.44.62-6.87c.13-1.36.25-2.71.34-4.07.16-2.24.4-4.48.6-6.72.12-1.38.21-2.77.34-4.15.19-2.26.41-4.53.61-6.8.12-1.38.22-2.76.34-4.14.2-2.22.41-4.43.6-6.64.13-1.41.22-2.82.34-4.23.2-2.27.41-4.53.61-6.8.12-1.38.22-2.76.35-4.15.19-2.13.41-4.26.6-6.4.12-1.43.21-2.87.34-4.3.19-2.17.41-4.33.6-6.49.13-1.46.22-2.92.34-4.38.2-2.29.41-4.59.61-6.88.12-1.35.23-2.71.35-4.07.19-2.21.41-4.42.6-6.64.12-1.41.21-2.82.34-4.22.25-2.71.52-5.42.76-8.13.19-2.11.29-4.23.5-6.34.31-2.94.53-5.88.8-8.83C182.14,25.9,182,25.83,181.32,25.83Z"/></g><rect class="cls-3" width="220" height="220"/></g></g></g></svg>