<svg xmlns="http://www.w3.org/2000/svg" viewBox="0 0 220 220"><defs><style>.cls-1{fill:#e24f26;}.cls-2{fill:#ee652a;}.cls-3{fill:#e14e26;}.cls-4{fill:#ee642a;}.cls-5{fill:none;}</style></defs><title>Html@logo</title><g id="Capa_2" data-name="Capa 2"><g id="Logos"><g id="Html"><g id="Html-2" data-name="Html"><path class="cls-1" d="M109.75,68.62l.44,0V90.44c0,.76,0,.76-.77.76H80.92A25.79,25.79,0,0,1,80.6,88Q79.93,80.51,79.29,73c-.11-1.27-.2-2.56-.34-3.83,0-.44.08-.51.49-.51H109.1Z"/><path class="cls-2" d="M110.19,113.57l.55,0q12.87,0,25.75,0c.51,0,.63.12.57.63-.36,3.63-.7,7.26-1.05,10.89-.31,3.27-.63,6.53-.94,9.8-.22,2.3-.45,4.6-.65,6.9,0,.34-.25.35-.47.41l-11.72,3.17-11.77,3.17-.27,0Z"/><path class="cls-3" d="M197.42,10H22.5a1.12,1.12,0,0,0-.6.06v1a22,22,0,0,1,.16,2.56c.06,2.3.3,4.58.5,6.87.16,1.91.34,3.83.51,5.75s.31,3.57.48,5.36.33,3.76.5,5.64.32,3.65.49,5.47l.51,5.75.48,5.37c.17,1.93.34,3.87.52,5.8.16,1.77.3,3.54.47,5.31.18,1.94.33,3.87.52,5.8s.31,3.58.47,5.37.33,3.76.51,5.64.31,3.65.49,5.47.33,3.8.5,5.7.31,3.61.49,5.42.33,3.79.5,5.69.32,3.61.49,5.42.33,3.8.51,5.69.31,3.62.48,5.42.33,3.84.51,5.75.31,3.58.48,5.37.34,3.75.5,5.63.32,3.65.49,5.48l.51,5.75c.17,1.8.32,3.61.48,5.42L35,159.6c.16,1.82.32,3.65.49,5.47q.3,3.42.61,6.84c.17,1.83.31,3.65.48,5.48.21,2.3.4,4.6.62,6.9.16,1.67.28,3.36.46,5a.76.76,0,0,0,.57.72c.45.16.92.26,1.37.39q8.2,2.34,16.42,4.65l23.29,6.58,23,6.5a58,58,0,0,0,7.11,1.84H110c.71-.17,1.44-.17,2.15-.37l12.13-3.41,28.93-8.12,24.52-6.9c1.33-.37,2.66-.71,4-1.13.36-.12.62-.29.65-.71.08-.84.18-1.68.24-2.52.14-1.89.33-3.76.49-5.64.2-2.29.42-4.57.62-6.85.15-1.83.33-3.65.48-5.48l.51-5.64c.15-1.82.33-3.65.48-5.47l.51-5.64q.25-2.82.5-5.64c.16-1.79.34-3.58.48-5.37s.35-3.8.51-5.7.33-3.57.48-5.36.34-3.76.5-5.64c.19-2.29.41-4.57.61-6.85.16-1.83.33-3.65.48-5.48s.35-3.79.51-5.69.33-3.62.48-5.42l.51-5.7.51-5.58c.15-1.79.33-3.58.48-5.37s.34-3.8.5-5.7.34-3.57.48-5.36c.19-2.29.42-4.57.61-6.85.15-1.92.34-3.83.51-5.75s.32-3.58.48-5.37.34-3.79.51-5.69.34-3.76.5-5.64.34-3.54.48-5.31.33-3.77.49-5.65q.3-3.42.62-6.84l.48-5.48c.17-1.91.36-3.83.51-5.75.1-1.39.11-2.79.21-4.19C198.13,10,198.15,10,197.42,10ZM165.2,46.84c-.08,1.3-.13,2.59-.23,3.89-.4,5.5-1.15,11-1.58,16.47,0,.47.14,1.11-.21,1.36s-.92.08-1.39.08H110.9l-.71,0a.29.29,0,0,1-.35,0,.7.7,0,0,1-.58.2c-.36,0-.73,0-1.1,0H80.54c-1.23,0-1.34.1-1.22,1.32.39,4,.69,8,1.06,12,.24,2.59.44,5.18.66,7.77a1.49,1.49,0,0,1-.12,1.17c.19.18.42.09.63.09H109l.72,0,1,0h49.8c.75,0,.75,0,.63.75-.54,3.58-.88,7.17-1.18,10.77-.33,4-.7,8-1.05,12-.31,3.56-.61,7.13-.92,10.69q-.53,6-1.06,12c-.31,3.54-.61,7.09-.92,10.63s-.67,7.2-1,10.79c0,.34-.24.36-.47.43L144,162.31l-31.78,8.76a16.84,16.84,0,0,1-2.42.62h0l-.12,0-10-2.79-34.68-9.56a.57.57,0,0,1-.49-.6q-.39-5.1-.79-10.2l-1-12.12L61.86,126c0-.35,0-.69-.09-1s0-.57.44-.51a.81.81,0,0,0,.22,0q10.26,0,20.53,0c.56,0,.68.18.72.7.33,3.93.69,7.86,1,11.78.14,1.5.28,3,.38,4.5a.72.72,0,0,0,.63.77q11.59,3.1,23.18,6.24l.84.25.44-.15a1.11,1.11,0,0,1,.72-.45l14.14-3.81c2.76-.74,5.52-1.5,8.29-2.22a1.11,1.11,0,0,0,.89-1.15c.09-1.26.23-2.52.35-3.78.25-2.53.49-5.07.74-7.6.2-2.08.39-4.16.59-6.24s.4-4.27.62-6.4c.08-.81.15-1.61.22-2.41.05-.46-.12-.63-.59-.66-.24,0-.48,0-.72,0H111.33c-.39,0-.81.09-1.14-.25l-.43,0-.61,0H61.27c-.53,0-.72-.1-.77-.68-.41-4.85-.85-9.68-1.29-14.52S58.35,89,57.93,84.28L56.79,71.4,55.62,58.53c-.34-3.76-.65-7.53-.9-11.3,0-.36.07-.51.44-.47a4,4,0,0,0,.49,0h53.16c.46,0,.92,0,1.38,0l.76,0h53.56c.23,0,.47-.09.69.08Z"/><path class="cls-4" d="M181.08,24.49h-70c-.88,0-.88,0-.88.87V46.72a.52.52,0,0,0,.17.13H165.2c-.08,1.3-.13,2.59-.23,3.89-.4,5.5-1.15,11-1.58,16.47,0,.47.14,1.11-.21,1.36s-.92.08-1.39.08H110.9l-.71,0a.47.47,0,0,1-.15.06,3,3,0,0,0-.11,1.11c0,6.59,0,13.17,0,19.76,0,1.28-.06,1.35-1.32,1.35H82.45c-.33,0-.66,0-1,0s-.44,0-.58.26c0,.29.25.32.48.35a8.55,8.55,0,0,0,.88,0h26.45c.33,0,.66,0,1,0h.08v-.23l1,0h49.8c.75,0,.75,0,.63.75-.54,3.58-.88,7.17-1.18,10.77-.33,4-.7,8-1.05,12-.31,3.56-.61,7.13-.92,10.69q-.53,6-1.06,12c-.31,3.54-.61,7.09-.92,10.63s-.67,7.2-1,10.79c0,.34-.24.36-.47.43L144,162.31l-31.78,8.76a16.84,16.84,0,0,1-2.42.62l-.05-.05-.07.07c.48.08.56.38.56.83q0,10.53,0,21.08c0,.75,0,.75.74.56l13.79-3.8,15-4.12,18.14-5,10-2.74c.35-.09.55-.25.58-.62.11-1.28.23-2.56.34-3.83.15-1.84.3-3.69.46-5.53s.36-3.9.53-5.85l.36-4.21c.13-1.47.28-2.95.41-4.42l.36-4.16c.17-2,.35-3.9.52-5.85.12-1.37.24-2.73.37-4.1l.51-5.63c.13-1.42.24-2.84.37-4.27.16-1.87.34-3.75.51-5.63.13-1.42.24-2.84.37-4.26.16-1.9.34-3.79.51-5.69.13-1.44.24-2.88.36-4.32.17-1.88.35-3.75.52-5.63.13-1.44.24-2.88.37-4.32.17-1.84.35-3.68.51-5.52.13-1.44.23-2.88.36-4.32.21-2.22.43-4.44.63-6.67.17-1.84.31-3.68.47-5.52s.35-4,.53-6c.12-1.42.24-2.84.37-4.27s.27-2.87.39-4.31.25-2.85.37-4.27c.17-1.88.35-3.75.52-5.63l.36-4.27c.17-1.87.35-3.75.52-5.63l.36-4.26c.17-1.92.35-3.83.52-5.74.12-1.4.24-2.81.37-4.21s.29-2.81.39-4.21C182,24.49,182,24.49,181.08,24.49Z"/></g><rect class="cls-5" width="220" height="220"/></g></g></g></svg>