<svg xmlns="http://www.w3.org/2000/svg" viewBox="0 0 220 220"><defs><style>.cls-1{fill:#2f6db7;}.cls-2{fill:#f7582a;}.cls-3{fill:#2f6db8;}.cls-4{fill:none;}</style></defs><title>Java@logo</title><g id="Capa_2" data-name="Capa 2"><g id="Logos"><g id="Java"><g id="Java-2" data-name="Java"><path class="cls-1" d="M98.15,193.69c20.43-.52,40.83-1.39,61-5.25,4.31-.83,8.54-1.87,12-4.81.82-.68,2.05-1.67,3.07-.49s.59,2.72-.5,3.84c-2,2-4.55,3.1-7.15,4.05-9.86,3.61-20.14,5.41-30.47,6.83a266.84,266.84,0,0,1-49.64,2.65,268.93,268.93,0,0,1-41.63-5.15,29.1,29.1,0,0,1-7.6-2.5c-3.2-1.68-3.45-3.64-.69-5.94,3.06-2.53,6.68-4.09,10.28-5.65a50.41,50.41,0,0,1,11.66-3.82c1.13-.19,2.56-.64,3.17.6s-.72,2.08-1.54,2.8c-1.8,1.59-3.78,3-5.58,4.58-2.21,2-2,3.17.9,4a107.58,107.58,0,0,0,18.68,3.26A224.48,224.48,0,0,0,98.15,193.69Z"/><path class="cls-2" d="M135.71,10c3,21.15-8.12,35.78-22.37,48.93-3.54,3.27-7.5,6.05-10.81,9.58-7.19,7.68-8.66,16.27-4.48,25.92,2.53,5.85,6.33,11,9.23,16.59.91,1.77,2,3.48,2.25,5.59-1.42.27-2.07-.59-2.74-1.22A135.12,135.12,0,0,1,88.06,94.14c-5.36-7.83-5.28-13.4,0-21.26s12.06-14.32,18.42-21.2q8.37-9,16-18.68c5.09-6.39,9.56-13.12,12.06-21a17.61,17.61,0,0,1,.88-1.93C135.46,10,135.59,10,135.71,10Z"/><path class="cls-2" d="M150.29,51c-1.62,2.42-3.87,3.73-5.9,5.26-4.12,3.12-8.52,5.86-12.34,9.37-8.38,7.69-9.75,14.23-5.16,24.67,2,4.46,4.87,8.52,5.58,13.52.67,4.72.32,9.27-2.14,13.45-1.52,2.6-3.69,4.36-6.87,4.41-2.13,0-3.26-1.18-2.4-3,1.91-4.08.34-7.73-1.12-11.31s-3.63-7.14-5.3-10.78c-5.47-11.89-3-23.74,6.66-32.59a44.71,44.71,0,0,1,7.06-5.27A71.14,71.14,0,0,1,147.09,51,4.69,4.69,0,0,1,150.29,51Z"/><path class="cls-1" d="M146.54,129.86c-1.64,1.77-3.46,1.9-5.12,2.27a184.08,184.08,0,0,1-22.79,3.1,388,388,0,0,1-39,1.74c-8.26-.1-16-2.41-23.7-5-1.32-.45-3-1-3.07-2.63-.1-1.49,1.32-2.24,2.43-3,5.57-3.59,11.39-6.69,17.87-8.31,1.75-.44,4.18-1.45,5.2.34s-1.32,3.17-2.57,4.44-2.7,2.33-4,3.6-1,2.31.76,2.69a25.22,25.22,0,0,0,4.5.51c12.51.33,25-.52,37.47-.92a232.63,232.63,0,0,1,27.82.34A40.43,40.43,0,0,1,146.54,129.86Z"/><path class="cls-1" d="M101.12,167.45c11.37.51,23.33.8,35.09,3.26,1.63.34,4.13.19,4.29,2.35s-2,3-3.73,3.76c-6,2.66-12.37,3.33-18.79,3.78a100.53,100.53,0,0,1-32.15-2.41A24.48,24.48,0,0,1,76.38,174c-1.1-.88-2.38-1.85-2-3.51s1.9-1.72,3.2-2C85.19,167.07,92.88,167.53,101.12,167.45Z"/><path class="cls-1" d="M103,158.22c-6.78.09-13.57.12-20.24-1.33A24,24,0,0,1,71.45,151a8,8,0,0,1-1.58-1.8c-.81-1.37-1.85-2.93-.78-4.45s2.66-.76,4-.36c15.85,4.82,32.11,3.87,48.33,3.54a106.09,106.09,0,0,1,18.17.7c1.26.19,3.14.11,3.32,1.64.19,1.69-1.74,2.1-3,2.58-6,2.34-12.42,3.18-18.79,4C115.08,157.59,109,158,103,158.22Z"/><path class="cls-3" d="M75,207.56c2.75-1.64,5.28-1.69,7.71-1.92,8.35-.82,16.73-1,25.12-1.18,17.41-.27,34.78-1.15,51.95-4.26,6.13-1.11,12-3.41,18.28-4,1.52-.13,3.75-.93,4.26.81.42,1.42-1.82,2.12-3.09,2.85-7.36,4.25-15.55,5.63-23.8,6.65a424.74,424.74,0,0,1-68.1,3.19C83.32,209.59,79.29,209.41,75,207.56Z"/><path class="cls-1" d="M163.6,118.89c9.64-3.18,19.38,2.17,21.54,11.48a8,8,0,0,1-1.41,6.85,64.57,64.57,0,0,1-20,17.42.92.92,0,0,1-.25.09c-1.14.37-2.48,1.5-3.44.41s.25-2.48.91-3.55a54.15,54.15,0,0,1,5.6-6.79c3.42-3.92,6.51-8.06,7.6-13.3,1.17-5.66-1-9.33-6.54-11.06A11.88,11.88,0,0,1,163.6,118.89Z"/></g><rect class="cls-4" width="220" height="220"/></g></g></g></svg>