<svg xmlns="http://www.w3.org/2000/svg" viewBox="0 0 220 220"><defs><style>.cls-1{fill:#eeda4e;}.cls-2{fill:none;}</style></defs><title>JavaScript@logo</title><g id="Capa_2" data-name="Capa 2"><g id="Logos"><g id="JavaScript"><path id="JavaScript-2" data-name="JavaScript" class="cls-1" d="M207.44,10c-.57,0-1.15,0-1.72,0H14.28c-.57,0-1.15,0-1.72,0a1.47,1.47,0,0,0-1.22.49V209.44c.82.82,1.87.5,2.82.5H205.84c.57,0,1.14,0,1.71,0a1.42,1.42,0,0,0,1.11-.49V10.51A1.47,1.47,0,0,0,207.44,10ZM118.6,135.62q0,14.81,0,29.6a34.52,34.52,0,0,1-2.68,14.37c-3.12,7-8.56,11.17-15.87,12.93-8.44,2-16.72,1.65-24.6-2.32-5.65-2.84-9.61-7.37-12.46-13-.27-.54-.13-.79.35-1.08q7-4.17,13.88-8.39c.63-.38.82-.17,1.11.34a26.76,26.76,0,0,0,4.06,5.78,11.71,11.71,0,0,0,13.35,1.85c2.44-1.38,3.34-3.74,3.85-6.32a25.43,25.43,0,0,0,.33-5q0-30.63,0-61.26c0-1.14.25-1.45,1.42-1.44,5.37.07,10.75.06,16.12,0,1,0,1.18.28,1.18,1.21Q118.58,119.28,118.6,135.62Zm65.51,51.93a33.68,33.68,0,0,1-16.49,5.86c-1.66.17-3.34.2-4.22.25-8.32-.06-15.47-1.54-22-5.44a33.64,33.64,0,0,1-12.25-12.81c-.39-.69-.2-1,.41-1.32q6.83-3.93,13.63-7.91c.62-.36.89-.22,1.25.35,2.36,3.67,5.16,6.94,9.24,8.75a19.5,19.5,0,0,0,15.66.49c3.08-1.23,5.22-3.45,5.63-6.91a8.56,8.56,0,0,0-3.74-8.32,42.61,42.61,0,0,0-8.37-4.41c-4.76-2.13-9.66-4-14.16-6.63-4.93-2.93-9.23-6.52-11.74-11.82-4.57-9.65-3.9-23.9,7-31.78a26.74,26.74,0,0,1,11.3-4.67,38.4,38.4,0,0,1,15.65.48c7,1.72,12.24,5.93,16.1,11.93,1.23,1.92,1.21,1.94-.69,3.16-4,2.55-8,5.08-11.91,7.67-.61.39-.86.32-1.21-.28-1.46-2.5-3.2-4.77-5.9-6a11.8,11.8,0,0,0-10-.34c-5.49,2.34-6.32,9.94-1.57,13.86a33.7,33.7,0,0,0,8.39,4.58c5.42,2.35,10.9,4.55,15.93,7.69,4.46,2.78,8.36,6.13,10.8,10.9C195.25,163.26,195.84,179.14,184.11,187.55Z"/><rect class="cls-2" width="220" height="220"/></g></g></g></svg>