<svg xmlns="http://www.w3.org/2000/svg" viewBox="0 0 220 220"><defs><style>.cls-1{fill:#539e43;}.cls-2{fill:none;}</style></defs><title>Node@logo</title><g id="Capa_2" data-name="Capa 2"><g id="Logos"><g id="Node"><g id="Node-2" data-name="Node"><path class="cls-1" d="M198.66,110q0,21,0,42a15.64,15.64,0,0,1-2.2,8.23,14.85,14.85,0,0,1-5.33,5.32q-6.54,3.82-13.12,7.59l-60.17,34.73a15.46,15.46,0,0,1-9,2.12,15.2,15.2,0,0,1-6.68-2.11L77.52,193.3a6.79,6.79,0,0,1-1.45-1.05c-.7-.7-.62-1.25.29-1.67a12.34,12.34,0,0,1,1.57-.59,44.4,44.4,0,0,0,9.6-4.41,2.46,2.46,0,0,1,2.86,0c6,3.6,12,7.16,18.08,10.74a2.92,2.92,0,0,0,1.09.46,2.52,2.52,0,0,0,1.67-.34q7.27-4.23,14.58-8.42l39.33-22.7,19-11a2.51,2.51,0,0,0,1.34-2.36q0-9.15,0-18.31V67.78a2.38,2.38,0,0,0-1.31-2.27L181.53,64,133.87,36.5,111.48,23.57a2.74,2.74,0,0,0-2.06-.46,3.31,3.31,0,0,0-.84.37L91.7,33.24,49.18,57.8q-6.7,3.87-13.41,7.74a2.41,2.41,0,0,0-1.32,2.31v.44q0,41.68,0,83.37a2.91,2.91,0,0,0,1.64,2.84c6.45,3.67,12.85,7.44,19.3,11.1a15.81,15.81,0,0,0,8.84,2.2,9.38,9.38,0,0,0,9-8.09,12.46,12.46,0,0,0,.11-1.84q0-41.22,0-82.45c0-.23,0-.47,0-.7a2.05,2.05,0,0,1,1.87-1.94h9.4a2.25,2.25,0,0,1,1.25.3,2,2,0,0,1,1,1.53,6.45,6.45,0,0,1,0,.76q0,41.39,0,82.77a31.3,31.3,0,0,1-1.25,9.33,19.8,19.8,0,0,1-4.11,7.46A18.27,18.27,0,0,1,73,180.19a26.14,26.14,0,0,1-6.8,1.06,35.57,35.57,0,0,1-5.26-.16,24.67,24.67,0,0,1-5.68-1.38,57.34,57.34,0,0,1-9.42-4.42c-5.51-3.22-11-6.39-16.56-9.56A15.49,15.49,0,0,1,21.34,152V67.84a15.5,15.5,0,0,1,2.3-8.31,15.35,15.35,0,0,1,5.48-5.32L50.71,41.74,96.57,15.25,102.12,12a15.53,15.53,0,0,1,6.54-2,16.15,16.15,0,0,1,9.57,2.22q32.86,19,65.75,38c2.3,1.33,4.62,2.64,6.91,4a15.34,15.34,0,0,1,7.6,11,16.56,16.56,0,0,1,.17,2.82Z"/><path class="cls-1" d="M100.69,122.6h4.56a2.15,2.15,0,0,1,2,1.08,2.53,2.53,0,0,1,.29.93,27.9,27.9,0,0,0,.94,4.12,12.11,12.11,0,0,0,7.13,7.78,26.09,26.09,0,0,0,5.74,1.62,71,71,0,0,0,12.78.77,59.06,59.06,0,0,0,7.15-.47,25.89,25.89,0,0,0,7.18-1.83,11.46,11.46,0,0,0,3.48-2.28,8.78,8.78,0,0,0,2.55-5.22,12.52,12.52,0,0,0,0-3.35,5.28,5.28,0,0,0-2-3.5,12.75,12.75,0,0,0-3.87-2,42.35,42.35,0,0,0-6.66-1.74c-2.95-.57-5.92-1-8.91-1.33-2.64-.29-5.29-.55-7.93-.87a77.24,77.24,0,0,1-12.52-2.38,31.26,31.26,0,0,1-8.11-3.47,17,17,0,0,1-6-6.18,18.26,18.26,0,0,1-2-6,25.82,25.82,0,0,1-.21-6,20,20,0,0,1,7.42-14.29,28.9,28.9,0,0,1,10-5.17A47,47,0,0,1,121.86,71a73.45,73.45,0,0,1,11.77-.37,61.93,61.93,0,0,1,9.49,1,38,38,0,0,1,9.68,3.11,22.74,22.74,0,0,1,12.34,15,35.76,35.76,0,0,1,1.07,6,4.5,4.5,0,0,1,0,.82,2.06,2.06,0,0,1-1.64,1.86,3.7,3.7,0,0,1-.81.07h-9.24a2.13,2.13,0,0,1-2-1.7,32,32,0,0,0-.91-3.18,13.26,13.26,0,0,0-9.5-8.88,32.36,32.36,0,0,0-5.44-1,67.7,67.7,0,0,0-9.12-.29,35.11,35.11,0,0,0-9.17,1.28,12.89,12.89,0,0,0-4.84,2.48,7.59,7.59,0,0,0-2.65,5.13A11.4,11.4,0,0,0,111,95.5a4.4,4.4,0,0,0,2,3,12.48,12.48,0,0,0,3.44,1.58,53.77,53.77,0,0,0,7,1.62c3.33.61,6.68,1.09,10,1.55s6.82.9,10.2,1.5A70.1,70.1,0,0,1,156,107.9a26.32,26.32,0,0,1,6.2,3.23,15.61,15.61,0,0,1,6.3,9.64,26,26,0,0,1-.19,12.21,20.75,20.75,0,0,1-8.26,11.82,32,32,0,0,1-9.59,4.62,51,51,0,0,1-8.38,1.77,76.32,76.32,0,0,1-10.68.59,81.59,81.59,0,0,1-8.56-.52,51,51,0,0,1-12.55-2.91,28.7,28.7,0,0,1-8.8-5.17A21.93,21.93,0,0,1,94.71,132a27.75,27.75,0,0,1-.89-7.2,2.1,2.1,0,0,1,2.25-2.24Z"/></g><rect class="cls-2" width="220" height="220"/></g></g></g></svg>