<svg xmlns="http://www.w3.org/2000/svg" viewBox="0 0 220 220"><defs><style>.cls-1{fill:#7a85b7;}.cls-2{fill:none;}</style></defs><title>Php@logo</title><g id="Capa_2" data-name="Capa 2"><g id="Logos"><g id="Php"><g id="Php-2" data-name="Php"><path class="cls-1" d="M151.09,114.15c-1.58,0-3.16,0-4.74,0-.66,0-.86-.15-.72-.85,1-5,1.91-10,2.85-15,.08-.43.13-.79.71-.77,3.65.11,7.32-.31,10.95.25,4.14.64,5.72,2.85,5.23,7-.71,6.08-3.81,9-9.94,9.3-1.44.07-2.89,0-4.34,0Z"/><path class="cls-1" d="M63.91,114.15c-1.63,0-3.25,0-4.88,0-.67,0-.85-.16-.72-.85,1-5,1.89-10,2.83-15,.08-.4.15-.79.73-.77,3.59.11,7.21-.3,10.79.23A6.39,6.39,0,0,1,78,105a15.31,15.31,0,0,1-1.13,4c-1.67,3.57-4.79,4.7-8.39,5-1.53.11-3.07,0-4.6,0Z"/><path class="cls-1" d="M209.24,103.24c-1.66-7.62-5.78-13.86-11.21-19.31-7.33-7.34-16.1-12.48-25.56-16.51-14.95-6.36-30.63-9.6-46.75-10.92a182.42,182.42,0,0,0-55.24,3.61c-12.72,2.87-24.89,7.18-36,14.08-7.54,4.67-14.25,10.26-19,17.88-6.82,11-7.34,22.33-1.2,33.83a45.88,45.88,0,0,0,10.44,12.72c8.72,7.66,18.88,12.78,29.72,16.63,18,6.39,36.64,8.82,53.77,8.91a184,184,0,0,0,40.35-4c12.41-2.74,24.34-6.81,35.34-13.29,7.79-4.59,14.75-10.14,19.88-17.7C209.12,121.25,211.29,112.65,209.24,103.24ZM73.57,121.66c-5.2,1-10.44.84-15.67.8-1.14,0-1.52.27-1.69,1.43-.49,3.39-1.19,6.76-1.74,10.14-.13.74-.37,1-1.11,1-3,0-6.06,0-9.09,0-.71,0-1-.05-.86-1q4.08-21.9,8.08-43.82c.14-.8.42-1.1,1.29-1.09,3.71.05,7.41,0,11.89,0,3.56.15,7.9-.27,12.23.23,6.47.75,11.09,5,11.92,10.94A18.87,18.87,0,0,1,73.57,121.66Zm54-.43c-.19.93-.51,1.32-1.56,1.29-2.93-.09-5.87-.06-8.81,0-.89,0-1-.2-.84-1.07q1.94-8.66,3.75-17.33c1-4.79-.36-6.49-5.23-6.58-2.8,0-5.6,0-8.4,0-.94,0-1.2.33-1.38,1.17-1.56,7.56-3.19,15.1-4.74,22.66-.2,1-.54,1.21-1.49,1.19-3.2-.06-6.4,0-9.7,0,1.19-5.7,2.33-11.26,3.5-16.82C94.93,95,97.18,84.38,99.37,73.73c.19-1,.49-1.25,1.47-1.22,2.88.07,5.78,0,8.67,0,.85,0,1,.15.85,1-1,4.76-2,9.54-3,14.3-.24,1.09,0,1.32,1.1,1.32,4.29,0,8.58-.2,12.87.19a20.6,20.6,0,0,1,5,1A7.84,7.84,0,0,1,132,98c.17,3.12-.72,6.08-1.35,9.08C129.64,111.79,128.58,116.5,127.6,121.23Zm48.31-14.58c-1.31,6-4.06,10.91-10,13.49a31.83,31.83,0,0,1-11.76,2.28c-3,.11-6.05.1-9.08,0-.92,0-1.23.3-1.37,1.15-.55,3.39-1.18,6.76-1.73,10.15-.14.9-.42,1.28-1.44,1.25-2.84-.09-5.69-.08-8.53,0-1,0-1.3-.19-1.1-1.25,1.5-7.94,2.95-15.89,4.42-23.83,1.21-6.57,2.45-13.14,3.62-19.71.16-.87.47-1.09,1.3-1.08,3.71.05,7.41,0,11.87,0,3.31.12,7.39-.28,11.43.17C173.27,90.39,178,97.09,175.91,106.65Z"/></g><rect class="cls-2" width="220" height="220"/></g></g></g></svg>