<svg xmlns="http://www.w3.org/2000/svg" viewBox="0 0 220 220"><defs><style>.cls-1{fill:#41b782;}.cls-2{fill:#34495e;}.cls-3{fill:none;}</style></defs><title>Vue@logo</title><g id="Capa_2" data-name="Capa 2"><g id="Logos"><g id="Vue"><g id="Vue-2" data-name="Vue"><path class="cls-1" d="M169.93,23.38H210c-1.55,2.72-3.09,5.46-4.66,8.17q-28.25,48.93-56.5,97.86l-38.3,66.31c-.15.27-.31.52-.55.91l-.65-1.12q-19.05-33-38.09-66L10.32,24.05c-.12-.21-.21-.45-.32-.67H50.07a15.55,15.55,0,0,1,1.91,3c4.07,7.08,8.18,14.15,12.25,21.23q6.49,11.26,13,22.53Q83.57,81.1,89.88,92q6.11,10.55,12.17,21.09c2.49,4.31,5,8.63,7.47,12.92.13.22.19.54.45.57s.39-.34.52-.57c4.68-8.14,9.41-16.26,14.1-24.4,4.51-7.86,9.06-15.7,13.58-23.55,4.19-7.27,8.41-14.53,12.6-21.8q6.79-11.77,13.58-23.54c1.68-2.92,3.38-5.82,5-8.75A2.46,2.46,0,0,1,169.93,23.38Z"/><path class="cls-2" d="M169.93,23.38c-1,2-2.22,4-3.36,5.93q-4.83,8.42-9.69,16.81l-9.67,16.73q-4.85,8.41-9.7,16.81t-9.62,16.67l-9.75,16.87q-3.84,6.67-7.69,13.36c-.34.61-.55.6-.9,0q-4.78-8.36-9.6-16.68L90.33,93.22,80.58,76.34q-5.06-8.76-10.13-17.52-4.61-8-9.19-15.94c-3-5.2-6-10.38-9-15.59a38.32,38.32,0,0,1-2.19-3.91H86.94q4.26,7.34,8.51,14.68l14.1,24.42c.12.21.26.41.39.63.34-.15.41-.47.55-.72Q121.59,43.21,132.67,24c.12-.21.26-.42.4-.63Z"/></g><rect class="cls-3" width="220" height="220"/></g></g></g></svg>