<svg xmlns="http://www.w3.org/2000/svg" viewBox="0 0 220 220"><defs><style>.cls-1{fill:#addcfe;}.cls-2{fill:#7ac5fe;}.cls-3{fill:#1696f5;}.cls-4{fill:none;}</style></defs><title>Vuetify@logo</title><g id="Capa_2" data-name="Capa 2"><g id="Logos"><g id="Vuetify"><g id="Vuetify-2" data-name="Vuetify"><path class="cls-1" d="M175.35,39.39A21.3,21.3,0,0,0,174,42.55q-2.29,6-4.58,12.1c-.88,2.31-1.77,4.61-2.65,6.92-1.66,4.31-3.31,8.61-5,12.93-1.13,3-2.23,5.92-3.36,8.87-1.35,3.52-2.72,7-4.07,10.55-1.4,3.69-2.78,7.38-4.18,11.07-1.66,4.33-3.33,8.66-5,13-1.12,2.91-2.22,5.83-3.33,8.75L139.16,134l-2.74,7.17c-.91,2.38-1.83,4.77-2.74,7.16l-2.74,7.17q-2.7,7.11-5.4,14.22c-1.43,3.76-2.9,7.51-4.35,11.28-1.38,3.6-2.74,7.21-4.11,10.81q-1.36,3.62-2.75,7.23-2,5.31-4.07,10.63c-.06.17,0,.49-.39.34-.17-2-.08-3.91-.08-5.87q0-33.61,0-67.23c0-.61,0-1.22,0-1.83.88-2.09,1.44-4.28,2.16-6.42,1.47-4.38,2.85-8.78,4.28-13.16q1.76-5.4,3.49-10.81l3.36-10.37c1.23-3.76,2.44-7.53,3.66-11.3s2.5-7.65,3.72-11.49c1-3,1.94-6,2.91-9l4-12.3c1.12-3.43,2.22-6.87,3.34-10.31.27-.82.41-.92,1.4-.92h24.18c2.72,0,5.44,0,8.16,0a1.29,1.29,0,0,1,.94.18Z"/><path class="cls-2" d="M109.89,134.85a5.53,5.53,0,0,1,.11,1.29q0,36.51,0,73c0,.27.12.57-.12.81q-2.09-5.49-4.18-11-2.73-7.16-5.48-14.32t-5.49-14.38c-1.83-4.8-3.64-9.6-5.47-14.4q-3.37-8.82-6.78-17.65-3.64-9.5-7.27-19c-1.61-4.23-3.2-8.47-4.81-12.7-1.48-3.91-3-7.81-4.48-11.71-1.66-4.33-3.33-8.65-5-13-1.51-4-3-7.94-4.52-11.91q-2.5-6.59-5-13.16Q49.71,52.38,48.05,48q-1.57-4.12-3.16-8.25a.58.58,0,0,0-.24-.37v-.26a1.08,1.08,0,0,1,.8-.18h32.6c.86,0,1,.13,1.28.91C81,45,82.69,50.2,84.35,55.38Q86.66,62.55,89,69.72L94.26,86c1.3,4,2.58,8,3.88,12q2.56,8,5.14,15.89,2.66,8.2,5.32,16.39c.42,1.28.81,2.57,1.23,3.85C109.91,134.33,110,134.58,109.89,134.85Z"/><path class="cls-2" d="M110,10h30.43c-.39,1.28-.76,2.57-1.16,3.85q-1.17,3.75-2.37,7.49c-1,3.25-2.06,6.48-3.08,9.73-.9,2.83-1.77,5.66-2.66,8.49l-5,15.61c-1.1,3.52-2.19,7-3.3,10.55-1.63,5.18-3.29,10.36-4.92,15.54-1,3.29-2,6.58-3.08,9.87q-2.24,7.1-4.51,14.17a3,3,0,0,1-.44,1.19,9.6,9.6,0,0,1-.2-1.94q0-46.61,0-93.23A2.11,2.11,0,0,1,110,10Z"/><path class="cls-3" d="M110,10c0,.26,0,.52,0,.78v94.55c0,.39,0,.78,0,1.17-.89-2.47-1.62-5-2.41-7.5q-3.72-11.77-7.43-23.56-3.39-10.78-6.8-21.57-3.91-12.39-7.81-24.8-2.9-9.16-5.81-18.35a3.06,3.06,0,0,1,0-.32c0-.26.09-.41.38-.4a4.51,4.51,0,0,0,.52,0Z"/></g><rect class="cls-4" width="220" height="220"/></g></g></g></svg>