<svg xmlns="http://www.w3.org/2000/svg" viewBox="0 0 220 220"><defs><style>.cls-1{fill:#004463;}.cls-2{fill:#df6f14;}.cls-3{fill:#010101;}.cls-4{fill:none;}</style></defs><title>MySQL@logo</title><g id="Capa_2" data-name="Capa 2"><g id="Logos"><g id="MySQL"><g id="MySQL-2" data-name="MySQL"><path class="cls-1" d="M143.77,79.88c-.16-.1-.05-.29-.14-.41-.27-.09-.11-.36-.23-.51h0c-.26-.14-.15-.43-.25-.63h0c-.27-.13-.15-.43-.25-.63l-.4-1.11c-.21-.14-.14-.38-.22-.56l-.4-1.08c-.2-.12-.14-.35-.23-.52a.09.09,0,0,0,0-.1c-.37-.22-.38-.62-.48-1-.12-.06-.11-.18-.14-.29s-.13-.32-.24-.47l-.13-.28a3.92,3.92,0,0,1-.86-1.54.07.07,0,0,0,0-.09,3.08,3.08,0,0,1-.72-1c-.77-1.21-1.6-2.37-2.36-3.58a3.33,3.33,0,0,1-.52-1.13,2.15,2.15,0,0,1-.41-.94c-.21-.13-.14-.37-.22-.56a4.46,4.46,0,0,1-.28-1.2,2.87,2.87,0,0,1,0-1.13c.11-.22-.09-.52.15-.72a2.64,2.64,0,0,1,1.54-1.89.07.07,0,0,0,.08,0c.06-.2.25-.17.39-.23a9.81,9.81,0,0,1,1.62-.39,3.1,3.1,0,0,1,1.25,0l2.6.53c.21.1.51,0,.66.22a1.42,1.42,0,0,0,.74.27c.16.12.43,0,.52.22a.09.09,0,0,0,.11,0,1.54,1.54,0,0,1,1.13.53,6.35,6.35,0,0,0,1.51.72c.22.11.52.06.64.35a1,1,0,0,0,.5.28c.21.11.52.06.63.36,0,0,0,0,.07,0a1.13,1.13,0,0,1,.81.48h0c.3.11.66.06.87.36a15.73,15.73,0,0,0,3.62.9c.55.15,1.17-.06,1.65.36l2.47.78c.17.11.44,0,.54.22a.41.41,0,0,0,.37.15c.37.09.78.08,1,.47a2.08,2.08,0,0,0,.86.41,2,2,0,0,1,1.14.6.05.05,0,0,0,.07,0,1.16,1.16,0,0,1,.81.47s0,0,.06,0a1.48,1.48,0,0,1,.94.59s0,0,.08,0a.32.32,0,0,1,.3.21.06.06,0,0,0,.08,0,.34.34,0,0,1,.3.2.06.06,0,0,0,.08,0,.35.35,0,0,1,.29.2s0,.06.08,0a.35.35,0,0,1,.3.21s0,0,.06,0a.48.48,0,0,1,.44.32s0,0,.09,0a1.69,1.69,0,0,1,.92.7s0,.06.08.06A5.54,5.54,0,0,1,169.59,71l.12.09a4.73,4.73,0,0,1,1.39,1.12,51.17,51.17,0,0,1,4.43,4.65,1,1,0,0,1,.22.38h0a7.28,7.28,0,0,1,1.63,2.15s0,.07.05.09a5.37,5.37,0,0,1,1.17,1.59c.84,1.26,1.56,2.59,2.27,3.92a2.42,2.42,0,0,1,.27.69.06.06,0,0,0,0,.08c.21.07.18.26.22.42s0,.06,0,.08a6.87,6.87,0,0,1,1.22,2.41.43.43,0,0,0,.16.35c.28.14.3.41.34.67,0,0,0,.07,0,.08.21.08.19.27.22.44s0,0,0,.06c.2.12.13.36.24.51a1.44,1.44,0,0,0,.35.76c.23.1.21.33.27.52a.37.37,0,0,0,.15.34,2,2,0,0,1,.61,1.27.7.7,0,0,0,.22.51,3,3,0,0,1,.78,1.62c0,.1,0,.21.11.26a1,1,0,0,1,.38.76.39.39,0,0,0,.16.35c.2.08.17.27.21.43a.06.06,0,0,0,0,.08c.27.07.11.36.24.5a.71.71,0,0,0,.23.51,4,4,0,0,1,.9,1.88.7.7,0,0,0,.22.51,1.65,1.65,0,0,1,.54,1h0c.34.14.78.08,1,.48a2,2,0,0,0,1,.42c.27,0,.54,0,.68.33a.52.52,0,0,0,.37.17.86.86,0,0,1,.59.13,29.79,29.79,0,0,1,3.76,2.06,6.9,6.9,0,0,1,1.3.91.05.05,0,0,0,.07,0,16.18,16.18,0,0,1,2.77,1.79c1.44,1,2.71,2.2,4.05,3.32a11.85,11.85,0,0,1,2.17,2.41c.3.43.69.91.39,1.43a2,2,0,0,1-1.52.76c-.13,0-.28,0-.42,0h-.06l0,0a1.56,1.56,0,0,1-.92.35c-1.81.35-3.61.79-5.43,1.1a3.79,3.79,0,0,0-1.19.51c-.35.19-.18.42,0,.59a25.23,25.23,0,0,0,2.35,1.76,8.29,8.29,0,0,1,1.65,1.3s0,0,.08,0a3,3,0,0,1,1.28.87,57.05,57.05,0,0,1,4.67,4.4c.61.64,1.19,1.33,1.76,2a2.47,2.47,0,0,1,.6,1.42l-.12.19a.45.45,0,0,1-.62-.22.06.06,0,0,0-.08-.05.34.34,0,0,1-.3-.2.06.06,0,0,0-.08-.05,8.25,8.25,0,0,1-2.18-1.59s0,0-.07,0a.32.32,0,0,1-.3-.21s0,0-.08,0a2.87,2.87,0,0,1-1.3-.84s0,0-.07,0a.66.66,0,0,1-.56-.34s0,0-.06,0a.69.69,0,0,1-.57-.34l0,0h0a.72.72,0,0,1-.57-.35h0c-.3-.15-.7-.14-.87-.5h0a7.86,7.86,0,0,1-2.38-1.37h0c-.2-.13-.5-.08-.61-.37a.05.05,0,0,0-.07,0,.34.34,0,0,1-.31-.21.05.05,0,0,0-.07,0,.34.34,0,0,1-.31-.21s0,0-.07,0a.31.31,0,0,1-.3-.21s0,0-.07,0a1.12,1.12,0,0,1-.81-.57.06.06,0,0,0-.08,0,1.62,1.62,0,0,1-.93-.71s0-.05-.08-.05a6,6,0,0,1-1.63-1.22,13.26,13.26,0,0,1-2.39-2.63c-.65-1-.54-1.78.54-2.29a3.79,3.79,0,0,1,1.38-.48l.65-.26a1.23,1.23,0,0,1,.62-.23,18.11,18.11,0,0,1,3.09-.51s.06,0,.09,0c.51-.39,1.13-.08,1.68-.24l0,0,0,0a5.44,5.44,0,0,1,2.15-.33,1.9,1.9,0,0,0,.67,0c.11,0,.24.06.28-.08s-.16-.12-.24-.18a5.91,5.91,0,0,1-1.74-1.23s0,0-.08,0a.35.35,0,0,1-.3-.21.05.05,0,0,0-.07,0,.34.34,0,0,1-.3-.22.06.06,0,0,0-.07,0,.34.34,0,0,1-.31-.21h0a6.26,6.26,0,0,1-1.87-1.25h0a2.6,2.6,0,0,1-1.25-.75h0c-.26-.12-.57-.13-.78-.35l-.35-.27a15.22,15.22,0,0,1-3.13-1.62l0,0h-.06c-.25-.12-.61,0-.77-.35l0,0h-.06c-.31-.09-.67,0-.89-.36l0,0h-.05c-.32-.07-.68,0-.91-.36-.12-.09-.31,0-.41-.14-.36-.1-.76-.11-1-.49h0c-.1-.11-.32,0-.37-.22s0-.06-.08,0a4.12,4.12,0,0,1-1.78-1.52,16.8,16.8,0,0,1-2-3.16c-.74-1.4-1.4-2.84-2.08-4.27-.11-.21-.09-.44-.19-.65-.12-.06-.11-.18-.14-.29a26,26,0,0,1-1.69-3.48,79,79,0,0,0-5.35-10,37.4,37.4,0,0,0-4.13-5A38,38,0,0,0,166.39,73a1.15,1.15,0,0,1-.36-.43l-.14-.11a.53.53,0,0,1-.42-.33.07.07,0,0,0-.09,0,1.32,1.32,0,0,1-.78-.59s0,0-.07,0a1.27,1.27,0,0,1-.81-.58s0-.06-.08,0a.33.33,0,0,1-.3-.2.06.06,0,0,0-.08,0,.34.34,0,0,1-.3-.2.06.06,0,0,0-.08,0,1.58,1.58,0,0,1-.92-.59s0,0-.07,0a.68.68,0,0,1-.56-.34h0c-.3-.15-.69-.13-.87-.5h0a29.48,29.48,0,0,1-2.78-1.33,4.61,4.61,0,0,1-1.6-.79l0,0H156a4.44,4.44,0,0,1-1.79-.61l0,0h0c-.33-.13-.75.09-1-.23l-.05,0h0c-.56-.09-1.14.06-1.71,0a1.32,1.32,0,0,1-.7-.19l0,0,0,0a2.48,2.48,0,0,1-1.67-.47l0,0h-.05c-.16-.11-.43,0-.53-.22a1.83,1.83,0,0,1-.91-.4c-.13-.11-.38,0-.44-.28l0,0,0,0a1.45,1.45,0,0,1-.91-.58,0,0,0,0,0-.06,0,.66.66,0,0,1-.57-.34h0c-.17-.1-.41-.08-.55-.24l-.3-.24a10.88,10.88,0,0,1-2.29-1.14l-1.21-.4c-.54,0-1.07-.11-1.61-.07a1.07,1.07,0,0,0-1,1.65,16.83,16.83,0,0,0,1.71,3,39.69,39.69,0,0,1,3.82,6.78,6,6,0,0,1,.8,2c0,.1,0,.2.08.26a4.39,4.39,0,0,1,.79,1.89.06.06,0,0,0,0,.09c.2.13.13.37.22.54a.06.06,0,0,0,0,.09c.27.1.11.37.22.53a.1.1,0,0,0,0,.1,2.71,2.71,0,0,1,.68,1.24,15.64,15.64,0,0,0,3,4.92c1.22,1.27.87,3.76.27,4.93,0,0-.06,0-.1.06s-.09.22-.09.34.05.6-.24.8h0c-.14.32.08.73-.24,1s-.12.56-.14.84,0,.46-.11.66l0,.23a5.67,5.67,0,0,0,0,1.54,12.45,12.45,0,0,0-.15,2.79c.15,1.07.13,2.15.26,3.22,0,.35-.11.7,0,1,0,0,0,.06,0,.08.36.38.11.88.23,1.3l0,.2c.37.32.25.79.34,1.19a.5.5,0,0,0,.15.45,29.72,29.72,0,0,0,1.93,3c0,.08.14,0,.06,0s0,0,0,0a3.1,3.1,0,0,1,.25-1.62,2,2,0,0,1,.17-.51c.07-.24-.07-.52.14-.74.14-.41-.07-.89.25-1.27a.59.59,0,0,1,.12-.48,3,3,0,0,1,.49-1.65.08.08,0,0,0,0-.1c.11-.21,0-.5.22-.66a.08.08,0,0,0,0-.1,8.71,8.71,0,0,1,1.23-2.89c.31-.47.64-.92.93-1.41.09-.16.19-.39.45-.19l0,0a2,2,0,0,1,.56,1,9.07,9.07,0,0,1,.85,2.1,1,1,0,0,0,.27.62,2.42,2.42,0,0,1,.58,1c1.2,2.47,2.54,4.86,4,7.21a62.6,62.6,0,0,0,3.78,5.57c.77,1,1.68,1.9,2.46,2.9.09.12.2.22.18.38-.4.37-.61.06-.82-.23a.06.06,0,0,0-.08-.05.52.52,0,0,1-.42-.32.08.08,0,0,0-.09,0,5.93,5.93,0,0,1-1.43-1.1,58.35,58.35,0,0,1-6.23-6.15.84.84,0,0,1-.13-.29h0a8.38,8.38,0,0,1-2.28-3.33c-.12-.06-.11-.19-.14-.29-.24-.12-.31-.56-.71-.38-.18.16-.16.37-.17.58s0,.59-.23.8a9.24,9.24,0,0,0-.64,2,3.1,3.1,0,0,1-.7,1.63,1.3,1.3,0,0,1-.92.52l-.67.15c-.24.09-.51,0-.76.09-.63-.1-1.31.16-1.9-.26a.34.34,0,0,1-.31-.2.08.08,0,0,0-.09,0,2.31,2.31,0,0,1-1.14-1.26h0a4.88,4.88,0,0,1-1.17-2l-.37-.7c-.09-.12,0-.31-.11-.43h0c-.27-.15-.15-.44-.24-.66a16,16,0,0,1-.9-3.6,1.33,1.33,0,0,1-.2-1,1.38,1.38,0,0,0,0-.67l0-.58c-.13-.51,0-1-.1-1.56a2.64,2.64,0,0,0,0-1c.15-.56,0-1.13.1-1.69l0-.46c.12-.25,0-.54.1-.8s0-.57,0-.86h0c.16-.72.29-1.45.5-2.15.3-1,.51-2,.75-3,.13-.25,0-.53.1-.78a3.39,3.39,0,0,0-.22-.94c-.42-.12-.58-.5-.8-.82a5.9,5.9,0,0,1-1-1.8s0-.06,0-.08a3.54,3.54,0,0,1-.87-1.71,1.27,1.27,0,0,1-.26-.55A2,2,0,0,1,143.77,79.88Z"/><path class="cls-1" d="M24.44,127.12c0,.1,0,.21.1.26.41.27.41.73.52,1.13a.41.41,0,0,0,.15.36c.27.08.11.36.23.51s0,.2.1.26c.36.18.32.55.41.87a.38.38,0,0,0,.14.36c.27.09.1.37.23.51a.4.4,0,0,0,.15.37c.33.16.23.51.35.77h0c.34.2.27.58.39.88a.38.38,0,0,0,.14.36c.27.09.11.36.23.51h0c.31.21.31.56.38.88a.38.38,0,0,0,.15.36c.26.09.1.37.23.52a.38.38,0,0,0,.14.36c.27.09.11.37.23.51a.4.4,0,0,0,.15.37c.27.09.1.36.23.51a.41.41,0,0,0,.15.37c.33.16.23.52.35.77a.07.07,0,0,0,0,.1c.33.17.22.52.34.78a.1.1,0,0,0,0,.1c.33.16.23.52.35.77a.39.39,0,0,0,.15.36c.26.09.11.36.23.51h0a1.92,1.92,0,0,1,.5,1.14.39.39,0,0,0,.15.36c.26.08.1.36.23.5s0,.21.1.27a1.43,1.43,0,0,1,.51,1c0,.12,0,.27.13.33.47.31.73,0,1-.35a15.48,15.48,0,0,0,1.2-2.09,4.12,4.12,0,0,1,.61-1.08l.26-.53c.15-.44.18-.93.61-1.23.16-.29.16-.65.39-.91s.09-.63.37-.84c0-.1,0-.22.14-.28.07-.21,0-.47.21-.63l.43-.83a1.83,1.83,0,0,1,.48-1c0-.1,0-.23.13-.29.09-.25,0-.57.36-.71a1.36,1.36,0,0,1,.27-.67c.07-.2,0-.46.21-.62l.43-.82a1.83,1.83,0,0,1,.48-1c0-.1,0-.22.13-.29.09-.25,0-.57.36-.71a1.36,1.36,0,0,1,.27-.67c.09-.25,0-.57.35-.71a1.64,1.64,0,0,1,.27-.67,2.9,2.9,0,0,1,.59-1.3l.27-.5a8.62,8.62,0,0,1,1.38-2.8l.15-.26a3.09,3.09,0,0,1,1.9-1.49l.41-.24c.12-.13.34,0,.47-.13a.08.08,0,0,0,.1,0c.19-.32.54-.08.78-.23l.86-.15c.21-.1.46,0,.67-.09h1.54c.25.12.54,0,.79.1a2.19,2.19,0,0,0,.87.15c.38.12.85,0,1.14.36a.38.38,0,0,0,.36.14c.22.11.53.06.65.35,0,0,0,0,.08,0a.44.44,0,0,1,.34.19l.58.57a1.41,1.41,0,0,1,.62,1h0c.44.37.05.89.24,1.3l0,.33c.13.34,0,.71.1,1.05l0,.58c.13.47,0,1,.1,1.43l0,.82a17.21,17.21,0,0,1,.06,2,1.9,1.9,0,0,0,0,.67,4.31,4.31,0,0,0,0,1.19,1.44,1.44,0,0,1,0,.62v17.58c0,.67,0,.67-.68.67H49.86c-.19,0-.42.11-.57-.11l0-5.59a1.74,1.74,0,0,1,0-.68V135.38a1.74,1.74,0,0,0-.05-.68,7.5,7.5,0,0,0,0-1.57,15.14,15.14,0,0,1,0-2,1.91,1.91,0,0,0-.06-.67,1.47,1.47,0,0,0,0-.69c-.14-.47,0-1-.1-1.43,0-.13.07-.32-.13-.33s-.12.21-.16.33,0,.42-.22.55a3.59,3.59,0,0,0-.51,1.25c-.07.32-.07.66-.38.88h0c-.1.26,0,.61-.35.76a.1.1,0,0,0,0,.1c-.12.26,0,.62-.34.78a.37.37,0,0,0-.15.36c-.11.26,0,.61-.35.77a.92.92,0,0,0-.28.62c-.08.31-.06.68-.4.87-.13.05-.1.15-.1.26s0,.6-.35.75c-.1.11-.19.21-.15.37a2.3,2.3,0,0,1-.66,1.37.74.74,0,0,0-.22.52c-.1.41-.14.85-.53,1.11-.12.05-.1.16-.1.26-.13.35-.07.79-.48,1A3.42,3.42,0,0,0,42.5,142a3.12,3.12,0,0,1-.78,1.62.67.67,0,0,0-.22.51,5.5,5.5,0,0,1-1.11,2.26.4.4,0,0,0-.15.36c-.06.18-.05.4-.25.51h0a18.5,18.5,0,0,1-1.76,3.5.71.71,0,0,1-.55.37h0l0,0c-.16.34-.52.24-.79.35l-.59.15c-.28.35-.7.06-1,.23L35,152c-.25.12-.53,0-.78.1l-.34,0a18.46,18.46,0,0,1-2.88,0,5.23,5.23,0,0,1-1.92-.4,1.32,1.32,0,0,1-.76-.59c-.82-1.35-1.55-2.74-2.24-4.16-.06-.14,0-.29-.09-.42-1-2.13-2-4.25-3-6.39-1.82-4-3.62-7.93-5.43-11.89a1.45,1.45,0,0,0-.37-.54v.59c0,7.7,0,15.41,0,23.12,0,.55-.13.7-.68.69-2,0-4,0-6,0-.33,0-.47-.06-.47-.44,0-8.19-.08-16.38.11-24.56a17.69,17.69,0,0,1,.28-2.9,2.47,2.47,0,0,1,1.19-1.64,10,10,0,0,1,8.83-1h.12c.23.09.53,0,.65.35a.07.07,0,0,0,.08,0,.53.53,0,0,1,.41.28l.22.21a2,2,0,0,1,1,1.4.38.38,0,0,0,.16.35,2.64,2.64,0,0,1,.72,1.51,1,1,0,0,0,.28.62C24.43,126.51,24.33,126.86,24.44,127.12Z"/><path class="cls-1" d="M76.47,162l-1.34,0c-.76.13-1.54,0-2.31.1l-3.33,0a4.56,4.56,0,0,1-1.38,0l-2.71,0c-.47-.14-1,0-1.43-.09l-.57,0c-.22-.1-.47,0-.68-.1l-.21,0c-.42,0-.74-.16-.79-.64-.22-.21,0-.5-.15-.73s0-.54-.1-.8l0,0,0,0a4.13,4.13,0,0,1,0-2.53,1.36,1.36,0,0,1,.9-.15h7.31a4.15,4.15,0,0,0,.93,0c2,0,4-.08,6-.1a34.68,34.68,0,0,0,6.35-.46c.41-.08.8-.22,1.2-.33a1.92,1.92,0,0,0,1.35-1.89c0-.35.12-.7.14-1.05s-.1-.69-.62-.66c-1,.05-2.08-.09-3.12-.09-1.67,0-3.34-.11-5-.16a71.73,71.73,0,0,1-8.53-.67,1.14,1.14,0,0,1-.74-.28.53.53,0,0,1-.48-.12c-.33-.13-.74.08-1-.26l-.34-.12a2.88,2.88,0,0,1-1.54-.63l-.08-.13a.34.34,0,0,1-.31-.2l-.25-.15A3.29,3.29,0,0,1,62,147.12l0-.19c-.12-.2,0-.45-.1-.65l0-.22c-.12-.27,0-.56-.11-.82l0-.44c-.13-.47,0-1-.1-1.42l0-.84c-.13-.81,0-1.63-.1-2.44,0-2.59,0-5.17,0-7.76a4.53,4.53,0,0,1,.1-1.72,7.76,7.76,0,0,1,1.67-.05H68c.21,0,.42-.07.61.07h0c.15.21.07.44.07.66,0,3.26,0,6.51,0,9.76a1.57,1.57,0,0,0,0,.68,7.92,7.92,0,0,0,0,1.82c.14.46,0,.95.1,1.42a2.86,2.86,0,0,0,.28,1.58,7.36,7.36,0,0,1,.6.78c.22.19.47.11.72.12s.62,0,.92.1l.59,0a1.15,1.15,0,0,0,.55.05H85c.76,0,.76,0,.76-.78V131.29c0-.22-.09-.46.09-.66l0,0c.09-.12.22-.08.34-.08H92.6c.12,0,.25,0,.34.08l0,0c.15.14.09.32.09.48v17.4a.8.8,0,0,1-.05.43l0,3.58c-.15.6,0,1.21-.1,1.81l0,.57c-.11.26,0,.55-.1.81a1.7,1.7,0,0,0-.15.83A3.32,3.32,0,0,1,90.65,159s-.07,0-.08,0a.31.31,0,0,1-.31.2.42.42,0,0,0-.32.18,3.39,3.39,0,0,1-1.78.84H88.1l0,0c-.1.27-.37.12-.54.22h0l0,0c-.42.43-1,.39-1.51.49l-2,.39c-.21.12-.46,0-.66.1l-.22,0c-.3.14-.63,0-.93.11l-.45,0c-.34.12-.71,0-1,.09l-.46,0c-.47.13-1,0-1.44.1l-.81,0C77.43,162,76.94,161.84,76.47,162Z"/><path class="cls-2" d="M110.41,138.55l-.6,0c-.42-.14-.87,0-1.29-.1l-.47,0c-.33-.14-.7,0-1-.1l-.35,0c-.24-.13-.53,0-.78-.1a11.11,11.11,0,0,1-3.23-.65c-.39-.07-.81-.08-1-.48a.05.05,0,0,0-.07,0,.34.34,0,0,1-.31-.21.05.05,0,0,0-.07,0,1.25,1.25,0,0,1-.72-.51l-.34-.35a2.42,2.42,0,0,1-.86-1.16.08.08,0,0,0,0-.09c-.17-.06-.12-.25-.23-.34a1.23,1.23,0,0,1-.26-.54c-.25-.16-.13-.45-.23-.66a3.53,3.53,0,0,1-.26-1.11c-.13-.21,0-.46-.11-.67l0-.58a2.11,2.11,0,0,1,0-1l0-.59c.11-.21,0-.46.1-.67a11.26,11.26,0,0,1,.64-2.68,1.71,1.71,0,0,1,.62-1.09,1.48,1.48,0,0,1,.63-.53.51.51,0,0,1,.42-.33.06.06,0,0,0,.08,0c.05-.17.25-.12.34-.23l.29-.15c.07-.19.26-.16.4-.22l1.61-.78c.1-.26.37-.11.54-.22l2-.52c.2-.13.45,0,.65-.11l.22,0c.34-.13.71,0,1.05-.1l.59,0c.68-.13,1.37,0,2-.1l4.36,0a1.29,1.29,0,0,1,.55,0c4.06,0,8.11,0,12.17,0a.65.65,0,0,1,.66.68c0,1,0,2.07,0,3.11,0,.39-.12.51-.5.5a4,4,0,0,0-1.24,0l-1.34,0a1,1,0,0,1-.67.17c-1.16,0-2.32-.07-3.48.06-.66,0-1.33,0-2,.06-.92,0-1.85-.07-2.77.06-.45,0-.91.05-1.37.08a11.83,11.83,0,0,0-1.88,0,3.84,3.84,0,0,1-.76.08,4.52,4.52,0,0,0-1.16,0,38.8,38.8,0,0,0-4.29.47,1.15,1.15,0,0,0-.9.68,6.82,6.82,0,0,0-.4,5,1.73,1.73,0,0,0,1.37,1.23,35.07,35.07,0,0,0,5.1.57,8,8,0,0,0,1.38.06c.25,0,.5.06.75.06a5.79,5.79,0,0,0,1.25.06c.21,0,.42.06.62.06a3.42,3.42,0,0,0,1,.07,4.26,4.26,0,0,1,.5.06,2.84,2.84,0,0,0,.77.08c.13,0,.26,0,.39,0a2.22,2.22,0,0,0,.68.07c.76.11,1.51.26,2.25.41a1.52,1.52,0,0,1,.84.36,18.72,18.72,0,0,1,2.59,1.05.31.31,0,0,1,.29.23c0,.13.13.13.23.14a.64.64,0,0,1,.51.48l.12.15a2.32,2.32,0,0,1,.9,1.62l.4,2c.12.46,0,.94.09,1.4v.63c-.16.61,0,1.24-.1,1.85l0,.47c-.14.3,0,.62-.1.91l-.35,1.46a1.74,1.74,0,0,1-.83,1.55l-.28.27a.63.63,0,0,1-.48.35s-.06,0-.08,0c-.06.19-.27.13-.38.23l-.88.4c-.11.26-.38.12-.56.21a29.62,29.62,0,0,1-3.08.66c-.21.11-.46,0-.66.1l-.35,0c-.25.12-.54,0-.8.1l-.45,0c-.38.13-.79,0-1.17.1l-1,0c-.64.13-1.29-.05-1.93.09l-2.72,0a1.32,1.32,0,0,1-.56,0c-4,0-8,0-12,0-.53,0-.67-.15-.65-.66,0-1.07,0-2.14,0-3.21,0-.45.15-.54.57-.54q6.15,0,12.3,0a1.57,1.57,0,0,0,.68,0l1.09,0c.63-.14,1.28.05,1.91-.1l.47,0c.25-.12.53,0,.77-.09h0c.38-.34.88-.16,1.31-.32s.68-.18,1-.27a3,3,0,0,0,2.42-2.68,8.07,8.07,0,0,0,0-2.73A2.05,2.05,0,0,0,119.3,140a1,1,0,0,1-.47-.3h0c-1-.15-1.91-.31-2.86-.5a2.22,2.22,0,0,0-.68-.07,4.1,4.1,0,0,0-.49-.06c-.25-.09-.54,0-.76-.22l-.57,0c-.39-.13-.8,0-1.18-.1l-.6,0C111.27,138.5,110.83,138.69,110.41,138.55Z"/><path class="cls-2" d="M175.75,151.45a9.51,9.51,0,0,1-2.9-.86,3.42,3.42,0,0,1-1.15-.52c-.1-.1-.29-.06-.34-.23s0-.05-.08,0a.65.65,0,0,1-.5-.38l-.14-.12a1.81,1.81,0,0,1-.9-1.25,6.61,6.61,0,0,1-.65-2.5c-.11-.21,0-.45-.1-.65l0-.35c-.13-.34,0-.71-.1-1.05l0-.84c-.13-.72,0-1.45-.1-2.18,0-2.11,0-4.23,0-6.34a1.06,1.06,0,0,1-.05-.5V121.88c0-.18-.07-.37.09-.53l0,0c.18-.17.4-.08.6-.08h5.14c.72,0,.72,0,.72.7v11.15a1.57,1.57,0,0,0,.05.68c-.06,1.4,0,2.81,0,4.21a8.05,8.05,0,0,1,.16,1.89,12.17,12.17,0,0,1,0,2.56.8.8,0,0,0,.05.48.08.08,0,0,0,0,.1,14.61,14.61,0,0,1,.49,2.54.08.08,0,0,0,0,.09,4.58,4.58,0,0,1,.87,1s0,0,.07,0,.35,0,.43.21.39.16.6.16c1.37.11,2.73.24,4.09.29,3.18.13,6.37.2,9.55.25,1.94,0,3.87.16,5.81.15.66,0,.82.16.84.81,0,1,0,1.92,0,2.88a1,1,0,0,1-.18.65,1.22,1.22,0,0,1-.79.15c-1.67,0-3.34,0-5,0-.7,0-1.41-.08-2.11-.15l-6.11,0c-.85-.14-1.71,0-2.55-.09l-1.09,0c-.43-.14-.87,0-1.3-.1l-.58,0c-.25-.11-.54,0-.8-.09l-.46,0c-.21-.12-.46,0-.67-.1l-.22,0C176.2,151.43,176,151.59,175.75,151.45Z"/><path class="cls-3" d="M151.41,70.27l.19,0c.26.13.61-.1.82.22a.08.08,0,0,0,.1,0,2.42,2.42,0,0,1,1.77,2.28v.68a2.41,2.41,0,0,1-.39,1.29.72.72,0,0,1-1.13.11,4.22,4.22,0,0,1-.67-.9c-.58-.89-1.12-1.8-1.62-2.74-.15-.28-.44-.59-.16-1l.44-.13C151,70.29,151.21,70.15,151.41,70.27Z"/><path class="cls-2" d="M166.73,156.07a1.43,1.43,0,0,0-.78-.71h0c-.32-.48-.84-.78-1.18-1.24s-.76-.64-1.14-1c-.68-.6-1.29-1.28-2-1.82-.32-.23-.37-.43-.06-.74a20.32,20.32,0,0,0,2.08-2.07,1.58,1.58,0,0,0,.48-1.46c-.06-.19.1-.34.13-.51s0-.53.1-.78l0-.47c.13-.55,0-1.12.1-1.68l0-3.71q.11-2.82,0-5.64l0-3.85c-.14-.59,0-1.21-.1-1.8l0-.46c-.12-.25,0-.54-.1-.79l-.26-1.13c-.13-.15,0-.43-.23-.51,0,0,0,0,0-.07a2.55,2.55,0,0,0-1.26-1.42l-.22-.18a.56.56,0,0,0-.4-.32c-.1,0-.21,0-.24-.13s-.25-.17-.36-.26l-.26-.15a1.87,1.87,0,0,0-1.28-.6.08.08,0,0,1-.1,0c-.14-.27-.44-.11-.64-.23l-2.25-.51c-.2-.13-.45,0-.65-.11l-.22,0c-.26-.13-.54,0-.79-.11l-.34,0c-.34-.13-.71,0-1.05-.1l-.84,0c-.55-.13-1.12,0-1.67-.1h-6.43c-.55.15-1.13,0-1.68.1l-.84,0c-.29.13-.62,0-.91.1l-.36,0c-.24.14-.53,0-.78.11a25.44,25.44,0,0,0-3.24.77c-.16.12-.43,0-.52.22l-.36.16c-.14,0-.33,0-.4.22a.06.06,0,0,1-.07,0,.32.32,0,0,0-.3.2.09.09,0,0,1-.09.05.33.33,0,0,0-.29.21l-.21.16a4.85,4.85,0,0,0-1.78,1.87,1.44,1.44,0,0,0-.63,1,.09.09,0,0,1,0,.1c-.26.11-.1.38-.21.54s0,.5-.15.72,0,.45-.1.66l0,.47c-.11.35,0,.71-.09,1l0,1.09a1.69,1.69,0,0,0-.05.67v7.92a1.73,1.73,0,0,0,.05.68c0,.41,0,.82,0,1.22.15.42,0,.87.1,1.29l0,.6c.13.25,0,.54.1.78l0,.34c.11.21,0,.46.1.67s0,.57.15.83-.1.6.22.8a4,4,0,0,0,.4,1.11,2.22,2.22,0,0,0,.88,1.39,1.92,1.92,0,0,0,1.17,1,.06.06,0,0,1,.07,0c.06.19.25.16.39.23a8.39,8.39,0,0,0,3,.9c.2.1.45,0,.65.1l.35,0c.21.11.45,0,.66.1l.72,0c.38.12.78,0,1.16.1l1.35,0c1.23.1,2.46,0,3.69,0a27.44,27.44,0,0,1,2.87.05,5.46,5.46,0,0,1,1.34,0c.43.14.88,0,1.3.1s.77,0,1.1.26h0c.31-.06.56.15.86.16.06.25.33.11.46.24l.29.14a.32.32,0,0,0,.29.21s.07,0,.08.05a.4.4,0,0,0,.29.21l.15.11a.63.63,0,0,0,.46.38,1.29,1.29,0,0,0,.6.53l.26.15a.51.51,0,0,0,.42.33.06.06,0,0,1,.08,0c.13.33.45.37.72.48a1.34,1.34,0,0,0,.66.28c.14.3.46.06.65.22s.51,0,.74.14.54,0,.8.1l.71,0c1.57.12,3.14,0,4.71.05a.17.17,0,0,0,.19-.19Zm-8.91-11.16c0,.42-.12.83-.19,1.24s-.32.63-.79.43a9.64,9.64,0,0,1-1.55-.93,5.2,5.2,0,0,1-.69-.55,8.43,8.43,0,0,0-6.48-2.29c-1.27,0-2.53,0-3.94,0l4.83,5c-2.43-.08-4.7.18-6.95-.26a3.34,3.34,0,0,1-2.68-2.44,16.42,16.42,0,0,1-.61-4.83c-.05-3.09-.15-6.18.09-9.27a8.72,8.72,0,0,1,.18-1.36c.46-2.09,1.34-2.92,3.87-3.11a64.72,64.72,0,0,1,12.83.19l.18,0c1.25.24,1.35.33,1.58,1.58a35.49,35.49,0,0,1,.4,4.49A97.37,97.37,0,0,1,157.82,144.91Z"/></g><rect class="cls-4" width="220" height="220"/></g></g></g></svg>