<svg xmlns="http://www.w3.org/2000/svg" viewBox="0 0 220 220"><defs><style>.cls-1{fill:#11ccb5;}.cls-2{fill:#1ea3bb;}.cls-3{fill:#17b9b8;}.cls-4{fill:#19b4b8;}.cls-5{fill:#16bcb7;}.cls-6{fill:#18b7b8;}.cls-7{fill:#1ab1b9;}.cls-8{fill:#16bdb7;}.cls-9{fill:#13c7b6;}.cls-10{fill:#1da7ba;}.cls-11{fill:#1badb9;}.cls-12{fill:#1ab0b9;}.cls-13{fill:#15c0b7;}.cls-14{fill:#1da6ba;}.cls-15{fill:#14c4b6;}.cls-16{fill:#1caaba;}.cls-17{fill:#14c3b6;}.cls-18{fill:#15c1b7;}.cls-19{fill:none;}</style></defs><title>Tailwindcss@logo</title><g id="Capa_2" data-name="Capa 2"><g id="Logos"><g id="Tailwindcss"><g id="Tailwindcss-2" data-name="Tailwindcss"><path class="cls-1" d="M191,84.81a35.26,35.26,0,0,0,13.7-8.69A60.4,60.4,0,0,0,209.2,71c.21-.26.31-.71.8-.62v.2a6.53,6.53,0,0,0-.79,2.31c-2.26,7.73-5.52,15-10.73,21.21a40.67,40.67,0,0,1-14.74,11.21,32.79,32.79,0,0,1-4.92,1.87c-.86.08-.54-.44-.36-.78.37-.75.83-1.44,1.24-2.16,3.4-5.86,6.77-11.74,10.17-17.6A6.23,6.23,0,0,1,191,84.81Z"/><path class="cls-2" d="M27.22,135.8a37.19,37.19,0,0,0-11.87,8A58.43,58.43,0,0,0,10.8,149c-.21.26-.31.7-.8.62v-.2a6.53,6.53,0,0,0,.79-2.31c2.27-7.77,5.55-15,10.8-21.29A41.56,41.56,0,0,1,39,113.49a1.69,1.69,0,0,1,.39-.08c.19.5-.09.9-.32,1.3-3.75,6.58-7.58,13.13-11.35,19.71A2.59,2.59,0,0,0,27.22,135.8Z"/><path class="cls-3" d="M138.18,56.81a50.46,50.46,0,0,1,9.06,6.34,18.93,18.93,0,0,1,2.42,2.23c-2,3.24-3.81,6.55-5.7,9.83q-7.26,12.57-14.52,25.15c-.2.35-.23.76-.45,1.09A64.07,64.07,0,0,1,117.6,92c-.29-.48.05-.84.25-1.19q7.2-12.5,14.41-25l4.88-8.46C137.37,57,137.55,56.47,138.18,56.81Z"/><path class="cls-4" d="M138.18,56.81c-.35-.05-.53.13-.7.43q-3.87,6.76-7.77,13.53c-2,3.53-4.1,7-6.14,10.57q-2.86,4.95-5.69,9.92a4.35,4.35,0,0,0-.28.74c-1.9-1.9-3.8-3.8-5.72-5.67-1.68-1.65-3.4-3.26-5.1-4.88-.14-.46.19-.76.38-1.09,5.38-9.2,10.66-18.48,16-27.71a6,6,0,0,1,.64-1.23,41.09,41.09,0,0,1,9.4,2.89A29,29,0,0,1,138.18,56.81Z"/><path class="cls-5" d="M101.14,169.41l-.34,0c-.39-.23-.84,0-1.23-.18a46.5,46.5,0,0,1-11.3-2.91c-.64-.24-1.26-.55-1.9-.83-.26-.47,0-.84.24-1.2,3.5-6,7-12,10.44-18.08,2.65-4.58,5.27-9.18,8-13.75.22-.38.37-.89,1-.83,2.33,2.16,4.45,4.56,6.91,6.58a27.77,27.77,0,0,0,4.5,3.49c.26.4,0,.69-.22,1-3.74,6.38-7.36,12.82-11.1,19.2-1.33,2.27-2.63,4.56-3.93,6.84C101.94,169.07,101.8,169.64,101.14,169.41Z"/><path class="cls-6" d="M106,131.6a8.52,8.52,0,0,0-1.82,2.7c-2.54,4.31-5,8.66-7.52,13-2.11,3.68-4.21,7.37-6.33,11-1.15,2-2.34,4-3.5,6a9.74,9.74,0,0,0-.45,1.1,46.27,46.27,0,0,1-9.69-5.52c-.51-.36-1-.76-1.49-1.14-.12-.37.13-.64.29-.91,2.35-4,4.65-8.09,7-12.12,4.21-7.3,8.46-14.58,12.64-21.89.31-.54.5-1.17,1.11-1.5a86.09,86.09,0,0,1,8.14,7.49C104.91,130.43,105.44,131,106,131.6Z"/><path class="cls-7" d="M68,152.42l-9-9c.7-1.44,1.56-2.78,2.36-4.16,3.26-5.62,6.49-11.25,9.74-16.88,1.78-3.08,3.58-6.15,5.33-9.26a2.79,2.79,0,0,1,.62-.9A39.55,39.55,0,0,1,88.37,117a5.79,5.79,0,0,1-1.13,2.19q-7.47,13-14.94,25.94c-1.3,2.24-2.61,4.48-3.88,6.75A1.12,1.12,0,0,1,68,152.42Z"/><path class="cls-8" d="M129,101.45a1,1,0,0,1,.1-1q5.66-9.78,11.29-19.57,4.11-7.15,8.26-14.3c.26-.45.48-1,1-1.18,2.81,2.44,5.38,5.13,7.94,7.82.12.34-.1.57-.25.83-5.64,9.62-11.12,19.33-16.75,29-.52.9-1,1.82-1.55,2.68-.16.25-.24.67-.7.56A40.33,40.33,0,0,1,129,101.45Z"/><path class="cls-9" d="M191,84.81a43.35,43.35,0,0,1-3.17,5.84c-2.2,3.9-4.44,7.77-6.68,11.65-.79,1.37-1.63,2.73-2.42,4.11-.13.23-.66.61.08.8a37.11,37.11,0,0,1-7.5,1.88,61.53,61.53,0,0,1-12.5.87,8.47,8.47,0,0,1,1.36-2.74c4.17-7.23,8.37-14.45,12.5-21.7a2.16,2.16,0,0,1,.73-.93A40.18,40.18,0,0,0,181.54,86,31.17,31.17,0,0,0,191,84.81Z"/><path class="cls-10" d="M83.6,74.17c-10.17,1.52-17.3,7.66-23.4,15.41a53.14,53.14,0,0,1,2.21-7.48A50.9,50.9,0,0,1,74.67,62.46a42.91,42.91,0,0,1,21.14-11c.65.38.21.83,0,1.2C95,54.32,94,55.91,93.08,57.52c-2.84,4.89-5.61,9.83-8.5,14.7C84.21,72.85,84,73.57,83.6,74.17Z"/><path class="cls-11" d="M83.6,74.17a3.81,3.81,0,0,1,.84-2.2c2.38-4.18,4.82-8.34,7.23-12.5q2-3.49,4-7c.17-.3.44-.62.14-1a44.9,44.9,0,0,1,9.73-1.27A13.7,13.7,0,0,0,107.2,50l5.19.08c.13.44-.14.76-.33,1.1-4.32,7.53-8.64,15.07-13,22.56-.29.49-.49,1-.82,1.49-.22.3-.43.62-.89.42a41.7,41.7,0,0,0-7.27-1.5A38.7,38.7,0,0,0,83.6,74.17Z"/><path class="cls-12" d="M97.33,75.63c.45,0,.61-.4.78-.7,2.18-3.76,4.32-7.55,6.49-11.32s4.28-7.42,6.42-11.13c.46-.8.91-1.62,1.37-2.42l.21-.08a67.83,67.83,0,0,1,10.34,1.21c.29.06.57.15.86.23.12,1-.59,1.6-1,2.33-3.63,6.35-7.31,12.68-11,19l-5,8.68c-1.22-.91-2.43-1.85-3.67-2.73A33.06,33.06,0,0,0,97.33,75.63Z"/><path class="cls-11" d="M77,112.22c0,.63-.42,1-.69,1.51-2.26,4-4.57,7.94-6.86,11.9l-6.69,11.65c-1,1.78-2,3.56-3.11,5.33-.18.3-.31.68-.7.81a53.54,53.54,0,0,0-8-6c-.24-.32,0-.57.13-.82,3.9-6.73,7.76-13.49,11.66-20.23,1-1.73,2-3.44,3-5.2.19-.36.31-.84.89-.76A43.76,43.76,0,0,1,77,112.22Z"/><path class="cls-13" d="M101.14,169.41c.72-.18.84-.9,1.14-1.41q4.44-7.6,8.83-15.25,3.09-5.35,6.16-10.71a2.32,2.32,0,0,0,.13-.37,28.87,28.87,0,0,0,11.06,4.1c-2.5,2.66-3.85,6-5.7,9.1-2.71,4.51-5.26,9.11-7.93,13.65-.23.4-.52.8-.21,1.29a8.56,8.56,0,0,1-2,.21h-5.4A47.28,47.28,0,0,1,101.14,169.41Z"/><path class="cls-14" d="M27.22,135.8c-.66-.29-.16-.7,0-.94,1.5-2.66,3.05-5.29,4.58-7.93l6.64-11.57a9.89,9.89,0,0,0,1-2,44.69,44.69,0,0,1,12-2.83c.47-.21,1,.06,1.45-.17l.53,0c.52-.08,1.18-.32,1.49.12s-.21,1-.47,1.43Q48.14,122.68,42,133.45c-.18.31-.23.8-.77.76l-.39,0c-.47-.2-1,0-1.46-.15A31.58,31.58,0,0,0,27.22,135.8Z"/><path class="cls-15" d="M114.62,169.81c-.65,0-.62-.3-.36-.74q1.24-2.15,2.48-4.31c2.24-3.88,4.46-7.77,6.7-11.65,1.22-2.12,2.45-4.25,3.7-6.36a2.67,2.67,0,0,1,1.32-1,31.52,31.52,0,0,0,9.2-.19c1.32-.27,2.63-.63,3.94-1,.4.48.06.87-.16,1.27-2.12,3.8-4.33,7.54-6.49,11.31q-2.46,4.28-4.93,8.54a6,6,0,0,0-.56,1.27,44.12,44.12,0,0,1-12.22,2.58,3.07,3.07,0,0,1-1.75,0,.78.78,0,0,0-.88.24Z"/><path class="cls-9" d="M129.46,167c-.31-.49,0-.88.26-1.25,1.82-3.17,3.66-6.32,5.49-9.49q3.14-5.43,6.26-10.88a1.48,1.48,0,0,0,.13-.77c7.58-2.71,13.23-7.89,18-14.14.24.12.16.31.13.43-2.11,7.91-5.17,15.37-10.22,21.91a39.05,39.05,0,0,1-9.3,8.84A43.45,43.45,0,0,1,129.46,167Z"/><path class="cls-16" d="M41.18,134.21c1.4-2.4,2.82-4.79,4.21-7.19,1.94-3.36,3.85-6.73,5.78-10.08,1.06-1.84,2.14-3.66,3.21-5.49.54-.94.5-1-.55-1l-.5,0a12.68,12.68,0,0,1,3.24-.31,71.82,71.82,0,0,1,9.62.17,2.06,2.06,0,0,1,.47.13c-.82.6-1,1.6-1.52,2.41-2.46,4.14-4.86,8.31-7.26,12.49q-3,5.22-5.94,10.48a6.18,6.18,0,0,0-.94,1.63A30.72,30.72,0,0,0,41.18,134.21Z"/><path class="cls-17" d="M173.4,84.59c-1.2,2.44-2.63,4.74-4,7.09-2.13,3.7-4.28,7.4-6.41,11.1-1.33,2.32-2.65,4.65-4,7-.05.08-.15.13-.22.2a46.54,46.54,0,0,1-8.82-.73c-.32-.59-.84,0-1.22-.2h0c-.29-.45,0-.82.17-1.2,4.49-7.77,8.94-15.55,13.46-23.3.67-1.15,1.3-2.32,2-3.45.23-.36.39-.78.83-1A34.49,34.49,0,0,0,173.4,84.59Z"/><path class="cls-4" d="M96.21,122.38c-2,3.5-4,7-6,10.48Q86.7,139,83.15,145.1l-6.33,11c-.53.92-1.08,1.83-1.63,2.74a43.91,43.91,0,0,1-4.86-4.18c1.62-2.36,2.93-4.91,4.36-7.38,3.8-6.57,7.62-13.12,11.38-19.7,1.47-2.57,3-5.12,4.44-7.69.22-.4.39-.86.88-1A32.31,32.31,0,0,1,96.21,122.38Z"/><path class="cls-13" d="M138.35,106.23a54,54,0,0,0,3.21-5.37c2.2-3.72,4.33-7.47,6.48-11.21s4.26-7.43,6.41-11.14c1-1.78,2-3.61,3.15-5.31l4.76,4.61c-1.52,2.7-3.1,5.36-4.63,8-4,7-8,13.89-12,20.84-.3.54-.5,1.18-1.11,1.5A29.08,29.08,0,0,1,138.35,106.23Z"/><path class="cls-4" d="M91.39,118.81c-3.37,5.82-6.76,11.64-10.12,17.47q-4,7-8,14c-.74,1.3-1.5,2.58-2.23,3.88a.83.83,0,0,1-.7.48,11.1,11.1,0,0,1-2.34-2.2A25.42,25.42,0,0,1,70.37,148c2.13-3.79,4.32-7.54,6.5-11.3q3.45-6,6.93-12c1.51-2.57,2.86-5.24,4.57-7.69A13,13,0,0,1,91.39,118.81Z"/><path class="cls-18" d="M144.6,108.19Q147.81,102.57,151,97q3.32-5.79,6.67-11.55,1.94-3.36,3.86-6.72a2.6,2.6,0,0,1,.8-.88c.95.78,1.91,1.55,2.87,2.32L159,90.89l-6.37,11c-1.16,2-2.31,4-3.48,6a2.39,2.39,0,0,0-.39,1.11A18.61,18.61,0,0,1,144.6,108.19Z"/><path class="cls-13" d="M114.61,169.81c.21-.56.4-1,1.09-.37.41.37,1,.08,1.54.16A8.62,8.62,0,0,1,114.61,169.81Z"/><path class="cls-18" d="M148.77,109c.4.11,1-1,1.22.2C149.58,109.2,149.14,109.3,148.77,109Z"/><path class="cls-16" d="M52.8,110.41c-.45.36-1,.13-1.45.17A3,3,0,0,1,52.8,110.41Z"/><path class="cls-16" d="M39.33,134c.49,0,1-.19,1.46.15A3,3,0,0,1,39.33,134Z"/><path class="cls-13" d="M99.57,169.2c.41.05.86-.16,1.23.18A2.18,2.18,0,0,1,99.57,169.2Z"/></g><rect class="cls-19" width="220" height="220"/></g></g></g></svg>