<svg xmlns="http://www.w3.org/2000/svg" viewBox="0 0 220 220"><defs><style>.cls-1{fill:#fece3e;}.cls-2{fill:#fecb3b;}.cls-3{fill:#3772a4;}.cls-4{fill:#3770a0;}.cls-5{fill:#fed446;}.cls-6{fill:#fed243;}.cls-7{fill:#fed84a;}.cls-8{fill:#3775a8;}.cls-9{fill:#fecd3e;}.cls-10{fill:#fedb4e;}.cls-11{fill:#3777ab;}.cls-12{fill:#366b97;}.cls-13{fill:#3776ab;}.cls-14{fill:#fec939;}.cls-15{fill:#3778ae;}.cls-16{fill:#3879af;}.cls-17{fill:#37709f;}.cls-18{fill:#fed749;}.cls-19{fill:#366e9b;}.cls-20{fill:none;}</style></defs><title>Python@logo</title><g id="Capa_2" data-name="Capa 2"><g id="Logos"><g id="Python"><g id="Python-2" data-name="Python"><path class="cls-1" d="M184.52,157.48a22.16,22.16,0,0,1-5.51.59c-.66,0-1.32-.09-2-.09H137.33l-1,0a2.72,2.72,0,0,0-.9-.05H116.5c-.35-.16-.14-.28,0-.36a2.75,2.75,0,0,1,1.07-.09c5.5,0,11,0,16.5,0a1.71,1.71,0,0,0,1.53-.72,35.15,35.15,0,0,1,2.94-3.17c3.51-3.47,6.8-7.17,10.27-10.68q3.54-3.59,7-7.27c2.82-3,5.76-5.94,8.59-8.95,4.73-5,9.58-10,14.33-15,2.65-2.8,5.37-5.54,8-8.35,4.25-4.54,8.63-8.95,12.88-13.48,2.11-2.24,4.19-4.5,6.42-6.61l.15-.13c.41-.26.7-.24.89.29.4,1.11.67,2.26,1,3.4s.49,2.13.79,3.18a48.68,48.68,0,0,1,.94,5.1c0,.15,0,.33.19.41v9.67a93.75,93.75,0,0,0-6.66,6.86c-.12.12-.22.25-.34.37-2.47,2.36-4.78,4.87-7.14,7.34q-6.12,6.41-12.28,12.79c-2.17,2.26-4.31,4.55-6.49,6.8-4,4.08-7.83,8.25-11.8,12.33-1.41,1.45-2.83,2.89-4.23,4.35-.37.38-.77.75-.69,1.36,0,.31-.14.38-.4.37h-5.24c1.24,0,2.5,0,3.74,0,7.41-.29,14.82-.07,22.23-.15.91,0,1.82-.16,2.73-.26C183.81,157.27,184.2,157.16,184.52,157.48Z"/><path class="cls-2" d="M184.48,157.52c-2.29.16-4.57.35-6.87.34q-17-.06-33.9,0h-.9a.67.67,0,0,1,0-.17h17.4c-.4-.59-.1-1,.18-1.37a4.12,4.12,0,0,1,.28-.31c2.62-2.67,5.29-5.31,7.85-8,2.41-2.57,4.85-5.1,7.28-7.65,1.15-1.2,2.33-2.37,3.47-3.58,2.61-2.76,5.21-5.53,7.86-8.24,1.25-1.29,2.53-2.57,3.76-3.88,2.56-2.73,5.13-5.45,7.74-8.13,1.18-1.2,2.37-2.41,3.53-3.64,2.28-2.41,4.49-4.9,6.88-7.21.26-.25.48-.56.95-.49v19a19.23,19.23,0,0,0-.87,4c-1.57,7.44-4.1,14.44-9.16,20.29a27.25,27.25,0,0,1-14.91,9A5.7,5.7,0,0,1,184.48,157.52Z"/><path class="cls-3" d="M140.52,14.68a31.05,31.05,0,0,1,12.85,8A3.8,3.8,0,0,0,151.62,24c-4.08,4.05-8.12,8.14-12.21,12.18-11.36,11.25-22.57,22.66-34,33.89C85.35,89.86,65.58,110,45.51,129.81c-7.13,7-14.18,14.16-21.32,21.2a16.57,16.57,0,0,0-1.38,1.53A32.09,32.09,0,0,1,16,142.8a22.19,22.19,0,0,1-1.49-3.6,1,1,0,0,1,.3-1.19c.21-.19.39-.39.59-.59,16-15.94,31.83-31.95,47.86-47.81,8.9-8.8,17.72-17.7,26.62-26.51a2,2,0,0,1,1.61-.67c1.58,0,3.16,0,4.47,0-3.54-.11-7.36.2-11.18.12-1.3,0-2.61,0-3.91,0a1.4,1.4,0,0,1-.73-.12c-.09,0-.2-.12-.11-.25s.2-.07.31-.08h29.31c.94,0,.94,0,.94-.94V56a1.49,1.49,0,0,0-.08-.81H73.73l-.58,0c.24-.54.74-.4,1.15-.4,2.69,0,5.38,0,8.07,0,7.2.07,14.39-.09,21.58.18-1.3,0-2.6,0-3.91,0-.35,0-.77.07-1-.33s.17-.71.42-1l.47-.47q18.87-18.87,37.75-37.75c.16-.15.32-.3.47-.47a1.22,1.22,0,0,1,1.61-.41C140,14.63,140.29,14.58,140.52,14.68Z"/><path class="cls-4" d="M22.81,152.54a1.75,1.75,0,0,1,.59-1c6.75-6.73,13.43-13.51,20.22-20.19,20.2-19.86,40-40.09,60.18-60,10.91-10.77,21.69-21.66,32.58-32.45q7.65-7.59,15.28-15.22c.35-.35.76-.65,1.08-1s.42.13.63.05a18.41,18.41,0,0,1,5.44,13.77c0,.33,0,.66,0,1q0,22,0,44.07a20.1,20.1,0,0,1-.46,4.7c-.33-.3-.27-.7-.25-1.09.14-2.32.29-4.64.3-7,0-10.45,0-20.91,0-31.36a4.16,4.16,0,0,1,.15-1.4c0-3.65,0-7.3,0-10.95,0,3.54,0,7.09,0,10.63v.28c-.05.26-.2.25-.32.06a1.69,1.69,0,0,1-.14-1c0-1.32,0-2.65,0-4-.46,0-.62.29-.82.49-7.08,7.17-14.36,14.14-21.47,21.27-14.29,14.36-28.66,28.65-42.93,43a4.39,4.39,0,0,1-3.78,1.54c-1.83-.14-3.68,0-5,0,4,.11,8.59-.16,13.17-.15.48,0,.95,0,1.42,0,11.1,0,22.21-.06,33.31,0,1.14,0,2.27-.18,3.4-.27.44,0,.89-.14,1.25.23a22,22,0,0,1-5.36.52H84.09a33.34,33.34,0,0,0-13.19,2.29,25.14,25.14,0,0,0-6,3.5c-.21.17-.41.35-.63.51a23.31,23.31,0,0,0-4.5,5.49c-.21.25-.3.58-.49.84a12,12,0,0,0-1,2c-.16.24-.18.55-.34.79l-.16.38a12.78,12.78,0,0,0-.49,1.35h0c-.24.28-.22.66-.36,1s0,.47-.16.68a5.31,5.31,0,0,0-.48,1.74l0,0,0,0a9.32,9.32,0,0,0-.5,2.4c-.8,9.44-.19,18.91-.35,28.37,0,.79-.24.94-1,.94-5.55,0-11.1,0-16.66,0a13.68,13.68,0,0,1-4.25-.67,1.46,1.46,0,0,1,1.49-.13,15,15,0,0,0,4.16.36c4.89,0,9.78,0,14.67,0,1.06,0,1.13-.08,1.14-1.14,0-1.22,0-2.44,0-3.66.09-4.69.14-9.39,0-14.08-.06-1.61-.28-3.24-.25-4.87a15.09,15.09,0,0,1,.48-3.2.35.35,0,0,0-.08-.39c-.13-.12-.26,0-.37.05a6.54,6.54,0,0,0-.61.57c-3.55,3.55-7.13,7.08-10.65,10.67-4.25,4.31-8.69,8.43-12.94,12.74-.48.48-.78,1.16-1.47,1.44a9.6,9.6,0,0,1-2.35-1.34.55.55,0,0,0-.48-.32,3.25,3.25,0,0,1-1.16-.89c-.25-.13-.42-.36-.68-.47A7.11,7.11,0,0,1,22.81,152.54Z"/><path class="cls-5" d="M116.31,157.84H117q.09,0,.06.09s0,0-.06,0c-2,0-4,.05-6,0-.66,0-.85.18-.83.84,0,2,0,4,0,6-.35.07-.36-.21-.36-.4,0-2-.07-3.94,0-5.91a.48.48,0,0,1,.14-.26c-2,1.85-3.74,3.92-5.66,5.83-2.77,2.77-5.39,5.67-8.11,8.47-2.32,2.39-4.65,4.76-6.92,7.2-2.94,3.17-6,6.23-9,9.36-2.31,2.42-4.6,4.88-7,7.28-.81.83-1.56,1.73-2.4,2.53a3.57,3.57,0,0,0-.62,1.15,20.34,20.34,0,0,1-7.15-9.25A18.88,18.88,0,0,0,62.6,189a2,2,0,0,1,.36-2.21c.34-.4.66-.82,1-1.19,3.53-3.42,6.77-7.11,10.22-10.61,2.26-2.29,4.51-4.59,6.69-7,3-3.27,6.18-6.38,9.22-9.61,3.63-3.86,7.34-7.65,11-11.48l7.18-7.53c2.34-2.44,4.72-4.85,7-7.33,2.88-3.08,5.89-6,8.75-9.13,2.61-2.81,5.36-5.47,7.9-8.34.32-.35.73-.59,1.12-1a1.48,1.48,0,0,0-.87-.11h-9.33a1.93,1.93,0,0,1-1-.12c-.09-.05-.19-.13-.1-.25s.2-.07.31-.08h17a17,17,0,0,0,2.46-.26,49,49,0,0,0,5.75-1.24c7.45-2.3,12.44-7.22,15.4-14.34.29-.69.55-1.39.82-2.08a26.29,26.29,0,0,0,1.27-5c.91-5.09.35-10.23.51-15.34,0-.32-.11-.66.13-1,.41.26.33.68.33,1,0,1.74,0,3.49,0,5.24A1.37,1.37,0,0,0,166,81a7.06,7.06,0,0,0,1.61-1.52,21.65,21.65,0,0,1,1.53-1.65c3.28-3.23,6.37-6.64,9.56-10,2-2.07,4.13-4,6-6.24a1.27,1.27,0,0,1,1.47-.4c.85.19,1.67.49,2.53.65a20,20,0,0,1,6.57,3.39,8.65,8.65,0,0,1,2.22,2c-3.71,2.93-6.56,6.73-9.91,10-2.3,2.25-4.53,4.58-6.7,7-3,3.29-6.2,6.43-9.28,9.66-2.28,2.39-4.55,4.79-6.85,7.16-3.86,4-7.65,8-11.5,12-2.35,2.43-4.73,4.84-7,7.32-2.91,3.13-6,6.13-8.88,9.25-3.74,4-7.56,7.89-11.34,11.84q-3.42,3.57-6.83,7.16c-2.31,2.44-4.69,4.81-7,7.27a6.55,6.55,0,0,0-1.15,1.52c-.11.25-.26.42-.57.37a48.17,48.17,0,0,1,5.5-.08A.48.48,0,0,1,116.31,157.84Z"/><path class="cls-6" d="M116.31,157.89h-6c.66-.1.5-.79.84-1.14,1.41-1.44,2.74-3,4.14-4.42,3.22-3.36,6.51-6.66,9.68-10.07,1.21-1.3,2.48-2.54,3.7-3.82,2.55-2.67,5.15-5.29,7.63-8,1.15-1.25,2.36-2.42,3.52-3.64,2.67-2.79,5.38-5.52,8-8.36,1.2-1.31,2.47-2.54,3.69-3.82,2.55-2.67,5.15-5.29,7.63-8,1.18-1.29,2.44-2.5,3.64-3.76,2.63-2.75,5.3-5.44,7.87-8.24,1.18-1.29,2.43-2.5,3.64-3.77,2.56-2.68,5.18-5.32,7.68-8.06,1.24-1.35,2.56-2.62,3.82-3.94,2.51-2.63,5.05-5.22,7.51-7.88.83-.9,1.68-1.77,2.52-2.65a2.81,2.81,0,0,1,1.67-1.06l1.25,1a1,1,0,0,0,.72,1,29.07,29.07,0,0,1,4.44,6.4,51.75,51.75,0,0,1,4.88,13.93c0,.16,0,.33.05.49a24.79,24.79,0,0,1-1-3.26,29.34,29.34,0,0,1-.81-2.92c-.19-.85-.48-.85-1-.35C202.39,87.1,199,91,195.4,94.6c-.84.83-1.63,1.73-2.47,2.58-3,3.06-6,6.26-9,9.35-3.71,3.77-7.28,7.68-11,11.46q-3.81,3.89-7.53,7.86c-2.56,2.73-5.16,5.42-7.76,8.1s-5.23,5.5-7.86,8.23c-1.41,1.46-2.87,2.86-4.23,4.35-2.39,2.62-4.87,5.16-7.33,7.7a12.5,12.5,0,0,0-2.29,2.5c-.65,1.21-1.59,1-2.55,1H117.26C116.94,157.73,116.59,157.61,116.31,157.89Z"/><path class="cls-7" d="M121.81,113.19c.25.27.57.16.86.16h10.16c.24,0,.59-.14.69.12s-.3.43-.5.54a8.39,8.39,0,0,0-1.79,1.83c-2,2.08-4.1,4.14-6.09,6.26-2.83,3-5.73,6-8.58,8.93-2.43,2.55-4.85,5.1-7.29,7.64q-1.48,1.56-3,3.11c-2.84,2.92-5.57,6-8.46,8.82-2.26,2.24-4.42,4.59-6.6,6.91-3,3.22-6.12,6.34-9.16,9.53-2.29,2.41-4.56,4.83-6.89,7.2s-4.69,4.8-6.93,7.28c-1.46,1.61-3,3.08-4.51,4.66a13.18,13.18,0,0,0-1.15,1.52c-.19.27-.07.58,0,.88a10.21,10.21,0,0,1,.56,2.24,10.37,10.37,0,0,1-1-3.78,1,1,0,0,1-.06-.48,2.5,2.5,0,0,0,0-1.33.69.69,0,0,1,0-.25c0-.4,0-.8,0-1.2a11.47,11.47,0,0,0,.09-1.66V144a2.16,2.16,0,0,1,.12-1c.44.38.35.84.36,1.25v14.74a1.88,1.88,0,0,0,.11.95A3.43,3.43,0,0,0,64,158.72c1.09-1.34,2.32-2.54,3.52-3.77,2.29-2.34,4.56-4.71,6.82-7.07,4.17-4.34,8.32-8.7,12.51-13,2.22-2.29,4.39-4.64,6.61-6.93,3.87-4,7.61-8.07,11.52-12,.72-.72,1.34-1.55,2.2-2.27a5.85,5.85,0,0,0-1.3,0H98.29a1.45,1.45,0,0,1-1.15-.28c.15-.27.36-.19.54-.19h23.65A.69.69,0,0,1,121.81,113.19Z"/><path class="cls-8" d="M80,62.16c.29.26.64.14,1,.14H96.46v.17c-1.63,0-3.26,0-4.89,0a1.88,1.88,0,0,0-1.46.61c-8.33,8.36-16.61,16.76-25,25-16.77,16.47-33.26,33.23-49.94,49.79-.36.36-.76.68-.66,1.26a46.73,46.73,0,0,1-2.84-10.45c-.19-1.44-.27-2.91-.57-4.3s-.13-2.5-.47-3.72c-.12-.41-.18-1,.55-1,.26,0,.44-.32.63-.52C18.83,112,26.12,105,33.2,97.89c6.08-6.13,12.15-12.28,18.33-18.31,5.7-5.57,11.32-11.22,17-16.85a.94.94,0,0,1,.72-.34h5.08c-1.7.08-3.79-.12-5.89.09a35.63,35.63,0,0,1-3.58,0H59.24a1.93,1.93,0,0,1-1.06-.15.21.21,0,0,1,0-.26.79.79,0,0,1,.3,0H79.09C79.39,62.07,79.7,62,80,62.16Z"/><path class="cls-9" d="M101.6,209.52l-.06,0-.06,0a14.71,14.71,0,0,0-2.3-.25c-2-.16-3.94-.45-5.91-.69-1.62-.2-3.19-.64-4.8-.84-.79-.11-.83-.26-.37-1a4,4,0,0,1,.52-.65c1.9-1.79,3.63-3.74,5.43-5.63,3.93-4.11,7.9-8.19,11.82-12.31,2.64-2.78,5.31-5.53,8-8.29,4-4.14,7.85-8.32,11.87-12.38a22.63,22.63,0,0,0,1.66-1.87,1.58,1.58,0,0,1,1.35-.65h29a1.56,1.56,0,0,1,.74.08c.28.24.19.57.19.86a17.2,17.2,0,0,1-.14,3c-.5-.28-.35-.74-.4-1.14s.24-1.09-.23-1.29-.56.51-.85.8c-3.53,3.45-6.84,7.13-10.32,10.64-.49.49-.88,1.07-1.37,1.56-.21.22-.39.48-.73.52s-.57-.32-.82-.54A8.53,8.53,0,0,0,131.19,191a12.94,12.94,0,0,1,1.16,1.39,5.2,5.2,0,0,1-.85,1.47c-2.78,3-5.71,5.88-8.46,8.92-.81.91-1.69,1.76-2.57,2.59-1,1-1.94,2.14-3,3.14a.81.81,0,0,0-.31.88.27.27,0,0,1-.23.37h-9.73C105.35,209.76,103.48,209.56,101.6,209.52Z"/><path class="cls-6" d="M158.47,165.18q-14.75,0-29.49,0a1.62,1.62,0,0,0-1.53.74,17.66,17.66,0,0,1-1.88,2.09c-2.4,2.47-4.85,4.88-7.2,7.39s-4.9,5.13-7.35,7.69-4.87,5.08-7.3,7.63c-2.77,2.91-5.57,5.8-8.35,8.69-2.25,2.34-4.43,4.73-6.72,7a7.59,7.59,0,0,0-.73,1,3.59,3.59,0,0,0,.66.21c2.3.39,4.59.82,6.89,1.14,1.77.25,3.55.37,5.33.54.24,0,.51-.06.68.19a74.64,74.64,0,0,1-11.25-1.36,53.32,53.32,0,0,1-15.16-5,17,17,0,0,1-2.76-1.68c-.2-.06-.19-.45-.51-.33a6.51,6.51,0,0,1-1.5-1.1.92.92,0,0,1,.3-1.11c1.15-1.2,2.26-2.43,3.44-3.6,3.33-3.3,6.42-6.83,9.75-10.12,2.39-2.36,4.66-4.82,6.95-7.27,2.9-3.09,5.89-6.1,8.81-9.17,2.41-2.53,4.81-5.06,7.24-7.57,1-1.05,2-2.15,3.18-3.19,0,2.07,0,4,0,5.93,0,.29-.13.62.18.85l1.08,0q23.3,0,46.58,0c.8,0,1,.21,1,1q0,10.53,0,21.08c0,.3,0,.61,0,.91-.38,0-.37-.35-.42-.6a6.69,6.69,0,0,1,0-1c0-5.26,0-10.53,0-15.79,0-1.48.24-3,.17-4.46A1.59,1.59,0,0,0,158.47,165.18Z"/><path class="cls-10" d="M121.93,113.19H97.41v.16h10.51s-1.92,1.89-2.8,2.74c-3.59,3.51-6.88,7.31-10.43,10.85-1.3,1.29-2.58,2.6-3.82,3.94-2.49,2.69-5,5.31-7.57,8-1.18,1.22-2.37,2.41-3.53,3.64-2.59,2.74-5.17,5.49-7.8,8.19-1.2,1.23-2.41,2.45-3.59,3.7-1.73,1.84-3.45,3.68-5.18,5.51-.22.23-.43.51-.82.52V143.21h-.17v40.7a2.19,2.19,0,0,0,0,1.34h0a2.32,2.32,0,0,1,0,1.33v.54a8.74,8.74,0,0,1-.27-3.37c.06-.73.08-1.44.08-2.17,0-14.7-.08-29.41.08-44.11.07-6.85,2.44-12.9,7.7-17.56a27.11,27.11,0,0,1,12.16-6,36,36,0,0,1,8.27-.93q24.45,0,48.91,0c.88,0,1.77-.1,2.65-.15a5,5,0,0,1-1.92.34Z"/><path class="cls-8" d="M140.52,14.63c-1.46-.58-2.22.43-3.09,1.3L100,53.4a2,2,0,0,0-.29.29c-.19.25-.65.41-.46.8s.6.31,1,.31a30,30,0,0,1,3.91.17H82.65a7.1,7.1,0,0,0-2.47-.16c-.72,0-1.44,0-2.17,0-.28,0-.57,0-.72-.3a.56.56,0,0,1,.15-.67c.12-.14.24-.27.37-.4q17.52-17.51,35-35c2.19-2.17,4.41-4.31,6.6-6.47.22-.22.52-.4.6-.69.2-.67.71-.67,1.19-.52,1.05.32,2.16,0,3.2.32a17,17,0,0,0,2.25.23A56.28,56.28,0,0,1,136,13.12,28.33,28.33,0,0,1,140.52,14.63Z"/><path class="cls-11" d="M58.15,62.31H75v.17c-1.59,0-3.18,0-4.77,0a2.3,2.3,0,0,0-1.93.79c-4.64,4.7-9.27,9.42-14,14C44,87.27,34,97.59,23.71,107.62c-4.07,4-8.06,8-12.13,12-.19.18-.29.47-.74.36s-.21.47-.16.54c.58.83,0,1.77.28,2.63a6.6,6.6,0,0,1,.42,2.28c0,1.11.38,2.17.26,3.27a35.06,35.06,0,0,1-.9-5.47A99,99,0,0,1,10,109.46c0-2.11.39-4.2.21-6.3.46-.06.34.42.6.42C19.56,94.85,28.22,86.08,37,77.45,41.9,72.66,46.7,67.81,51.56,63a2.31,2.31,0,0,1,1.84-.75C55,62.32,56.57,62.22,58.15,62.31Z"/><path class="cls-12" d="M158.46,45.53v-.17c0-.08.1-.07.15,0,0,11.78,0,23.55,0,35.33,0,1.83-.1,3.69-.28,5.53a22,22,0,0,1-5.46,12.09c-4.33,4.8-9.91,7.22-16.18,8.23-1.45-.08-2.86.31-4.29.31H97c.12-.51.55-.38.87-.38,1.44,0,2.89,0,4.33,0h13.08a1.36,1.36,0,0,0,1.45-.7,3.93,3.93,0,0,1,.74-.79c7.44-7.44,14.85-14.9,22.33-22.31,5.63-5.59,11.23-11.23,16.86-16.83a4.78,4.78,0,0,1,1.15-1c.35-.18.59-.12.59.34v6.62c-.1-2,.16-4.56-.09-7.1,0-.25-.05-.66-.05-.9V46.72C158.23,46.31,158.14,45.88,158.46,45.53Z"/><path class="cls-13" d="M126.69,11.35a12,12,0,0,0-1.57.13c-.24.06-.51-.28-.88-.3a5.43,5.43,0,0,0-2.2,0,.14.14,0,0,1-.09,0c-1.23-.9-1.66.28-2.28.9-1.68,1.66-3.32,3.35-5,5-12.35,12-24.36,24.3-36.58,36.41-.13.14-.28.27-.41.42s-.39.28-.25.55.37.21.59.21c1.19,0,2.39,0,3.58,0a1.22,1.22,0,0,1,1.07.34H74c-.3,0-.62-.1-.88.14h-11a.77.77,0,0,1-.17-.63V47.39c0-.41,0-.78.62-.65.39.07.61-.34.86-.59l9-9c1-1,1.35-.93,1.89.4.22.52.11,1.3,1,1.35.36.09.54.39.74.65a8.64,8.64,0,0,0,12.62,1,8.85,8.85,0,0,0,2-9.52A8.45,8.45,0,0,0,87.13,27a3.31,3.31,0,0,1-.6-.44c-.52-.32-.75-.95-1.38-1.15-.29-.1-.23-.41-.06-.64a6.59,6.59,0,0,1,.67-.73L97.35,12.44c.16-.15.32-.3.47-.47.44-.5.41-.57-.26-.75a.62.62,0,0,1-.47-.36c.72-.07,1.39-.23,2.09-.25,1.66,0,3.32-.12,5-.26a69.71,69.71,0,0,1,7.65-.13,113.6,113.6,0,0,1,14.5,1A1.94,1.94,0,0,1,126.69,11.35Z"/><path class="cls-14" d="M158.46,165.18c.28.27.16.62.16.94q0,10.4,0,20.78c0,.32-.13.68.18.94a10.52,10.52,0,0,1-1,5.5,19.35,19.35,0,0,1-8,8.78,44.71,44.71,0,0,1-14.46,5.5,30.75,30.75,0,0,1-5.23.9c-2.63.36-5.28.65-7.93.88a14.57,14.57,0,0,0-2.87.18c-.75-.13-1.51.29-2.25-.08-.37-.27-.4-.52,0-.87.85-.87,1.65-1.78,2.5-2.65,3.29-3.42,6.61-6.81,9.89-10.25a15.11,15.11,0,0,1,2.7-2.66c.46-.29-.16-.34-.06-.52,0,0,0,0,.08,0h.08c.35-.15.58.11.82.27a8.33,8.33,0,0,0,10.59-.8,8.47,8.47,0,0,0,1.46-10.73c-.23-.37-.59-.69-.54-1.18,2-2.37,4.16-4.5,6.27-6.72s4-4.17,6.08-6.25a2.73,2.73,0,0,0,.23-.25c.22-.3.4-.84.79-.73s.31.7.32,1.1a5.22,5.22,0,0,0,.17,1.57Z"/><path class="cls-15" d="M58.15,62.36c-.42.33-.91.14-1.36.16-1.45,0-3-.32-4.29.14s-2.16,1.94-3.2,3C45.86,69.05,42.48,72.55,39,75.92c-9.19,8.86-18.07,18-27.15,27-.19.19-.39.39-.57.59s-.26.65-.63.57,0-.5-.29-.8a8.08,8.08,0,0,0,.08,1.86,2.44,2.44,0,0,1-.17,1.77c-.26.46-.06,1-.11,1.56,0,.34.12.72-.13,1a86.45,86.45,0,0,1,1.3-16.14,51.64,51.64,0,0,1,4.85-15c3.56-6.84,8.66-12,16-14.75A25.51,25.51,0,0,1,42.39,62c.28,0,.56,0,.83,0q33.15,0,66.29,0c.87,0,1.06-.24,1-1.06-.07-1.94-.05-3.88-.06-5.82,0,.12.15.24.15.36,0,2,0,4,0,6.08,0,.45-.21.58-.61.56-.22,0-.45,0-.67,0L80,62.21H58.15a2.28,2.28,0,0,1-.9.06H42.76a4.24,4.24,0,0,0-.74,0,1.29,1.29,0,0,1,.41,0H57.5A1.11,1.11,0,0,1,58.15,62.36Z"/><path class="cls-16" d="M104.21,10.35a.46.46,0,0,1-.44.18c-1.44-.09-2.86.29-4.3.17-.7-.06-1.35.27-2.09.16,0,.09.05.14.08.15.34.13.86-.22,1,.26s-.33.72-.61,1L85.64,24.52c-.33.34-1,.74.17.89.45.05.43.8.88,1-.31.19-.59,0-.87-.08a8.46,8.46,0,0,0-11.14,5.81,8.29,8.29,0,0,0,.47,5.77c.16.34.44.66.28,1.09-.43.27-.7.17-.89-.31s-.35-1.09-.59-1.63c-.32-.72-.54-.5-.92-.12-.86.88-1.73,1.73-2.59,2.6l-7.07,7.06c-.3.3-.6.73-1.16.29v8.27c-.52-.13-.26-.55-.26-.82,0-7.19,0-14.38-.06-21.57a14.91,14.91,0,0,1,.74-5.31,18.32,18.32,0,0,1,7.28-8.85,41.75,41.75,0,0,1,14.21-5.89A92.31,92.31,0,0,1,100,10.5C101.4,10.42,102.8,10.29,104.21,10.35Z"/><path class="cls-17" d="M39.15,159.18a17.61,17.61,0,0,1-4.74-.44,5.5,5.5,0,0,0-.82,0A15.14,15.14,0,0,1,29.14,157a10.69,10.69,0,0,1,1.44-1.71c8-7.8,15.9-15.74,23.81-23.64l.12-.12c.26-.26.58-.6.89-.35a.61.61,0,0,1-.17.95.15.15,0,0,0-.06.13,28.3,28.3,0,0,0-.15,6.3c.62,5.08.11,10.17.28,15.24-.67.11-.51-.43-.52-.74,0-1.22,0-2.44,0-3.66,0-.29.14-.7-.17-.84s-.52.24-.73.43c-3.21,2.94-6.24,6.06-9.3,9.15a2.39,2.39,0,0,1-2,.84c-.82-.06-1.66,0-2.49,0A1.25,1.25,0,0,0,39.15,159.18Z"/><path class="cls-18" d="M188.66,61.85a13.58,13.58,0,0,1-2.75-.57.79.79,0,0,0-.83.22c-.82.76-1.48,1.64-2.25,2.43-3.38,3.44-6.75,6.87-10,10.39-1.34,1.44-2.76,2.8-4.11,4.24-.77.82-1.54,1.66-2.32,2.48-.17.18-.36.44-.62.32s-.1-.4-.1-.6c0-2.24,0-4.48,0-6.87a1.42,1.42,0,0,0-.16.94c0,3.8,0,7.6,0,11.4a33.64,33.64,0,0,1-1.55,8.56c0,.15-.19.26-.29.39A46.69,46.69,0,0,0,165,88.36c.11-1,.22-2,.23-3.06q0-11.85,0-23.71c0-.75.21-.91.93-.91,5.52,0,11,0,16.56,0A15.2,15.2,0,0,1,188.66,61.85Z"/><path class="cls-6" d="M117.07,209.49l1.44-.33c.72.12,1,.24,1,.37s0,0,0,0a152,152,0,0,1-17.47,0,2,2,0,0,1-.4-.11c4.87.2,9.73.14,14.59.14C116.49,209.59,116.81,209.7,117.07,209.49Z"/><path class="cls-6" d="M117,158v-.14h18.44c.3,0,.62-.1.88.13l-7.82,0C124.63,158,120.8,158,117,158Z"/><path class="cls-9" d="M119.42,209.64l0-.1a1.39,1.39,0,0,1,1.12-.36,27.6,27.6,0,0,0,5.81-.36,18.17,18.17,0,0,1,3.83-.3,31.08,31.08,0,0,1-5.08.72C123.19,209.44,121.3,209.51,119.42,209.64Z"/><path class="cls-3" d="M55.83,130.08a3.54,3.54,0,0,1,.5-2.4A13.13,13.13,0,0,1,55.83,130.08Z"/><path class="cls-3" d="M56.34,127.59a2,2,0,0,1,.48-1.74A6.51,6.51,0,0,1,56.34,127.59Z"/><path class="cls-5" d="M199.46,69.19c-.55.1-.77-.12-.67-.67A1.41,1.41,0,0,1,199.46,69.19Z"/><path class="cls-3" d="M57.33,124.2a1.93,1.93,0,0,1,.49-1.35A3.1,3.1,0,0,1,57.33,124.2Z"/><path class="cls-3" d="M57,125.17c0-.38,0-.75.36-1A1.66,1.66,0,0,1,57,125.17Z"/><path class="cls-17" d="M26.31,155.38c.32-.14.53-.12.48.32A.77.77,0,0,1,26.31,155.38Z"/><path class="cls-3" d="M59.32,119.69a1,1,0,0,1,.49-.84A1.21,1.21,0,0,1,59.32,119.69Z"/><path class="cls-3" d="M64.31,113.36a.8.8,0,0,1,.63-.51A.8.8,0,0,1,64.31,113.36Z"/><path class="cls-3" d="M24.47,154a.76.76,0,0,1,.68.47C24.82,154.48,24.67,154.21,24.47,154Z"/><path class="cls-3" d="M58,122.47a.93.93,0,0,1,.34-.79A1,1,0,0,1,58,122.47Z"/><path class="cls-5" d="M71.8,201.18c.38-.21.4.13.51.33A.77.77,0,0,1,71.8,201.18Z"/><path class="cls-19" d="M158.46,45.53V72.65h-.17V65.5c0-.19.08-.43-.12-.54s-.34.12-.48.24c-1.59,1.32-3,2.86-4.43,4.32q-18,17.9-35.93,35.85c-.31.31-.68.55-.78,1s-.5.25-.77.25c-3.36,0-6.73,0-10.09,0h-8c-.27,0-.56-.1-.78.16H83.25v-.17h4.27c1.17,0,2.47.32,3.47-.09s1.64-1.55,2.45-2.35Q119.71,78,146,51.77c3.81-3.77,7.6-7.55,11.44-11.29.19-.19.35-.52.67-.4s.18.49.18.75c0,1.3,0,2.61,0,3.91C158.3,45,158.2,45.31,158.46,45.53Z"/><path class="cls-19" d="M39.15,159.18a.53.53,0,0,1,.53-.33,2.78,2.78,0,0,1,.5,0A5.79,5.79,0,0,0,46,156.48c1.62-1.93,3.53-3.61,5.32-5.39.91-.89,1.86-1.74,2.78-2.62.19-.17.38-.35.66-.26s.22.42.22.65c0,1.41,0,2.83,0,4.24,0,.28-.14.65.31.74,0,1.53,0,3,0,4.57,0,.65-.23.78-.82.78C49.39,159.17,44.27,159.18,39.15,159.18Z"/><path class="cls-19" d="M158.62,45.36h-.16V34.23h.16Z"/><path class="cls-5" d="M62.15,186.5v-1.33A1.23,1.23,0,0,1,62.15,186.5Z"/><path class="cls-5" d="M62.21,185.17a1.27,1.27,0,0,1,0-1.33Z"/><path class="cls-11" d="M58.15,62.31H42v-.17H58.16A1,1,0,0,0,58.15,62.31Z"/><path class="cls-8" d="M10.33,116.66V115.4s.08,0,0,0v1.24C10.41,116.64,10.38,116.65,10.33,116.66Z"/><path class="cls-8" d="M10.57,118.63a1.32,1.32,0,0,1,0,.94A1.27,1.27,0,0,1,10.57,118.63Z"/><path class="cls-13" d="M73.89,35.56a.55.55,0,0,1,0-.57A.48.48,0,0,1,73.89,35.56Z"/></g><rect class="cls-20" width="220" height="220"/></g></g></g></svg>