<svg xmlns="http://www.w3.org/2000/svg" xmlns:xlink="http://www.w3.org/1999/xlink" viewBox="0 0 470 470"><defs><style>.cls-1{fill:none;}.cls-2{fill:url(#Degradado_sin_nombre_13);}</style><linearGradient id="Degradado_sin_nombre_13" x1="104.92" y1="-18.99" x2="390.05" y2="266.14" gradientUnits="userSpaceOnUse"><stop offset="0"/><stop offset="1" stop-color="red"/></linearGradient></defs><title>Recurso 1@logo</title><g id="Capa_2" data-name="Capa 2"><g id="Capa_1-2" data-name="Capa 1"><rect class="cls-1" width="470" height="470"/><path d="M43.68,300.5H89.53a5,5,0,0,1,4.74,6.6l-43,127.19a5,5,0,0,0,8.6,4.77l141-172.39A5,5,0,0,0,197,258.5H129.27a5,5,0,0,1-4.56-7.07l10.46-23a5,5,0,0,1,4.55-2.93h78a5,5,0,0,0,4.27-2.4l18.9-31a5,5,0,0,0-4.26-7.6H158.72a5,5,0,0,1-4.69-6.76l8.25-22A5,5,0,0,1,167,152.5h91.79a5,5,0,0,0,4.21-2.31l16.62-26a5,5,0,0,0-4.22-7.69H108a5,5,0,0,0-4.69,3.27L39,293.77A5,5,0,0,0,43.68,300.5Z"/><path class="cls-2" d="M436.5,162.5a137.46,137.46,0,0,1-19.6,71,135.58,135.58,0,0,1-92.63,64l-.18,0H214.56a1,1,0,0,1-.82-1.57l43.2-62a1,1,0,0,1,.82-.43H305l.18,0c33.1-5.76,58.3-35.57,58.3-71.48s-25.2-65.72-58.3-71.48l-.18,0H37.29a1,1,0,0,1-.94-1.34l22.56-62a1,1,0,0,1,.94-.66H317.52a135.41,135.41,0,0,1,98.77,64A137.46,137.46,0,0,1,436.5,162.5Z"/><path d="M331.5,418.14c-.39.76-.73,1.56-1.19,2.27a7.78,7.78,0,0,1-6.83,3.87q-19.92,0-39.85,0a8.16,8.16,0,0,1-7.75-5.74c-.29-.88,0-1.12.71-1.37,3-1.1,6-2.2,9-3.36a5.06,5.06,0,0,1,1.88-.23q16.06,0,32.12,0a7.14,7.14,0,0,1,2.55.49c3.11,1.14,6.23,2.26,9.35,3.39Z"/><path d="M286.61,383c-4.8,0-9.3,0-13.8,0a2,2,0,0,1-1.52-.68q-9.75-9.85-19.55-19.65c-.8-.8-1.13-1.38-.19-2.24a3.82,3.82,0,0,0,.85-1.11c1.34-2.78,3.63-3.41,6.47-3a3,3,0,0,1,2,.78q12.63,12.69,25.29,25.34C286.28,382.52,286.35,382.66,286.61,383Z"/><path d="M286.85,385.7c-8.89,8.87-17.43,17.36-25.92,25.91-.84.84-1.75.64-2.7.8-2.54.42-4.2-.54-5.61-2.71-1.76-2.7-1.91-2.59.35-4.87q9-9,17.89-18.07a3.22,3.22,0,0,1,2.6-1.08C277.76,385.74,282.07,385.7,286.85,385.7Z"/></g></g></svg>